<svg class="icon-tap" width="46" height="46" viewBox="0 0 46 46" fill="none" xmlns="http://www.w3.org/2000/svg">
<circle cx="23" cy="23" r="23"/>
<mask id="path-2-inside-1" fill="white">
<path d="M33.44 20.5359L29.3382 16.0251C28.5265 15.2129 27.2044 15.2118 26.3851 16.0316C26.1255 16.2914 25.9488 16.6026 25.8571 16.9345C25.0411 16.3089 23.864 16.3711 23.1124 17.1233C22.8538 17.3831 22.6771 17.6943 22.5833 18.025C21.7673 17.4017 20.5902 17.4628 19.8397 18.215C19.5855 18.4694 19.4109 18.7728 19.316 19.096L17.3829 17.1615C16.5713 16.3493 15.2491 16.3482 14.4298 17.1681C13.6171 17.9803 13.6171 19.3034 14.4298 20.1167L21.8567 27.5489L17.4516 28.241C16.2614 28.4113 15.3636 29.4462 15.3636 30.6503C15.3636 31.5532 16.0978 32.2879 17 32.2879H27.2862C28.8887 32.2879 30.3953 31.6634 31.5287 30.5292L33.2447 28.8119C34.3771 27.6799 34.9999 26.1733 34.9999 24.5718C34.9999 23.0762 34.4458 21.6429 33.44 20.5359ZM32.4734 28.0401L30.7574 29.7573C29.8302 30.6852 28.5974 31.1961 27.2861 31.1961H17C16.6989 31.1961 16.4545 30.9516 16.4545 30.6503C16.4545 29.9865 16.9497 29.4156 17.6141 29.3206L23.085 28.4603C23.2879 28.4287 23.4548 28.2857 23.5192 28.0903C23.5825 27.896 23.5312 27.6809 23.3861 27.5357L15.2011 19.3448C14.8138 18.9573 14.8138 18.3263 15.2066 17.9322C15.4007 17.739 15.6549 17.6418 15.9091 17.6418C16.1633 17.6418 16.4175 17.739 16.6117 17.9333L22.0695 23.395C22.2822 23.6079 22.6281 23.6079 22.8408 23.395C22.9466 23.288 23.0001 23.1483 23.0001 23.0086C23.0001 22.8688 22.9467 22.7291 22.8397 22.6221L20.611 20.3918C20.2237 20.0043 20.2237 19.3743 20.6175 18.9802C21.0037 18.5938 21.6354 18.5938 22.0215 18.9802L24.2513 21.2116C24.4641 21.4245 24.8099 21.4245 25.0226 21.2116C25.1284 21.1046 25.1819 20.9649 25.1819 20.8252C25.1819 20.6854 25.1285 20.5457 25.0216 20.4387L23.8837 19.3001C23.4965 18.9125 23.4965 18.2826 23.8903 17.8885C24.2765 17.5021 24.9081 17.5021 25.2943 17.8885L26.4375 19.0326C26.4397 19.0337 26.4386 19.0337 26.4386 19.0337L26.4397 19.0347C26.4407 19.0358 26.4407 19.0358 26.4407 19.0358C26.4418 19.0369 26.4418 19.0369 26.4418 19.0369H26.4429C26.444 19.0369 26.444 19.038 26.444 19.038C26.6578 19.241 26.996 19.2367 27.2043 19.0271C27.417 18.8142 27.417 18.4681 27.2043 18.2552L27.1574 18.2083C26.9698 18.0205 26.8662 17.7705 26.8662 17.5052C26.8662 17.24 26.9687 16.9911 27.1629 16.7968C27.5513 16.4103 28.1796 16.4114 28.5495 16.7782L32.6338 21.2705C33.4552 22.1756 33.9091 23.348 33.9091 24.5718C33.9091 25.8819 33.3996 27.1133 32.4734 28.0401Z"/>
</mask>
<path d="M33.44 20.5359L29.3382 16.0251C28.5265 15.2129 27.2044 15.2118 26.3851 16.0316C26.1255 16.2914 25.9488 16.6026 25.8571 16.9345C25.0411 16.3089 23.864 16.3711 23.1124 17.1233C22.8538 17.3831 22.6771 17.6943 22.5833 18.025C21.7673 17.4017 20.5902 17.4628 19.8397 18.215C19.5855 18.4694 19.4109 18.7728 19.316 19.096L17.3829 17.1615C16.5713 16.3493 15.2491 16.3482 14.4298 17.1681C13.6171 17.9803 13.6171 19.3034 14.4298 20.1167L21.8567 27.5489L17.4516 28.241C16.2614 28.4113 15.3636 29.4462 15.3636 30.6503C15.3636 31.5532 16.0978 32.2879 17 32.2879H27.2862C28.8887 32.2879 30.3953 31.6634 31.5287 30.5292L33.2447 28.8119C34.3771 27.6799 34.9999 26.1733 34.9999 24.5718C34.9999 23.0762 34.4458 21.6429 33.44 20.5359ZM32.4734 28.0401L30.7574 29.7573C29.8302 30.6852 28.5974 31.1961 27.2861 31.1961H17C16.6989 31.1961 16.4545 30.9516 16.4545 30.6503C16.4545 29.9865 16.9497 29.4156 17.6141 29.3206L23.085 28.4603C23.2879 28.4287 23.4548 28.2857 23.5192 28.0903C23.5825 27.896 23.5312 27.6809 23.3861 27.5357L15.2011 19.3448C14.8138 18.9573 14.8138 18.3263 15.2066 17.9322C15.4007 17.739 15.6549 17.6418 15.9091 17.6418C16.1633 17.6418 16.4175 17.739 16.6117 17.9333L22.0695 23.395C22.2822 23.6079 22.6281 23.6079 22.8408 23.395C22.9466 23.288 23.0001 23.1483 23.0001 23.0086C23.0001 22.8688 22.9467 22.7291 22.8397 22.6221L20.611 20.3918C20.2237 20.0043 20.2237 19.3743 20.6175 18.9802C21.0037 18.5938 21.6354 18.5938 22.0215 18.9802L24.2513 21.2116C24.4641 21.4245 24.8099 21.4245 25.0226 21.2116C25.1284 21.1046 25.1819 20.9649 25.1819 20.8252C25.1819 20.6854 25.1285 20.5457 25.0216 20.4387L23.8837 19.3001C23.4965 18.9125 23.4965 18.2826 23.8903 17.8885C24.2765 17.5021 24.9081 17.5021 25.2943 17.8885L26.4375 19.0326C26.4397 19.0337 26.4386 19.0337 26.4386 19.0337L26.4397 19.0347C26.4407 19.0358 26.4407 19.0358 26.4407 19.0358C26.4418 19.0369 26.4418 19.0369 26.4418 19.0369H26.4429C26.444 19.0369 26.444 19.038 26.444 19.038C26.6578 19.241 26.996 19.2367 27.2043 19.0271C27.417 18.8142 27.417 18.4681 27.2043 18.2552L27.1574 18.2083C26.9698 18.0205 26.8662 17.7705 26.8662 17.5052C26.8662 17.24 26.9687 16.9911 27.1629 16.7968C27.5513 16.4103 28.1796 16.4114 28.5495 16.7782L32.6338 21.2705C33.4552 22.1756 33.9091 23.348 33.9091 24.5718C33.9091 25.8819 33.3996 27.1133 32.4734 28.0401Z" fill="white"/>
<path d="M33.44 20.5359L34.9202 19.1909L34.9197 19.1904L33.44 20.5359ZM29.3382 16.0251L30.8179 14.6795L30.7862 14.6447L30.7529 14.6114L29.3382 16.0251ZM25.8571 16.9345L24.6403 18.5217L26.9953 20.327L27.785 17.4667L25.8571 16.9345ZM23.1124 17.1233L21.6977 15.7096L21.6947 15.7126L23.1124 17.1233ZM22.5833 18.025L21.3692 19.6144L23.7051 21.3988L24.5074 18.5709L22.5833 18.025ZM19.8397 18.215L21.2544 19.6287L21.2554 19.6277L19.8397 18.215ZM19.316 19.096L17.9013 20.5097L20.2848 22.8949L21.235 19.6596L19.316 19.096ZM17.3829 17.1615L18.7976 15.7478L18.7976 15.7478L17.3829 17.1615ZM14.4298 17.1681L15.8436 18.5827L15.8446 18.5818L14.4298 17.1681ZM14.4298 20.1167L13.0151 21.5304L13.0151 21.5304L14.4298 20.1167ZM21.8567 27.5489L22.1672 29.5246L26.049 28.9147L23.2714 26.1351L21.8567 27.5489ZM17.4516 28.241L17.7349 30.2208L17.7485 30.2189L17.7621 30.2167L17.4516 28.241ZM31.5287 30.5292L30.114 29.1154L30.114 29.1154L31.5287 30.5292ZM33.2447 28.8119L31.8306 27.3976L31.83 27.3982L33.2447 28.8119ZM32.4734 28.0401L31.0587 26.6264L31.0587 26.6264L32.4734 28.0401ZM30.7574 29.7573L32.1721 31.171L32.1721 31.171L30.7574 29.7573ZM17.6141 29.3206L17.8971 31.3005L17.911 31.2985L17.9248 31.2963L17.6141 29.3206ZM23.085 28.4603L22.7765 26.4843L22.7744 26.4846L23.085 28.4603ZM23.5192 28.0903L25.4188 28.716L25.421 28.7094L23.5192 28.0903ZM23.3861 27.5357L21.9714 28.9494L21.9717 28.9497L23.3861 27.5357ZM15.2011 19.3448L13.7864 20.7586L13.7864 20.7586L15.2011 19.3448ZM15.2066 17.9322L13.7958 16.5146L13.7899 16.5204L15.2066 17.9322ZM16.6117 17.9333L18.0264 16.5196L18.0262 16.5194L16.6117 17.9333ZM22.0695 23.395L23.4842 21.9813L23.4842 21.9813L22.0695 23.395ZM22.8408 23.395L24.2555 24.8087L24.263 24.8012L22.8408 23.395ZM22.8397 22.6221L24.2544 21.2084L24.2544 21.2084L22.8397 22.6221ZM20.611 20.3918L19.1963 21.8055L19.1963 21.8055L20.611 20.3918ZM25.0226 21.2116L26.4374 22.6254L26.4448 22.6178L25.0226 21.2116ZM25.0216 20.4387L26.4363 19.025L26.4363 19.025L25.0216 20.4387ZM23.8837 19.3001L22.469 20.7138L22.469 20.7138L23.8837 19.3001ZM25.2943 17.8885L23.8796 19.3022L23.8796 19.3022L25.2943 17.8885ZM26.4375 19.0326L25.0228 20.4463L25.2591 20.6827L25.5594 20.8295L26.4375 19.0326ZM26.4386 19.0337L26.439 17.0337L21.6117 17.0328L25.0239 20.4474L26.4386 19.0337ZM26.4397 19.0347L27.8544 17.621L26.4397 19.0347ZM26.4407 19.0358L24.5494 18.3856L24.1435 19.5663L25.026 20.4495L26.4407 19.0358ZM26.4418 19.0369V17.0369H21.6158L25.0271 20.4506L26.4418 19.0369ZM26.444 19.038L24.444 19.0376L24.4438 19.8966L25.0667 20.4882L26.444 19.038ZM27.2043 19.0271L25.7896 17.6133L25.7858 17.6172L27.2043 19.0271ZM27.2043 18.2552L28.619 16.8415L28.619 16.8415L27.2043 18.2552ZM27.1574 18.2083L25.7427 19.622L25.7427 19.622L27.1574 18.2083ZM27.1629 16.7968L25.7522 15.379L25.7484 15.3829L27.1629 16.7968ZM28.5495 16.7782L30.0293 15.4327L29.9945 15.3945L29.9579 15.3582L28.5495 16.7782ZM32.6338 21.2705L34.1148 19.9264L34.1136 19.925L32.6338 21.2705ZM34.9197 19.1904L30.8179 14.6795L27.8585 17.3706L31.9603 21.8814L34.9197 19.1904ZM30.7529 14.6114C29.1567 13.014 26.5674 13.0198 24.9704 14.6179L27.7998 17.4453C27.8413 17.4038 27.8964 17.4117 27.9235 17.4388L30.7529 14.6114ZM24.9704 14.6179C24.464 15.1247 24.112 15.7404 23.9293 16.4022L27.785 17.4667C27.7856 17.4645 27.7865 17.4624 27.7878 17.4601C27.7891 17.4579 27.7923 17.4529 27.7998 17.4453L24.9704 14.6179ZM27.0739 15.3472C25.4669 14.1152 23.1635 14.2427 21.6977 15.7096L24.5271 18.537C24.539 18.5251 24.5489 18.5193 24.5569 18.5157C24.5658 18.5117 24.5765 18.5089 24.5884 18.5082C24.6136 18.5066 24.6303 18.514 24.6403 18.5217L27.0739 15.3472ZM21.6947 15.7126C21.1916 16.2181 20.8437 16.8288 20.6592 17.4792L24.5074 18.5709C24.5092 18.5644 24.5116 18.5587 24.5147 18.5536C24.5175 18.5486 24.5221 18.5421 24.53 18.5341L21.6947 15.7126ZM23.7974 16.4357C22.1933 15.2104 19.8906 15.3324 18.4239 16.8024L21.2554 19.6277C21.2667 19.6163 21.2759 19.6109 21.2835 19.6075C21.292 19.6037 21.3026 19.6009 21.3147 19.6001C21.3407 19.5985 21.3585 19.6062 21.3692 19.6144L23.7974 16.4357ZM18.4249 16.8013C17.9289 17.2977 17.5842 17.8954 17.3971 18.5324L21.235 19.6596C21.2367 19.6538 21.2387 19.6492 21.2411 19.6453C21.2433 19.6416 21.2471 19.636 21.2544 19.6287L18.4249 16.8013ZM20.7307 17.6823L18.7976 15.7478L15.9682 18.5752L17.9013 20.5097L20.7307 17.6823ZM18.7976 15.7478C17.2014 14.1505 14.6121 14.1562 13.0151 15.7543L15.8446 18.5818C15.8861 18.5402 15.9411 18.5481 15.9682 18.5752L18.7976 15.7478ZM13.0161 15.7534C11.4212 17.3473 11.4226 19.9367 13.0151 21.5304L15.8446 18.703C15.8346 18.693 15.8299 18.6847 15.8267 18.677C15.823 18.6679 15.8203 18.6558 15.8203 18.642C15.8203 18.6281 15.823 18.6163 15.8266 18.6075C15.8296 18.6001 15.8341 18.5922 15.8436 18.5827L13.0161 15.7534ZM13.0151 21.5304L20.442 28.9626L23.2714 26.1351L15.8446 18.703L13.0151 21.5304ZM21.5463 25.5731L17.1412 26.2652L17.7621 30.2167L22.1672 29.5246L21.5463 25.5731ZM17.1684 26.2611C14.9926 26.5724 13.3636 28.4515 13.3636 30.6503H17.3636C17.3636 30.4409 17.5303 30.2501 17.7349 30.2208L17.1684 26.2611ZM13.3636 30.6503C13.3636 32.6564 14.9919 34.2879 17 34.2879V30.2879C17.2037 30.2879 17.3636 30.4499 17.3636 30.6503H13.3636ZM17 34.2879H27.2862V30.2879H17V34.2879ZM27.2862 34.2879C29.4197 34.2879 31.4351 33.4523 32.9434 31.9429L30.114 29.1154C29.3555 29.8745 28.3578 30.2879 27.2862 30.2879V34.2879ZM32.9434 31.9429L34.6594 30.2257L31.83 27.3982L30.114 29.1154L32.9434 31.9429ZM34.6587 30.2263C36.1671 28.7184 36.9999 26.7027 36.9999 24.5718H32.9999C32.9999 25.6439 32.587 26.6413 31.8306 27.3976L34.6587 30.2263ZM36.9999 24.5718C36.9999 22.5786 36.2603 20.6658 34.9202 19.1909L31.9597 21.8808C32.6312 22.6199 32.9999 23.5738 32.9999 24.5718H36.9999ZM31.0587 26.6264L29.3427 28.3436L32.1721 31.171L33.8881 29.4538L31.0587 26.6264ZM29.3427 28.3436C28.7905 28.8962 28.0666 29.1961 27.2861 29.1961V33.1961C29.1282 33.1961 30.8699 32.4742 32.1721 31.171L29.3427 28.3436ZM27.2861 29.1961H17V33.1961H27.2861V29.1961ZM17 29.1961C17.8048 29.1961 18.4545 29.8484 18.4545 30.6503H14.4545C14.4545 32.0548 15.593 33.1961 17 33.1961V29.1961ZM18.4545 30.6503C18.4545 30.9888 18.211 31.2556 17.8971 31.3005L17.3311 27.3407C15.6885 27.5756 14.4545 28.9843 14.4545 30.6503H18.4545ZM17.9248 31.2963L23.3957 30.4361L22.7744 26.4846L17.3034 27.3449L17.9248 31.2963ZM23.3935 30.4364C24.3469 30.2876 25.1223 29.6161 25.4188 28.716L21.6196 27.4645C21.7874 26.9553 22.229 26.5698 22.7765 26.4843L23.3935 30.4364ZM25.421 28.7094C25.717 27.8001 25.4779 26.7993 24.8006 26.1217L21.9717 28.9497C21.5845 28.5624 21.448 27.9918 21.6175 27.4711L25.421 28.7094ZM24.8008 26.122L16.6158 17.9311L13.7864 20.7586L21.9714 28.9494L24.8008 26.122ZM16.6158 17.9311C17.0171 18.3327 17.0001 18.9658 16.6232 19.344L13.7899 16.5204C12.6276 17.6868 12.6106 19.5819 13.7864 20.7586L16.6158 17.9311ZM16.6173 19.3499C16.4233 19.5429 16.1645 19.6418 15.9091 19.6418V15.6418C15.1453 15.6418 14.3781 15.9351 13.7958 16.5146L16.6173 19.3499ZM15.9091 19.6418C15.6529 19.6418 15.3921 19.5422 15.1971 19.3472L18.0262 16.5194C17.4429 15.9358 16.6737 15.6418 15.9091 15.6418V19.6418ZM15.197 19.347L20.6548 24.8087L23.4842 21.9813L18.0264 16.5196L15.197 19.347ZM20.6548 24.8087C21.6487 25.8033 23.2616 25.8033 24.2555 24.8087L21.4261 21.9813C21.9945 21.4125 22.9158 21.4125 23.4842 21.9813L20.6548 24.8087ZM24.263 24.8012C24.7502 24.3085 25.0001 23.6586 25.0001 23.0086H21.0001C21.0001 22.638 21.143 22.2676 21.4186 21.9888L24.263 24.8012ZM25.0001 23.0086C25.0001 22.3577 24.7494 21.7037 24.2544 21.2084L21.425 24.0358C21.1439 23.7545 21.0001 23.3799 21.0001 23.0086H25.0001ZM24.2544 21.2084L22.0257 18.9781L19.1963 21.8055L21.425 24.0358L24.2544 21.2084ZM22.0257 18.9781C22.4274 19.38 22.4103 20.0157 22.0323 20.394L19.2028 17.5665C18.0372 18.733 18.0201 20.6285 19.1963 21.8055L22.0257 18.9781ZM22.0323 20.394C21.6373 20.7892 21.0018 20.7892 20.6068 20.394L23.4363 17.5665C22.2689 16.3984 20.3702 16.3984 19.2028 17.5665L22.0323 20.394ZM20.6068 20.394L22.8366 22.6253L25.6661 19.7979L23.4363 17.5665L20.6068 20.394ZM22.8366 22.6253C23.8305 23.6199 25.4435 23.6199 26.4374 22.6253L23.6079 19.7979C24.1764 19.2291 25.0976 19.2291 25.6661 19.7979L22.8366 22.6253ZM26.4448 22.6178C26.9321 22.1251 27.1819 21.4752 27.1819 20.8252H23.1819C23.1819 20.4546 23.3248 20.0842 23.6005 19.8054L26.4448 22.6178ZM27.1819 20.8252C27.1819 20.1743 26.9312 19.5203 26.4363 19.025L23.6068 21.8524C23.3257 21.5711 23.1819 21.1965 23.1819 20.8252H27.1819ZM26.4363 19.025L25.2984 17.8864L22.469 20.7138L23.6068 21.8524L26.4363 19.025ZM25.2984 17.8864C25.7001 18.2883 25.683 18.9239 25.305 19.3022L22.4756 16.4748C21.3099 17.6413 21.2928 19.5368 22.469 20.7138L25.2984 17.8864ZM25.305 19.3022C24.91 19.6975 24.2745 19.6975 23.8796 19.3022L26.709 16.4748C25.5416 15.3066 23.6429 15.3066 22.4756 16.4748L25.305 19.3022ZM23.8796 19.3022L25.0228 20.4463L27.8522 17.6189L26.709 16.4748L23.8796 19.3022ZM25.5594 20.8295C25.5228 20.8116 25.3942 20.7486 25.2472 20.6396C25.1775 20.5879 25.0228 20.4674 24.8694 20.2731C24.7375 20.1061 24.4078 19.6344 24.4412 18.9377C24.4799 18.1297 24.9644 17.6218 25.3007 17.389C25.5971 17.1839 25.8743 17.1119 25.9797 17.087C26.1122 17.0558 26.2207 17.0447 26.281 17.0399C26.3152 17.0372 26.3456 17.0357 26.3709 17.0348C26.3838 17.0344 26.3959 17.0341 26.4072 17.0339C26.4128 17.0338 26.4183 17.0338 26.4236 17.0337C26.4262 17.0337 26.4288 17.0337 26.4314 17.0337C26.4327 17.0337 26.4339 17.0337 26.4352 17.0337C26.4358 17.0337 26.4368 17.0337 26.4371 17.0337C26.438 17.0337 26.439 17.0337 26.4386 19.0337C26.4382 21.0337 26.4392 21.0337 26.4401 21.0337C26.4404 21.0337 26.4414 21.0337 26.442 21.0337C26.4433 21.0337 26.4445 21.0337 26.4458 21.0337C26.4484 21.0336 26.451 21.0336 26.4536 21.0336C26.4589 21.0336 26.4644 21.0335 26.47 21.0334C26.4813 21.0332 26.4934 21.033 26.5063 21.0325C26.5317 21.0317 26.562 21.0301 26.5963 21.0274C26.6567 21.0227 26.7652 21.0115 26.8977 20.9803C27.0033 20.9554 27.2805 20.8834 27.577 20.6782C27.9133 20.4454 28.3978 19.9374 28.4366 19.1294C28.47 18.4325 28.1403 17.9608 28.0083 17.7937C27.8547 17.5993 27.6999 17.4787 27.6301 17.4268C27.4827 17.3175 27.3533 17.2541 27.3157 17.2357L25.5594 20.8295ZM25.0239 20.4474L25.025 20.4484L27.8544 17.621L27.8533 17.62L25.0239 20.4474ZM25.025 20.4484C25.0254 20.4489 25.0253 20.4488 25.0249 20.4484C25.0248 20.4483 25.024 20.4475 25.0229 20.4464C25.0226 20.4461 25.021 20.4445 25.0189 20.4423C25.0183 20.4417 25.015 20.4384 25.0108 20.4341C25.0096 20.4329 25.0031 20.4262 24.9949 20.4177C24.9924 20.4151 24.9799 20.402 24.9642 20.3848C24.9593 20.3795 24.9357 20.3537 24.9072 20.3196C24.8974 20.308 24.8564 20.2591 24.8092 20.1926C24.7687 20.1332 24.6979 20.0169 24.6673 19.9603C24.4463 19.185 24.5495 18.3854 26.4407 19.0358C28.332 19.6862 28.4352 18.8866 28.2142 18.1113C28.1836 18.0548 28.1128 17.9385 28.0723 17.8791C28.0251 17.8125 27.9841 17.7637 27.9743 17.752C27.9458 17.7179 27.9222 17.6922 27.9173 17.6868C27.9016 17.6697 27.889 17.6565 27.8866 17.654C27.8784 17.6454 27.8719 17.6388 27.8707 17.6375C27.8665 17.6333 27.8632 17.6299 27.8626 17.6293C27.8605 17.6272 27.8588 17.6255 27.8585 17.6252C27.8574 17.6241 27.8566 17.6232 27.8564 17.623C27.8557 17.6223 27.855 17.6216 27.8544 17.621L25.025 20.4484ZM25.026 20.4495C25.0267 20.4502 25.0267 20.4502 25.027 20.4505C25.027 20.4505 25.027 20.4505 25.027 20.4505C25.027 20.4505 25.027 20.4505 25.027 20.4505C25.027 20.4505 25.027 20.4505 25.027 20.4505C25.027 20.4505 25.027 20.4505 25.027 20.4505C25.027 20.4505 25.027 20.4505 25.027 20.4505C25.0271 20.4505 25.0271 20.4506 25.0271 20.4506C25.0271 20.4506 25.027 20.4505 25.0271 20.4506C25.0271 20.4506 25.0271 20.4506 25.0271 20.4506C25.0271 20.4506 25.0271 20.4506 25.0271 20.4506C25.0271 20.4506 25.0271 20.4506 25.0271 20.4506C25.0271 20.4506 25.0271 20.4506 25.0271 20.4506C25.0271 20.4506 25.0271 20.4506 25.0271 20.4506C25.0271 20.4506 25.0271 20.4506 25.0271 20.4506C25.0271 20.4506 25.0271 20.4506 25.0271 20.4506C25.0271 20.4506 25.0271 20.4506 25.0271 20.4506C25.0271 20.4506 25.0271 20.4506 25.0271 20.4506C25.0271 20.4506 25.0271 20.4506 25.0271 20.4506C25.0281 17.6222 27.8564 17.6231 26.4418 19.0369C25.0272 20.4507 27.8556 20.4515 27.8565 17.6232C27.8565 17.6232 27.8565 17.6232 27.8566 17.6232C27.8565 17.6232 27.8565 17.6232 27.8565 17.6232C27.8565 17.6232 27.8565 17.6232 27.8565 17.6232C27.8565 17.6232 27.8565 17.6232 27.8565 17.6232C27.8565 17.6232 27.8565 17.6232 27.8565 17.6232C27.8565 17.6232 27.8565 17.6232 27.8565 17.6232C27.8565 17.6232 27.8565 17.6232 27.8565 17.6232C27.8565 17.6232 27.8565 17.6232 27.8565 17.6232C27.8565 17.6231 27.8565 17.6231 27.8564 17.623C27.8564 17.623 27.8563 17.6229 27.8563 17.6229C27.8563 17.6229 27.8563 17.6229 27.8563 17.6229C27.8563 17.6229 27.8563 17.6229 27.8563 17.6229C27.8562 17.6229 27.8563 17.6229 27.8562 17.6229C27.8562 17.6229 27.8562 17.6229 27.8562 17.6229C27.8562 17.6229 27.8562 17.6229 27.8562 17.6229C27.8562 17.6229 27.8562 17.6229 27.8562 17.6229C27.8562 17.6229 27.8562 17.6229 27.8562 17.6229C27.8562 17.6229 27.8562 17.6229 27.8562 17.6229C27.8562 17.6228 27.8562 17.6229 27.8562 17.6228C27.8562 17.6228 27.8562 17.6228 27.8562 17.6228C27.8562 17.6228 27.8562 17.6228 27.8562 17.6228C27.8561 17.6228 27.8562 17.6229 27.8561 17.6228C27.8561 17.6227 27.8561 17.6228 27.8561 17.6227C27.8559 17.6225 27.8562 17.6228 27.856 17.6226C27.8557 17.6224 27.8561 17.6227 27.8558 17.6225C27.8433 17.6099 27.868 17.6347 27.8555 17.6221L25.026 20.4495ZM26.4418 21.0369H26.4429V17.0369H26.4418V21.0369ZM26.4429 21.0369C26.093 21.0369 25.6975 20.9436 25.3336 20.7008C24.9823 20.4664 24.7731 20.1683 24.6547 19.9312C24.5401 19.7019 24.4928 19.4969 24.4711 19.3661C24.4594 19.2959 24.4528 19.2331 24.449 19.18C24.4471 19.1531 24.4458 19.1277 24.4451 19.1042C24.4447 19.0924 24.4444 19.0809 24.4442 19.0698C24.4441 19.0643 24.4441 19.0588 24.444 19.0535C24.444 19.0508 24.444 19.0481 24.444 19.0455C24.444 19.0441 24.444 19.0428 24.444 19.0415C24.444 19.0409 24.444 19.0399 24.444 19.0395C24.444 19.0386 24.444 19.0376 26.444 19.038C28.444 19.0383 28.444 19.0374 28.444 19.0364C28.444 19.0361 28.444 19.0351 28.444 19.0344C28.444 19.0331 28.444 19.0318 28.444 19.0305C28.4439 19.0278 28.4439 19.0252 28.4439 19.0225C28.4439 19.0171 28.4438 19.0116 28.4437 19.0061C28.4435 18.995 28.4433 18.9835 28.4429 18.9717C28.4421 18.9481 28.4408 18.9228 28.4389 18.8959C28.4351 18.8427 28.4285 18.7798 28.4168 18.7095C28.395 18.5785 28.3477 18.3732 28.233 18.1436C28.1144 17.9063 27.9051 17.6079 27.5534 17.3733C27.1892 17.1303 26.7933 17.0369 26.4429 17.0369V21.0369ZM25.0667 20.4882C26.0671 21.4383 27.6469 21.4188 28.6228 20.437L25.7858 17.6172C26.345 17.0545 27.2484 17.0437 27.8213 17.5878L25.0667 20.4882ZM28.619 20.4408C29.6121 19.447 29.6121 17.8353 28.619 16.8415L25.7896 19.6689C25.2219 19.1009 25.2219 18.1814 25.7896 17.6134L28.619 20.4408ZM28.619 16.8415L28.5721 16.7946L25.7427 19.622L25.7896 19.6689L28.619 16.8415ZM28.5721 16.7946C28.7587 16.9812 28.8662 17.2395 28.8662 17.5052H24.8662C24.8662 18.3016 25.1809 19.0598 25.7427 19.622L28.5721 16.7946ZM28.8662 17.5052C28.8662 17.7775 28.7529 18.0351 28.5774 18.2106L25.7484 15.3829C25.1844 15.947 24.8662 16.7024 24.8662 17.5052H28.8662ZM28.5736 18.2145C28.2037 18.5825 27.5728 18.6264 27.141 18.1982L29.9579 15.3582C28.7865 14.1964 26.8988 14.2381 25.7522 15.379L28.5736 18.2145ZM27.0696 18.1236L31.154 22.6159L34.1136 19.925L30.0293 15.4327L27.0696 18.1236ZM31.1528 22.6146C31.6408 23.1523 31.9091 23.8459 31.9091 24.5718H35.9091C35.9091 22.8502 35.2696 21.1988 34.1148 19.9264L31.1528 22.6146ZM31.9091 24.5718C31.9091 25.352 31.6099 26.0748 31.0587 26.6264L33.8881 29.4538C35.1893 28.1517 35.9091 26.4117 35.9091 24.5718H31.9091Z" fill="white" mask="url(#path-2-inside-1)"/>
<mask id="path-4-inside-2" fill="white">
<path d="M20.3774 16.6255C19.5833 14.8668 17.8291 13.7292 15.9091 13.7292C13.2025 13.7292 11 15.9333 11 18.6418C11 20.5631 12.1367 22.3186 13.8942 23.1144C13.9672 23.1472 14.0436 23.1625 14.1189 23.1625C14.3262 23.1625 14.5247 23.0424 14.6164 22.8415C14.7397 22.5664 14.6174 22.2432 14.3437 22.1188C12.9757 21.4998 12.0909 20.1352 12.0909 18.6418C12.0909 16.5348 13.8037 14.8209 15.9091 14.8209C17.4015 14.8209 18.7652 15.7062 19.3837 17.0752C19.507 17.3503 19.831 17.4736 20.1048 17.3481C20.3796 17.2237 20.5018 16.9006 20.3774 16.6255Z"/>
</mask>
<path d="M20.3774 16.6255C19.5833 14.8668 17.8291 13.7292 15.9091 13.7292C13.2025 13.7292 11 15.9333 11 18.6418C11 20.5631 12.1367 22.3186 13.8942 23.1144C13.9672 23.1472 14.0436 23.1625 14.1189 23.1625C14.3262 23.1625 14.5247 23.0424 14.6164 22.8415C14.7397 22.5664 14.6174 22.2432 14.3437 22.1188C12.9757 21.4998 12.0909 20.1352 12.0909 18.6418C12.0909 16.5348 13.8037 14.8209 15.9091 14.8209C17.4015 14.8209 18.7652 15.7062 19.3837 17.0752C19.507 17.3503 19.831 17.4736 20.1048 17.3481C20.3796 17.2237 20.5018 16.9006 20.3774 16.6255Z" fill="white"/>
<path d="M20.3774 16.6255L17.6433 17.8601L17.6438 17.8612L20.3774 16.6255ZM13.8942 23.1144L12.6566 25.8473L12.6672 25.852L13.8942 23.1144ZM14.6164 22.8415L17.3457 24.0867L17.3499 24.0776L17.354 24.0684L14.6164 22.8415ZM14.3437 22.1188L15.5851 19.3877L15.5804 19.3856L14.3437 22.1188ZM19.3837 17.0752L22.1214 15.8483L22.1176 15.8399L19.3837 17.0752ZM20.1048 17.3481L18.8678 14.615L18.8609 14.6181L18.8541 14.6212L20.1048 17.3481ZM23.1116 15.3908C21.8358 12.5654 19.0169 10.7292 15.9091 10.7292V16.7292C16.6413 16.7292 17.3308 17.1681 17.6433 17.8601L23.1116 15.3908ZM15.9091 10.7292C11.5437 10.7292 8 14.2785 8 18.6418H14C14 17.5881 14.8614 16.7292 15.9091 16.7292V10.7292ZM8 18.6418C8 21.7488 9.83313 24.5687 12.6566 25.8473L15.1317 20.3816C14.4403 20.0685 14 19.3775 14 18.6418H8ZM12.6672 25.852C13.1385 26.0633 13.6344 26.1625 14.1189 26.1625V20.1625C14.4529 20.1625 14.796 20.2311 15.1211 20.3768L12.6672 25.852ZM14.1189 26.1625C15.4697 26.1625 16.7535 25.3848 17.3457 24.0867L11.887 21.5963C12.2959 20.7 13.1826 20.1625 14.1189 20.1625V26.1625ZM17.354 24.0684C18.1515 22.2889 17.3634 20.1961 15.5851 19.3877L13.1022 24.8499C11.8715 24.2904 11.3278 22.8439 11.8787 21.6146L17.354 24.0684ZM15.5804 19.3856C15.2771 19.2483 15.0909 18.9472 15.0909 18.6418H9.09094C9.09094 21.3231 10.6742 23.7513 13.1069 24.852L15.5804 19.3856ZM15.0909 18.6418C15.0909 18.1897 15.4625 17.8209 15.9091 17.8209V11.8209C12.1448 11.8209 9.09094 14.88 9.09094 18.6418H15.0909ZM15.9091 17.8209C16.2112 17.8209 16.5119 18.0053 16.6498 18.3104L22.1176 15.8399C21.0184 13.4071 18.5918 11.8209 15.9091 11.8209V17.8209ZM16.6461 18.3021C17.4448 20.0843 19.5524 20.902 21.3555 20.0749L18.8541 14.6212C20.1096 14.0453 21.5692 14.6162 22.1214 15.8483L16.6461 18.3021ZM21.3418 20.0812C23.1235 19.2748 23.9187 17.1762 23.1111 15.3897L17.6438 17.8612C17.0849 16.625 17.6358 15.1726 18.8678 14.615L21.3418 20.0812Z" fill="white" mask="url(#path-4-inside-2)"/>
</svg>
