<svg  class="icon" width="24" height="25" viewBox="0 0 24 25" fill="none" xmlns="http://www.w3.org/2000/svg">
<mask id="path-1-inside-1" >
<path d="M22.44 9.53589L18.3382 5.02507C17.5265 4.21285 16.2044 4.21178 15.3851 5.03162C15.1255 5.29142 14.9488 5.60255 14.8571 5.93446C14.0411 5.30892 12.864 5.37115 12.1124 6.12334C11.8538 6.38314 11.6771 6.69427 11.5833 7.02505C10.7673 6.40172 9.59019 6.46281 8.83966 7.215C8.58546 7.46938 8.41093 7.77284 8.31602 8.09599L6.38292 6.16151C5.57128 5.3493 4.2491 5.34822 3.42984 6.16806C2.61714 6.98027 2.61714 8.3034 3.42984 9.11668L10.8567 16.5489L6.45164 17.241C5.26145 17.4113 4.36365 18.4462 4.36365 19.6503C4.36365 20.5532 5.09781 21.2879 6.00001 21.2879H16.2862C17.8887 21.2879 19.3953 20.6634 20.5287 19.5292L22.2447 17.8119C23.3771 16.6799 23.9999 15.1733 23.9999 13.5718C23.9999 12.0762 23.4458 10.6429 22.44 9.53589ZM21.4734 17.0401L19.7574 18.7573C18.8302 19.6852 17.5974 20.1961 16.2861 20.1961H5.99996C5.69887 20.1961 5.45449 19.9516 5.45449 19.6503C5.45449 18.9865 5.94974 18.4156 6.6141 18.3206L12.085 17.4603C12.2879 17.4287 12.4548 17.2857 12.5192 17.0903C12.5825 16.896 12.5312 16.6809 12.3861 16.5357L4.20108 8.34485C3.81383 7.95731 3.81383 7.3263 4.20655 6.93222C4.40072 6.73899 4.65492 6.64182 4.90912 6.64182C5.16332 6.64182 5.41746 6.73899 5.61168 6.9333L11.0695 12.395C11.2822 12.6079 11.6281 12.6079 11.8408 12.395C11.9466 12.288 12.0001 12.1483 12.0001 12.0086C12.0001 11.8688 11.9467 11.7291 11.8397 11.6221L9.611 9.39179C9.22375 9.00426 9.22374 8.37432 9.61755 7.98024C10.0037 7.59378 10.6354 7.59378 11.0215 7.98024L13.2513 10.2116C13.4641 10.4245 13.8099 10.4245 14.0226 10.2116C14.1284 10.1046 14.1819 9.96492 14.1819 9.82517C14.1819 9.68542 14.1285 9.54571 14.0216 9.43871L12.8837 8.30007C12.4965 7.91254 12.4965 7.2826 12.8903 6.88852C13.2765 6.50206 13.9081 6.50206 14.2943 6.88852L15.4375 8.03259C15.4397 8.03366 15.4386 8.03366 15.4386 8.03366L15.4397 8.03474C15.4407 8.03581 15.4407 8.03581 15.4407 8.03581C15.4418 8.03689 15.4418 8.03689 15.4418 8.03689H15.4429C15.444 8.03689 15.444 8.03796 15.444 8.03796C15.6578 8.24102 15.996 8.23667 16.2043 8.02706C16.417 7.81418 16.417 7.4681 16.2043 7.25522L16.1574 7.2083C15.9698 7.02055 15.8662 6.77052 15.8662 6.50524C15.8662 6.23996 15.9687 5.99105 16.1629 5.79675C16.5513 5.41029 17.1796 5.41137 17.5495 5.77818L21.6338 10.2705C22.4552 11.1756 22.9091 12.348 22.9091 13.5718C22.9091 14.8819 22.3996 16.1133 21.4734 17.0401Z"/>
</mask>
<path d="M22.44 9.53589L18.3382 5.02507C17.5265 4.21285 16.2044 4.21178 15.3851 5.03162C15.1255 5.29142 14.9488 5.60255 14.8571 5.93446C14.0411 5.30892 12.864 5.37115 12.1124 6.12334C11.8538 6.38314 11.6771 6.69427 11.5833 7.02505C10.7673 6.40172 9.59019 6.46281 8.83966 7.215C8.58546 7.46938 8.41093 7.77284 8.31602 8.09599L6.38292 6.16151C5.57128 5.3493 4.2491 5.34822 3.42984 6.16806C2.61714 6.98027 2.61714 8.3034 3.42984 9.11668L10.8567 16.5489L6.45164 17.241C5.26145 17.4113 4.36365 18.4462 4.36365 19.6503C4.36365 20.5532 5.09781 21.2879 6.00001 21.2879H16.2862C17.8887 21.2879 19.3953 20.6634 20.5287 19.5292L22.2447 17.8119C23.3771 16.6799 23.9999 15.1733 23.9999 13.5718C23.9999 12.0762 23.4458 10.6429 22.44 9.53589ZM21.4734 17.0401L19.7574 18.7573C18.8302 19.6852 17.5974 20.1961 16.2861 20.1961H5.99996C5.69887 20.1961 5.45449 19.9516 5.45449 19.6503C5.45449 18.9865 5.94974 18.4156 6.6141 18.3206L12.085 17.4603C12.2879 17.4287 12.4548 17.2857 12.5192 17.0903C12.5825 16.896 12.5312 16.6809 12.3861 16.5357L4.20108 8.34485C3.81383 7.95731 3.81383 7.3263 4.20655 6.93222C4.40072 6.73899 4.65492 6.64182 4.90912 6.64182C5.16332 6.64182 5.41746 6.73899 5.61168 6.9333L11.0695 12.395C11.2822 12.6079 11.6281 12.6079 11.8408 12.395C11.9466 12.288 12.0001 12.1483 12.0001 12.0086C12.0001 11.8688 11.9467 11.7291 11.8397 11.6221L9.611 9.39179C9.22375 9.00426 9.22374 8.37432 9.61755 7.98024C10.0037 7.59378 10.6354 7.59378 11.0215 7.98024L13.2513 10.2116C13.4641 10.4245 13.8099 10.4245 14.0226 10.2116C14.1284 10.1046 14.1819 9.96492 14.1819 9.82517C14.1819 9.68542 14.1285 9.54571 14.0216 9.43871L12.8837 8.30007C12.4965 7.91254 12.4965 7.2826 12.8903 6.88852C13.2765 6.50206 13.9081 6.50206 14.2943 6.88852L15.4375 8.03259C15.4397 8.03366 15.4386 8.03366 15.4386 8.03366L15.4397 8.03474C15.4407 8.03581 15.4407 8.03581 15.4407 8.03581C15.4418 8.03689 15.4418 8.03689 15.4418 8.03689H15.4429C15.444 8.03689 15.444 8.03796 15.444 8.03796C15.6578 8.24102 15.996 8.23667 16.2043 8.02706C16.417 7.81418 16.417 7.4681 16.2043 7.25522L16.1574 7.2083C15.9698 7.02055 15.8662 6.77052 15.8662 6.50524C15.8662 6.23996 15.9687 5.99105 16.1629 5.79675C16.5513 5.41029 17.1796 5.41137 17.5495 5.77818L21.6338 10.2705C22.4552 11.1756 22.9091 12.348 22.9091 13.5718C22.9091 14.8819 22.3996 16.1133 21.4734 17.0401Z" />
<path d="M22.44 9.53589L23.9202 8.19094L23.9197 8.19036L22.44 9.53589ZM18.3382 5.02507L19.8179 3.67953L19.7862 3.64468L19.7529 3.61136L18.3382 5.02507ZM14.8571 5.93446L13.6403 7.52172L15.9953 9.32704L16.785 6.46673L14.8571 5.93446ZM12.1124 6.12334L10.6977 4.70962L10.6947 4.71256L12.1124 6.12334ZM11.5833 7.02505L10.3692 8.61438L12.7051 10.3988L13.5074 7.57087L11.5833 7.02505ZM8.83966 7.215L10.2544 8.62871L10.2554 8.62765L8.83966 7.215ZM8.31602 8.09599L6.90131 9.5097L9.28478 11.8949L10.235 8.65958L8.31602 8.09599ZM6.38292 6.16151L7.79763 4.7478L7.79763 4.7478L6.38292 6.16151ZM3.42984 6.16806L4.84363 7.58271L4.84456 7.58177L3.42984 6.16806ZM3.42984 9.11668L2.01513 10.5304L2.01513 10.5304L3.42984 9.11668ZM10.8567 16.5489L11.1672 18.5246L15.049 17.9147L12.2714 15.1351L10.8567 16.5489ZM6.45164 17.241L6.73493 19.2208L6.74852 19.2189L6.76207 19.2167L6.45164 17.241ZM20.5287 19.5292L19.114 18.1154L19.114 18.1154L20.5287 19.5292ZM22.2447 17.8119L20.8306 16.3976L20.83 16.3982L22.2447 17.8119ZM21.4734 17.0401L20.0587 15.6264L20.0587 15.6264L21.4734 17.0401ZM19.7574 18.7573L21.1721 20.171L21.1721 20.171L19.7574 18.7573ZM6.6141 18.3206L6.89714 20.3005L6.91097 20.2985L6.92477 20.2963L6.6141 18.3206ZM12.085 17.4603L11.7765 15.4843L11.7744 15.4846L12.085 17.4603ZM12.5192 17.0903L14.4188 17.716L14.421 17.7094L12.5192 17.0903ZM12.3861 16.5357L10.9714 17.9494L10.9717 17.9497L12.3861 16.5357ZM4.20108 8.34485L2.78637 9.75856L2.78637 9.75856L4.20108 8.34485ZM4.20655 6.93222L2.79575 5.51458L2.78991 5.52044L4.20655 6.93222ZM5.61168 6.9333L7.02639 5.51959L7.02621 5.5194L5.61168 6.9333ZM11.0695 12.395L12.4842 10.9813L12.4842 10.9813L11.0695 12.395ZM11.8408 12.395L13.2555 13.8087L13.263 13.8012L11.8408 12.395ZM11.8397 11.6221L13.2544 10.2084L13.2544 10.2084L11.8397 11.6221ZM9.611 9.39179L8.19628 10.8055L8.19628 10.8055L9.611 9.39179ZM14.0226 10.2116L15.4374 11.6254L15.4448 11.6178L14.0226 10.2116ZM14.0216 9.43871L15.4363 8.025L15.4363 8.025L14.0216 9.43871ZM12.8837 8.30007L11.469 9.71378L11.469 9.71378L12.8837 8.30007ZM14.2943 6.88852L12.8796 8.30223L12.8796 8.30223L14.2943 6.88852ZM15.4375 8.03259L14.0228 9.4463L14.2591 9.68272L14.5594 9.82948L15.4375 8.03259ZM15.4386 8.03366L15.439 6.03366L10.6117 6.03281L14.0239 9.44737L15.4386 8.03366ZM15.4397 8.03474L16.8544 6.62103L15.4397 8.03474ZM15.4407 8.03581L13.5494 7.38556L13.1435 8.56632L14.026 9.44952L15.4407 8.03581ZM15.4418 8.03689V6.03689H10.6158L14.0271 9.4506L15.4418 8.03689ZM15.444 8.03796L13.444 8.03759L13.4438 8.8966L14.0667 9.48816L15.444 8.03796ZM16.2043 8.02706L14.7896 6.61335L14.7858 6.61717L16.2043 8.02706ZM16.2043 7.25522L17.619 5.84151L17.619 5.8415L16.2043 7.25522ZM16.1574 7.2083L14.7427 8.62201L14.7427 8.62202L16.1574 7.2083ZM16.1629 5.79675L14.7522 4.37902L14.7484 4.38285L16.1629 5.79675ZM17.5495 5.77818L19.0293 4.43275L18.9945 4.39455L18.9579 4.35819L17.5495 5.77818ZM21.6338 10.2705L23.1148 8.92639L23.1136 8.92505L21.6338 10.2705ZM23.9197 8.19036L19.8179 3.67953L16.8585 6.3706L20.9603 10.8814L23.9197 8.19036ZM19.7529 3.61136C18.1567 2.01401 15.5674 2.01977 13.9704 3.61791L16.7998 6.44533C16.8413 6.40379 16.8964 6.4117 16.9235 6.43878L19.7529 3.61136ZM13.9704 3.61791C13.464 4.12468 13.112 4.7404 12.9293 5.40219L16.785 6.46673C16.7856 6.46445 16.7865 6.46241 16.7878 6.46008C16.7891 6.45793 16.7923 6.45289 16.7998 6.44533L13.9704 3.61791ZM16.0739 4.3472C14.4669 3.11522 12.1635 3.24274 10.6977 4.70962L13.5271 7.53705C13.539 7.52511 13.5489 7.51927 13.5569 7.51572C13.5658 7.51173 13.5765 7.50893 13.5884 7.50816C13.6136 7.50655 13.6303 7.514 13.6403 7.52172L16.0739 4.3472ZM10.6947 4.71256C10.1916 5.21815 9.8437 5.82885 9.6592 6.47923L13.5074 7.57087C13.5092 7.56437 13.5116 7.55871 13.5147 7.55356C13.5175 7.54863 13.5221 7.54211 13.53 7.53411L10.6947 4.71256ZM12.7974 5.43572C11.1933 4.21036 8.8906 4.3324 7.42389 5.80235L10.2554 8.62765C10.2667 8.61634 10.2759 8.61088 10.2835 8.60753C10.292 8.60373 10.3026 8.6009 10.3147 8.60012C10.3407 8.59846 10.3585 8.60624 10.3692 8.61438L12.7974 5.43572ZM7.42494 5.80129C6.92891 6.29768 6.58416 6.8954 6.39707 7.53241L10.235 8.65958C10.2367 8.65383 10.2387 8.64925 10.2411 8.64529C10.2433 8.64157 10.2471 8.63603 10.2544 8.62871L7.42494 5.80129ZM9.73074 6.68228L7.79763 4.7478L4.9682 7.57522L6.90131 9.5097L9.73074 6.68228ZM7.79763 4.7478C6.20142 3.15045 3.61213 3.15621 2.01513 4.75435L4.84456 7.58177C4.88607 7.54023 4.94114 7.54814 4.9682 7.57522L7.79763 4.7478ZM2.01606 4.75341C0.421213 6.34729 0.422557 8.93669 2.01513 10.5304L4.84456 7.70297C4.83462 7.69302 4.82985 7.68475 4.82671 7.67699C4.82302 7.66786 4.82031 7.65584 4.82031 7.64197C4.82031 7.6281 4.82302 7.61627 4.82657 7.60749C4.82957 7.60009 4.83408 7.59225 4.84363 7.58271L2.01606 4.75341ZM2.01513 10.5304L9.44202 17.9626L12.2714 15.1351L4.84456 7.70297L2.01513 10.5304ZM10.5463 14.5731L6.14122 15.2652L6.76207 19.2167L11.1672 18.5246L10.5463 14.5731ZM6.16835 15.2611C3.99264 15.5724 2.36365 17.4515 2.36365 19.6503H6.36365C6.36365 19.4409 6.53025 19.2501 6.73493 19.2208L6.16835 15.2611ZM2.36365 19.6503C2.36365 21.6564 3.9919 23.2879 6.00001 23.2879V19.2879C6.20372 19.2879 6.36365 19.4499 6.36365 19.6503H2.36365ZM6.00001 23.2879H16.2862V19.2879H6.00001V23.2879ZM16.2862 23.2879C18.4197 23.2879 20.4351 22.4523 21.9434 20.9429L19.114 18.1154C18.3555 18.8745 17.3578 19.2879 16.2862 19.2879V23.2879ZM21.9434 20.9429L23.6594 19.2257L20.83 16.3982L19.114 18.1154L21.9434 20.9429ZM23.6587 19.2263C25.1671 17.7184 25.9999 15.7027 25.9999 13.5718H21.9999C21.9999 14.6439 21.587 15.6413 20.8306 16.3976L23.6587 19.2263ZM25.9999 13.5718C25.9999 11.5786 25.2603 9.66583 23.9202 8.19094L20.9597 10.8808C21.6312 11.6199 21.9999 12.5738 21.9999 13.5718H25.9999ZM20.0587 15.6264L18.3427 17.3436L21.1721 20.171L22.8881 18.4538L20.0587 15.6264ZM18.3427 17.3436C17.7905 17.8962 17.0666 18.1961 16.2861 18.1961V22.1961C18.1282 22.1961 19.8699 21.4742 21.1721 20.171L18.3427 17.3436ZM16.2861 18.1961H5.99996V22.1961H16.2861V18.1961ZM5.99996 18.1961C6.80477 18.1961 7.45449 18.8484 7.45449 19.6503H3.45449C3.45449 21.0548 4.59296 22.1961 5.99996 22.1961V18.1961ZM7.45449 19.6503C7.45449 19.9888 7.21101 20.2556 6.89714 20.3005L6.33106 16.3407C4.68847 16.5756 3.45449 17.9843 3.45449 19.6503H7.45449ZM6.92477 20.2963L12.3957 19.4361L11.7744 15.4846L6.30344 16.3449L6.92477 20.2963ZM12.3935 19.4364C13.3469 19.2876 14.1223 18.6161 14.4188 17.716L10.6196 16.4645C10.7874 15.9553 11.229 15.5698 11.7765 15.4843L12.3935 19.4364ZM14.421 17.7094C14.717 16.8001 14.4779 15.7993 13.8006 15.1217L10.9717 17.9497C10.5845 17.5624 10.448 16.9918 10.6175 16.4711L14.421 17.7094ZM13.8008 15.122L5.6158 6.93113L2.78637 9.75856L10.9714 17.9494L13.8008 15.122ZM5.6158 6.93113C6.0171 7.33272 6.00008 7.96582 5.6232 8.344L2.78991 5.52044C1.62757 6.68679 1.61055 8.58191 2.78637 9.75856L5.6158 6.93113ZM5.61735 8.34985C5.42334 8.54292 5.16449 8.64182 4.90912 8.64182V4.64182C4.14535 4.64182 3.3781 4.93506 2.79576 5.51459L5.61735 8.34985ZM4.90912 8.64182C4.65291 8.64182 4.39206 8.5422 4.19715 8.34719L7.02621 5.5194C6.44286 4.93579 5.67372 4.64182 4.90912 4.64182V8.64182ZM4.19696 8.34701L9.65479 13.8087L12.4842 10.9813L7.02639 5.51959L4.19696 8.34701ZM9.65479 13.8087C10.6487 14.8033 12.2616 14.8033 13.2555 13.8087L10.4261 10.9813C10.9945 10.4125 11.9158 10.4125 12.4842 10.9813L9.65479 13.8087ZM13.263 13.8012C13.7502 13.3085 14.0001 12.6586 14.0001 12.0086H10.0001C10.0001 11.638 10.143 11.2676 10.4186 10.9888L13.263 13.8012ZM14.0001 12.0086C14.0001 11.3577 13.7494 10.7037 13.2544 10.2084L10.425 13.0358C10.1439 12.7545 10.0001 12.3799 10.0001 12.0086H14.0001ZM13.2544 10.2084L11.0257 7.97808L8.19628 10.8055L10.425 13.0358L13.2544 10.2084ZM11.0257 7.97808C11.4274 8.38001 11.4103 9.01566 11.0323 9.39395L8.20283 6.56653C7.03721 7.73298 7.02012 9.6285 8.19628 10.8055L11.0257 7.97808ZM11.0323 9.39395C10.6373 9.78921 10.0018 9.78921 9.60683 9.39395L12.4363 6.56653C11.2689 5.39835 9.37017 5.39835 8.20283 6.56653L11.0323 9.39395ZM9.60683 9.39395L11.8366 11.6253L14.6661 8.79791L12.4363 6.56653L9.60683 9.39395ZM11.8366 11.6253C12.8305 12.6199 14.4435 12.6199 15.4374 11.6253L12.6079 8.79791C13.1764 8.22907 14.0976 8.22907 14.6661 8.79791L11.8366 11.6253ZM15.4448 11.6178C15.9321 11.1251 16.1819 10.4752 16.1819 9.82517H12.1819C12.1819 9.45461 12.3248 9.08419 12.6005 8.80542L15.4448 11.6178ZM16.1819 9.82517C16.1819 9.17431 15.9312 8.52032 15.4363 8.025L12.6068 10.8524C12.3257 10.5711 12.1819 10.1965 12.1819 9.82517H16.1819ZM15.4363 8.025L14.2984 6.88636L11.469 9.71378L12.6068 10.8524L15.4363 8.025ZM14.2984 6.88636C14.7001 7.2883 14.683 7.92394 14.305 8.30223L11.4756 5.47481C10.3099 6.64126 10.2928 8.53678 11.469 9.71378L14.2984 6.88636ZM14.305 8.30223C13.91 8.69749 13.2745 8.69749 12.8796 8.30223L15.709 5.47481C14.5416 4.30664 12.6429 4.30664 11.4756 5.47481L14.305 8.30223ZM12.8796 8.30223L14.0228 9.4463L16.8522 6.61888L15.709 5.47481L12.8796 8.30223ZM14.5594 9.82948C14.5228 9.81163 14.3942 9.7486 14.2472 9.6396C14.1775 9.58791 14.0228 9.46738 13.8694 9.27307C13.7375 9.1061 13.4078 8.63445 13.4412 7.93769C13.4799 7.12968 13.9644 6.62176 14.3007 6.38904C14.5971 6.18389 14.8743 6.11189 14.9797 6.08703C15.1122 6.0558 15.2207 6.04466 15.281 6.03989C15.3152 6.03718 15.3456 6.03567 15.3709 6.03481C15.3838 6.03437 15.3959 6.03409 15.4072 6.03391C15.4128 6.03382 15.4183 6.03376 15.4236 6.03372C15.4262 6.0337 15.4288 6.03369 15.4314 6.03368C15.4327 6.03367 15.4339 6.03367 15.4352 6.03367C15.4358 6.03367 15.4368 6.03366 15.4371 6.03366C15.438 6.03366 15.439 6.03366 15.4386 8.03366C15.4382 10.0337 15.4392 10.0337 15.4401 10.0337C15.4404 10.0337 15.4414 10.0337 15.442 10.0337C15.4433 10.0337 15.4445 10.0337 15.4458 10.0337C15.4484 10.0336 15.451 10.0336 15.4536 10.0336C15.4589 10.0336 15.4644 10.0335 15.47 10.0334C15.4813 10.0332 15.4934 10.033 15.5063 10.0325C15.5317 10.0317 15.562 10.0301 15.5963 10.0274C15.6567 10.0227 15.7652 10.0115 15.8977 9.98026C16.0033 9.95539 16.2805 9.88336 16.577 9.67817C16.9133 9.44542 17.3978 8.93745 17.4366 8.12937C17.47 7.43254 17.1403 6.96081 17.0083 6.79373C16.8547 6.59932 16.6999 6.47866 16.6301 6.42682C16.4827 6.31752 16.3533 6.25409 16.3157 6.2357L14.5594 9.82948ZM14.0239 9.44737L14.025 9.44845L16.8544 6.62103L16.8533 6.61995L14.0239 9.44737ZM14.025 9.44845C14.0254 9.44891 14.0253 9.44876 14.0249 9.44836C14.0248 9.44828 14.024 9.44747 14.0229 9.44642C14.0226 9.44613 14.021 9.44446 14.0189 9.44233C14.0183 9.44171 14.015 9.43838 14.0108 9.4341C14.0096 9.43286 14.0031 9.42622 13.9949 9.41766C13.9924 9.4151 13.9799 9.40195 13.9642 9.38483C13.9593 9.37947 13.9357 9.35374 13.9072 9.31961C13.8974 9.30797 13.8564 9.25909 13.8092 9.19259C13.7687 9.13316 13.6979 9.01685 13.6673 8.96035C13.4463 8.18501 13.5495 7.38542 15.4407 8.03581C17.332 8.68621 17.4352 7.88662 17.2142 7.11128C17.1836 7.05478 17.1128 6.93846 17.0723 6.87906C17.0251 6.81254 16.9841 6.76366 16.9743 6.75201C16.9458 6.71789 16.9222 6.69216 16.9173 6.6868C16.9016 6.66967 16.889 6.65652 16.8866 6.65396C16.8784 6.64541 16.8719 6.63877 16.8707 6.63752C16.8665 6.63325 16.8632 6.62991 16.8626 6.6293C16.8605 6.62716 16.8588 6.62548 16.8585 6.62517C16.8574 6.62409 16.8566 6.62322 16.8564 6.623C16.8557 6.62233 16.855 6.62164 16.8544 6.62103L14.025 9.44845ZM14.026 9.44952C14.0267 9.45018 14.0267 9.45021 14.027 9.45046C14.027 9.4505 14.027 9.45048 14.027 9.45051C14.027 9.45051 14.027 9.45052 14.027 9.45053C14.027 9.45053 14.027 9.45053 14.027 9.45053C14.027 9.45053 14.027 9.45053 14.027 9.45053C14.027 9.45054 14.027 9.45054 14.027 9.45054C14.0271 9.45055 14.0271 9.45055 14.0271 9.45055C14.0271 9.45059 14.027 9.45053 14.0271 9.45057C14.0271 9.45058 14.0271 9.45057 14.0271 9.45058C14.0271 9.4506 14.0271 9.45059 14.0271 9.4506C14.0271 9.4506 14.0271 9.4506 14.0271 9.4506C14.0271 9.4506 14.0271 9.4506 14.0271 9.4506C14.0271 9.4506 14.0271 9.4506 14.0271 9.4506C14.0271 9.4506 14.0271 9.4506 14.0271 9.4506C14.0271 9.4506 14.0271 9.4506 14.0271 9.4506C14.0271 9.4506 14.0271 9.4506 14.0271 9.4506C14.0271 9.4506 14.0271 9.4506 14.0271 9.4506C14.0271 9.4506 14.0271 9.45062 14.0271 9.45062C14.0281 6.62223 16.8564 6.62309 15.4418 8.03689C14.0272 9.45069 16.8556 9.45155 16.8565 6.62316C16.8565 6.62316 16.8565 6.62317 16.8566 6.62319C16.8565 6.62317 16.8565 6.62318 16.8565 6.62318C16.8565 6.62318 16.8565 6.62318 16.8565 6.62318C16.8565 6.62318 16.8565 6.62318 16.8565 6.62318C16.8565 6.62318 16.8565 6.62318 16.8565 6.62318C16.8565 6.62318 16.8565 6.62318 16.8565 6.62318C16.8565 6.62318 16.8565 6.62318 16.8565 6.62318C16.8565 6.62316 16.8565 6.62318 16.8565 6.62316C16.8565 6.62313 16.8565 6.62312 16.8564 6.62304C16.8564 6.62304 16.8563 6.62293 16.8563 6.62291C16.8563 6.62291 16.8563 6.62291 16.8563 6.6229C16.8563 6.6229 16.8563 6.6229 16.8563 6.62289C16.8562 6.62286 16.8563 6.62291 16.8562 6.62287C16.8562 6.62287 16.8562 6.62287 16.8562 6.62287C16.8562 6.62287 16.8562 6.62287 16.8562 6.62287C16.8562 6.62287 16.8562 6.62287 16.8562 6.62287C16.8562 6.62286 16.8562 6.62286 16.8562 6.62286C16.8562 6.62286 16.8562 6.62285 16.8562 6.62285C16.8562 6.62282 16.8562 6.62288 16.8562 6.62285C16.8562 6.62284 16.8562 6.62284 16.8562 6.62284C16.8562 6.62283 16.8562 6.62284 16.8562 6.62283C16.8561 6.62276 16.8562 6.62285 16.8561 6.62278C16.8561 6.62272 16.8561 6.62278 16.8561 6.62272C16.8559 6.62251 16.8562 6.62282 16.856 6.6226C16.8557 6.62236 16.8561 6.62271 16.8558 6.62246C16.8433 6.60993 16.868 6.63466 16.8555 6.6221L14.026 9.44952ZM15.4418 10.0369H15.4429V6.03689H15.4418V10.0369ZM15.4429 10.0369C15.093 10.0369 14.6975 9.9436 14.3336 9.70082C13.9823 9.46643 13.7731 9.16831 13.6547 8.93121C13.5401 8.70193 13.4928 8.49689 13.4711 8.36607C13.4594 8.29591 13.4528 8.23308 13.449 8.17997C13.4471 8.15307 13.4458 8.12774 13.4451 8.10417C13.4447 8.09236 13.4444 8.0809 13.4442 8.06982C13.4441 8.06428 13.4441 8.05882 13.444 8.05345C13.444 8.05077 13.444 8.0481 13.444 8.04546C13.444 8.04414 13.444 8.04282 13.444 8.04151C13.444 8.04085 13.444 8.03987 13.444 8.03955C13.444 8.03857 13.444 8.03759 15.444 8.03796C17.444 8.03833 17.444 8.03736 17.444 8.03638C17.444 8.03605 17.444 8.03507 17.444 8.03441C17.444 8.0331 17.444 8.03179 17.444 8.03046C17.4439 8.02782 17.4439 8.02516 17.4439 8.02247C17.4439 8.0171 17.4438 8.01164 17.4437 8.00609C17.4435 7.99501 17.4433 7.98355 17.4429 7.97173C17.4421 7.94814 17.4408 7.92279 17.4389 7.89587C17.4351 7.84269 17.4285 7.77977 17.4168 7.70952C17.395 7.5785 17.3477 7.37319 17.233 7.14364C17.1144 6.90627 16.9051 6.60788 16.5534 6.37329C16.1892 6.13031 15.7933 6.03689 15.4429 6.03689V10.0369ZM14.0667 9.48816C15.0671 10.4383 16.6469 10.4188 17.6228 9.43696L14.7858 6.61717C15.345 6.0545 16.2484 6.04373 16.8213 6.58777L14.0667 9.48816ZM17.619 9.44077C18.6121 8.44696 18.6121 6.83533 17.619 5.84151L14.7896 8.66894C14.2219 8.10088 14.2219 7.18141 14.7896 6.61335L17.619 9.44077ZM17.619 5.8415L17.5721 5.79458L14.7427 8.62202L14.7896 8.66895L17.619 5.8415ZM17.5721 5.79459C17.7587 5.98125 17.8662 6.23946 17.8662 6.50524H13.8662C13.8662 7.30158 14.1809 8.05984 14.7427 8.62201L17.5721 5.79459ZM17.8662 6.50524C17.8662 6.7775 17.7529 7.03507 17.5774 7.21065L14.7484 4.38285C14.1844 4.94704 13.8662 5.70242 13.8662 6.50524H17.8662ZM17.5736 7.21447C17.2037 7.58252 16.5728 7.62637 16.141 7.19816L18.9579 4.35819C17.7865 3.19637 15.8988 3.23807 14.7522 4.37903L17.5736 7.21447ZM16.0696 7.1236L20.154 11.6159L23.1136 8.92505L19.0293 4.43275L16.0696 7.1236ZM20.1528 11.6146C20.6408 12.1523 20.9091 12.8459 20.9091 13.5718H24.9091C24.9091 11.8502 24.2696 10.1988 23.1148 8.92639L20.1528 11.6146ZM20.9091 13.5718C20.9091 14.352 20.6099 15.0748 20.0587 15.6264L22.8881 18.4538C24.1893 17.1517 24.9091 15.4117 24.9091 13.5718H20.9091Z"  mask="url(#path-1-inside-1)"/>
<mask id="path-3-inside-2" >
<path d="M9.37744 5.62546C8.5833 3.86676 6.82911 2.72919 4.90909 2.72919C2.20255 2.72919 0 4.9333 0 7.64177C0 9.56315 1.13671 11.3186 2.89417 12.1144C2.96724 12.1472 3.04364 12.1625 3.11891 12.1625C3.32617 12.1625 3.52473 12.0424 3.61637 11.8415C3.73966 11.5664 3.61744 11.2432 3.34366 11.1188C1.97565 10.4998 1.09094 9.13519 1.09094 7.64177C1.09094 5.53483 2.80366 3.82085 4.90915 3.82085C6.40151 3.82085 7.76516 4.70619 8.38371 6.07517C8.507 6.35027 8.831 6.47365 9.10478 6.34807C9.37964 6.22367 9.50181 5.90056 9.37744 5.62546Z"/>
</mask>
<path d="M9.37744 5.62546C8.5833 3.86676 6.82911 2.72919 4.90909 2.72919C2.20255 2.72919 0 4.9333 0 7.64177C0 9.56315 1.13671 11.3186 2.89417 12.1144C2.96724 12.1472 3.04364 12.1625 3.11891 12.1625C3.32617 12.1625 3.52473 12.0424 3.61637 11.8415C3.73966 11.5664 3.61744 11.2432 3.34366 11.1188C1.97565 10.4998 1.09094 9.13519 1.09094 7.64177C1.09094 5.53483 2.80366 3.82085 4.90915 3.82085C6.40151 3.82085 7.76516 4.70619 8.38371 6.07517C8.507 6.35027 8.831 6.47365 9.10478 6.34807C9.37964 6.22367 9.50181 5.90056 9.37744 5.62546Z" />
<path d="M9.37744 5.62546L6.64327 6.86008L6.64379 6.86123L9.37744 5.62546ZM2.89417 12.1144L1.65662 14.8473L1.66721 14.852L2.89417 12.1144ZM3.61637 11.8415L6.34572 13.0867L6.3499 13.0776L6.35402 13.0684L3.61637 11.8415ZM3.34366 11.1188L4.5851 8.38771L4.58037 8.38557L3.34366 11.1188ZM8.38371 6.07517L11.1214 4.84826L11.1176 4.83991L8.38371 6.07517ZM9.10478 6.34807L7.86778 3.61497L7.86091 3.61808L7.85405 3.62123L9.10478 6.34807ZM12.1116 4.39083C10.8358 1.56543 8.01693 -0.270813 4.90909 -0.270813V5.72919C5.64129 5.72919 6.3308 6.16808 6.64327 6.86008L12.1116 4.39083ZM4.90909 -0.270813C0.543686 -0.270813 -3 3.27845 -3 7.64177H3C3 6.58814 3.86141 5.72919 4.90909 5.72919V-0.270813ZM-3 7.64177C-3 10.7488 -1.16687 13.5687 1.65663 14.8473L4.1317 9.38156C3.4403 9.06846 3 8.37748 3 7.64177H-3ZM1.66721 14.852C2.13848 15.0633 2.63439 15.1625 3.11891 15.1625V9.16247C3.45288 9.16247 3.796 9.23108 4.12112 9.37679L1.66721 14.852ZM3.11891 15.1625C4.46971 15.1625 5.75352 14.3848 6.34572 13.0867L0.887008 10.5963C1.29594 9.69997 2.18262 9.16247 3.11891 9.16247V15.1625ZM6.35402 13.0684C7.15151 11.2889 6.36342 9.19607 4.5851 8.38772L2.10221 13.8499C0.871461 13.2904 0.327799 11.8439 0.878716 10.6146L6.35402 13.0684ZM4.58037 8.38557C4.27707 8.24834 4.09094 7.94725 4.09094 7.64177H-1.90906C-1.90906 10.3231 -0.325765 12.7513 2.10694 13.852L4.58037 8.38557ZM4.09094 7.64177C4.09094 7.18965 4.46254 6.82085 4.90915 6.82085V0.820854C1.14477 0.820854 -1.90906 3.88001 -1.90906 7.64177H4.09094ZM4.90915 6.82085C5.21118 6.82085 5.51195 7.00528 5.64982 7.31042L11.1176 4.83991C10.0184 2.40711 7.59184 0.820854 4.90915 0.820854V6.82085ZM5.64606 7.30206C6.4448 9.08433 8.5524 9.90196 10.3555 9.07491L7.85405 3.62123C9.1096 3.04534 10.5692 3.61621 11.1214 4.84827L5.64606 7.30206ZM10.3418 9.08117C12.1235 8.27476 12.9187 6.17617 12.1111 4.38968L6.64379 6.86123C6.08492 5.62496 6.63578 4.17258 7.86778 3.61497L10.3418 9.08117Z"  mask="url(#path-3-inside-2)"/>
</svg>
