<svg width="30" height="30" viewBox="0 0 40 40" xmlns="http://www.w3.org/2000/svg">
<path d="M38.9681 12.588C37.5974 11.2173 35.367 11.2173 33.9958 12.5884C33.5741 13.0105 30.8815 15.7052 30.4702 16.117V6.83016C30.4702 5.89109 30.1045 5.00828 29.4405 4.3443L26.126 1.02969C25.462 0.365625 24.5791 0 23.6401 0H3.51709C1.57857 0 0.00146484 1.57711 0.00146484 3.51562V36.4844C0.00146484 38.4229 1.57857 40 3.51709 40H26.9546C28.8931 40 30.4702 38.4229 30.4702 36.4844V26.0649L38.968 17.5599C40.342 16.186 40.3423 13.9621 38.9681 12.588ZM23.439 2.34375C23.6605 2.34375 24.0871 2.30539 24.4687 2.68695L27.7833 6.00156C28.1551 6.37352 28.1265 6.78109 28.1265 7.03125H23.439V2.34375ZM28.1265 36.4844C28.1265 37.1305 27.6008 37.6562 26.9546 37.6562H3.51709C2.87092 37.6562 2.34522 37.1305 2.34522 36.4844V3.51562C2.34522 2.86945 2.87092 2.34375 3.51709 2.34375H21.0952V8.20312C21.0952 8.85031 21.6199 9.375 22.2671 9.375H28.1265V18.4627C28.1265 18.4627 24.6691 21.923 24.669 21.9231L23.0125 23.5797C22.8839 23.7083 22.7869 23.8652 22.7294 24.0377L21.072 29.0096C20.9316 29.4307 21.0412 29.895 21.3551 30.2088C21.6694 30.5231 22.1339 30.6322 22.5544 30.492L27.5262 28.8347C27.6988 28.7772 27.8557 28.6802 27.9843 28.5516L28.1265 28.4094V36.4844ZM25.4983 24.4084L27.1556 26.0656L26.5226 26.6987L24.0367 27.5273L24.8653 25.0413L25.4983 24.4084ZM28.8126 24.408L27.1553 22.7507C28.0378 21.8675 31.9572 17.9447 32.7885 17.1127L34.4458 18.77L28.8126 24.408ZM37.3105 15.903L36.1024 17.112L34.4451 15.4548L35.6536 14.2453C36.1108 13.7884 36.854 13.7884 37.3109 14.2453C37.7677 14.7023 37.7701 15.4432 37.3105 15.903Z" />
<path d="M22.2671 11.7188H5.86084C5.21365 11.7188 4.68896 12.2434 4.68896 12.8906C4.68896 13.5378 5.21365 14.0625 5.86084 14.0625H22.2671C22.9143 14.0625 23.439 13.5378 23.439 12.8906C23.439 12.2434 22.9143 11.7188 22.2671 11.7188Z" />
<path d="M17.5796 16.4062H5.86084C5.21365 16.4062 4.68896 16.9309 4.68896 17.5781C4.68896 18.2253 5.21365 18.75 5.86084 18.75H17.5796C18.2268 18.75 18.7515 18.2253 18.7515 17.5781C18.7515 16.9309 18.2268 16.4062 17.5796 16.4062Z" />
<path d="M17.5796 21.0938H5.86084C5.21365 21.0938 4.68896 21.6184 4.68896 22.2656C4.68896 22.9128 5.21365 23.4375 5.86084 23.4375H17.5796C18.2268 23.4375 18.7515 22.9128 18.7515 22.2656C18.7515 21.6184 18.2268 21.0938 17.5796 21.0938Z" />
<path d="M17.5796 25.7812H5.86084C5.21365 25.7812 4.68896 26.3059 4.68896 26.9531C4.68896 27.6003 5.21365 28.125 5.86084 28.125H17.5796C18.2268 28.125 18.7515 27.6003 18.7515 26.9531C18.7515 26.3059 18.2268 25.7812 17.5796 25.7812Z" />
<path d="M22.267 32.9688H15.2357C14.5885 32.9688 14.0638 33.4934 14.0638 34.1406C14.0638 34.7878 14.5885 35.3125 15.2357 35.3125H22.267C22.9142 35.3125 23.4388 34.7878 23.4388 34.1406C23.4388 33.4934 22.9142 32.9688 22.267 32.9688Z" />
</svg>
