<svg class="icon" width="46" height="46" viewBox="0 0 46 46" xmlns="http://www.w3.org/2000/svg">
<path d="M43.4935 23.704L43.9249 23L43.4935 22.2956C43.4212 22.1781 41.6861 19.3775 38.3152 16.5709C33.8318 12.8385 28.55 10.8655 23.0404 10.8655C17.5322 10.8655 12.2374 12.8375 7.72835 16.5681C4.33815 19.3733 2.58339 22.1718 2.51039 22.2897L2.06995 23L2.51039 23.7103C2.58339 23.8282 4.33815 26.6267 7.72835 29.4319C12.2374 33.1625 17.5322 35.1345 23.0404 35.1345C28.55 35.1345 33.8318 33.1615 38.3152 29.4291C41.6861 26.6225 43.4212 23.8219 43.4935 23.704V23.704ZM36.5191 27.4167C32.4859 30.7494 27.9509 32.4389 23.0404 32.4389C18.1281 32.4389 13.5784 30.7483 9.51785 27.4136C7.41776 25.689 5.99394 23.9427 5.2966 23C5.99429 22.0566 7.41811 20.3107 9.51785 18.5861C13.5784 15.2517 18.1278 13.5608 23.0404 13.5608C27.9509 13.5608 32.4856 15.2506 36.5191 18.5829C38.6097 20.3103 40.0212 22.0591 40.7091 23C40.0205 23.9413 38.6093 25.69 36.5191 27.4167Z"/>
<path d="M23 14.9021C18.5348 14.9021 14.9021 18.5348 14.9021 23C14.9021 27.4651 18.5348 31.0978 23 31.0978C27.4651 31.0978 31.0978 27.4651 31.0978 23C31.0978 18.5348 27.4651 14.9021 23 14.9021ZM23 28.4025C20.0211 28.4025 17.5974 25.9789 17.5974 23C17.5974 20.0211 20.0211 17.5974 23 17.5974C25.9789 17.5974 28.4025 20.0211 28.4025 23C28.4025 25.9789 25.9789 28.4025 23 28.4025Z"/>
<path d="M2.69531 2.69531H8.32178V0H0V8.2207H2.69531V2.69531Z"/>
<path d="M37.6782 0V2.69531H43.3047V8.2207H46V0H37.6782Z"/>
<path d="M2.69531 37.7793H0V46H8.32178V43.3047H2.69531V37.7793Z"/>
<path d="M43.3047 43.3047H37.6782V46H46V37.7793H43.3047V43.3047Z"/>
</svg>
