<svg width="128" height="42" viewBox="0 0 128 42" fill="none" xmlns="http://www.w3.org/2000/svg">
<path d="M27.0249 17.6506C27.1145 18.09 27.6641 18.0898 27.7536 17.6506C28.0215 16.3352 28.4158 16.1868 28.9618 15.9814C29.3026 15.8531 29.3035 15.3008 28.9618 15.1723C28.4374 14.9756 28.0279 14.8485 27.7536 13.5031C27.6643 13.0647 27.1141 13.0658 27.0251 13.5031C26.7569 14.8187 26.383 14.9595 25.8169 15.1725C25.4761 15.3008 25.4752 15.8529 25.8169 15.9816C26.757 16.3351 26.8636 16.8584 27.0249 17.6506Z" fill="black"/>
<path d="M9.08357 15.1723C8.55918 14.9756 8.14968 14.8485 7.87546 13.5031C7.78617 13.0647 7.2359 13.0658 7.14688 13.5031C6.87871 14.8187 6.50479 14.9595 5.93877 15.1725C5.5979 15.3008 5.59705 15.8529 5.93877 15.9816C6.87899 16.3354 6.98559 16.8587 7.14688 17.6508C7.23646 18.0902 7.78603 18.09 7.8756 17.6508C8.14349 16.3354 8.53781 16.1869 9.08371 15.9816C9.42445 15.8531 9.42529 15.3008 9.08357 15.1723Z" fill="black"/>
<path d="M10.8321 34.2607L9.67196 39.8509H6.88196L7.62868 31.1869L7.63852 30.3027L7.65258 29.1815H10.2542L10.8321 34.2607Z" fill="#FFB69F"/>
<path d="M21.8035 18.5134L17.3528 23.362L12.902 18.5134C13.7626 18.1161 13.4546 18.2603 14.0537 17.9784C14.4784 17.7814 14.7878 17.3713 14.9031 16.8844C14.9382 16.745 14.9551 16.5992 14.9551 16.4503V15.6558C16.4148 16.6137 18.3006 16.5944 19.7504 15.5773V16.4503C19.7504 16.58 19.7631 16.7066 19.7898 16.8299C19.8953 17.3409 20.2117 17.7749 20.6518 17.9784C21.2818 18.2731 20.9359 18.1129 21.8035 18.5134Z" fill="#FFB69F"/>
<path d="M19.7898 16.8299C18.2584 17.6804 16.4345 17.6916 14.9031 16.8843C14.9382 16.745 14.9551 16.5992 14.9551 16.4503V15.6558C16.4148 16.6136 18.3006 16.5944 19.7504 15.5773V16.4503C19.7504 16.58 19.763 16.7066 19.7898 16.8299Z" fill="#E98E7B"/>
<path d="M10.8321 34.2607L9.67193 39.8509H8.66365L9.83224 34.2014L9.39068 30.3027H7.63849L7.65255 29.1815H10.2541L10.8321 34.2607Z" fill="#E98E7B"/>
<path d="M19.7897 25.5949V39.1188C19.7897 39.4456 19.9613 39.7259 20.2074 39.8509H9.67459L10.8319 34.2606L10.2554 29.1813H7.6524L7.72694 22.7021C7.73959 21.6241 8.31475 20.6614 9.18944 20.2513C11.4071 19.2102 10.3215 19.7179 12.9019 18.5134L17.3527 23.362L21.8035 18.5134C24.5333 19.7862 23.8413 19.4618 25.516 20.2513C26.3907 20.6614 26.9658 21.6241 26.9785 22.7021L26.9897 23.6728L27.0024 24.794H20.4929C20.1047 24.794 19.7897 25.1528 19.7897 25.5949Z" fill="#276749"/>
<path d="M19.7897 25.5949V39.1188C19.7897 39.4456 19.9613 39.7259 20.2074 39.8509H18.9333C18.8504 39.6218 18.8054 39.3735 18.8054 39.1188V25.5949C18.8054 24.5345 19.5619 23.6728 20.4929 23.6728H26.9897L27.0024 24.794H20.4929C20.1047 24.794 19.7897 25.1528 19.7897 25.5949Z" fill="#B14E34"/>
<path d="M12.632 11.9012H12.22C11.4662 11.9012 10.8573 11.206 10.8573 10.3474C10.8573 9.49208 11.4648 8.7937 12.22 8.7937H12.5589V10.9609C12.5589 11.2845 12.5828 11.6 12.632 11.9012Z" fill="#FFB69F"/>
<path d="M22.037 6.45667V10.9609C22.037 11.2813 22.0145 11.5968 21.9652 11.9012C21.8091 12.9231 21.3943 13.8826 20.7502 14.6578C20.4634 15.0054 20.1287 15.3146 19.7504 15.5773C18.3006 16.5944 16.4148 16.6136 14.9551 15.6557C14.5881 15.4171 14.252 15.124 13.9552 14.7876C13.2788 14.0235 12.8063 13.0272 12.632 11.9012C12.5827 11.6 12.5588 11.2845 12.5588 10.9609V6.45667H22.037Z" fill="#FFB69F"/>
<path d="M12.5593 6.457C12.5593 6.457 18.1796 8.46291 22.0377 7.74211V6.457H12.5593Z" fill="#7C7A78"/>
<path d="M23.7386 10.349C23.7386 11.2044 23.1311 11.9012 22.3759 11.9012H21.9653C22.0145 11.5968 22.037 11.2813 22.037 10.9609V8.7937H22.3759C23.1296 8.7937 23.7386 9.48888 23.7386 10.349Z" fill="#FFB69F"/>
<path d="M22.0377 6.45699H12.5593V6.0519C12.5593 3.30946 14.511 1.08633 16.9186 1.08633H17.6783C20.0859 1.08633 22.0377 3.30946 22.0377 6.0519V6.45699Z" fill="#276749"/>
<path d="M20.7502 11.4078V14.6579C20.4633 15.0054 20.1286 15.3146 19.7504 15.5773C18.3005 16.5944 16.4147 16.6137 14.955 15.6558C14.588 15.4171 14.2519 15.124 13.9552 14.7876V11.4078H20.7502Z" fill="#EEEEEE"/>
<path d="M29.9302 25.5949V39.1188C29.9302 39.5609 29.6152 39.9197 29.2271 39.9197H20.4929C20.3916 39.9197 20.2946 39.8957 20.2074 39.8509C19.9613 39.7259 19.7897 39.4456 19.7897 39.1188V25.5949C19.7897 25.1528 20.1047 24.794 20.4929 24.794H29.2271C29.6152 24.794 29.9302 25.1528 29.9302 25.5949Z" fill="#EFBF27"/>
<path d="M21.4338 26.3629H28.2864V37.8358H21.4338V26.3629Z" fill="#EEEEEE"/>
<path d="M20.4036 5.09371C20.3842 4.95708 20.3548 4.82141 20.3163 4.69022C20.2548 4.48038 20.3544 4.25357 20.5384 4.18357C20.7224 4.11373 20.9218 4.22698 20.9832 4.43665C21.0336 4.60869 21.072 4.78649 21.0976 4.96541C21.1286 5.18373 20.9986 5.3894 20.8069 5.4248C20.6155 5.4602 20.4348 5.3122 20.4036 5.09371ZM19.6463 3.55038C19.2318 3.14 18.7015 2.91415 18.1532 2.91415C18.153 2.91415 18.153 2.91415 18.153 2.91415H16.444C16.2498 2.91415 16.0925 2.73491 16.0925 2.5137C16.0925 2.29249 16.2498 2.11325 16.444 2.11325H18.153H18.1533C18.8711 2.11325 19.565 2.40894 20.1076 2.94586C20.2541 3.09083 20.2697 3.34375 20.1425 3.51082C20.015 3.67756 19.793 3.6955 19.6463 3.55038Z" fill="#FFCAC2"/>
<path d="M27.9313 15.5806C27.7246 15.7456 27.539 15.9683 27.3786 16.2918C27.245 16.0371 27.0622 15.7969 26.7922 15.587C27.0102 15.4156 27.2057 15.185 27.3716 14.8438C27.5404 15.1898 27.733 15.4188 27.9313 15.5806Z" fill="#F0C020"/>
<path d="M8.17708 15.5806C7.97036 15.7456 7.78474 15.9683 7.62443 16.2918C7.49084 16.0371 7.30802 15.7969 7.03802 15.587C7.25599 15.4156 7.45146 15.185 7.6174 14.8438C7.78615 15.1898 7.9788 15.4188 8.17708 15.5806Z" fill="#F0C020"/>
<path d="M6.95111 35.3694L6.56721 39.8127C6.5478 40.0556 6.71542 40.2515 6.91736 40.2515C7.09877 40.2515 7.24924 40.0962 7.26752 39.8895L7.65002 35.4479C7.67055 35.2235 7.52472 35.0319 7.33502 35.009C7.14095 34.988 6.96939 35.15 6.95111 35.3694Z" fill="black"/>
<path d="M7.78788 33.8525C7.80616 33.633 7.66413 33.4376 7.47147 33.4152C7.27882 33.3943 7.10726 33.5561 7.08757 33.7756C7.06985 33.9982 7.21019 34.1898 7.40397 34.2129C7.57779 34.2382 7.76707 34.0884 7.78788 33.8525Z" fill="black"/>
<path d="M15.1277 9.03781C14.9335 9.03781 14.7762 9.21705 14.7762 9.43826V9.75606C14.7762 9.97726 14.9335 10.1565 15.1277 10.1565C15.3219 10.1565 15.4793 9.97726 15.4793 9.75606V9.43826C15.4793 9.21705 15.3219 9.03781 15.1277 9.03781Z" fill="black"/>
<path d="M19.5388 10.1565C19.733 10.1565 19.8903 9.97726 19.8903 9.75606V9.43826C19.8903 9.21705 19.733 9.03781 19.5388 9.03781C19.3446 9.03781 19.1872 9.21705 19.1872 9.43826V9.75606C19.1872 9.97726 19.3446 10.1565 19.5388 10.1565Z" fill="black"/>
<path d="M14.2805 2.65114C14.4254 2.50378 14.438 2.2491 14.3086 2.08571C14.1835 1.92714 13.9501 1.91272 13.8122 2.05368C13.6659 2.20377 13.6556 2.45284 13.7841 2.61911C13.9174 2.78666 14.1398 2.79402 14.2805 2.65114Z" fill="black"/>
<path d="M29.2626 24.3936H27.3849L27.3655 22.6966C27.3509 21.458 26.6914 20.3527 25.6859 19.8813C24.5283 19.3356 24.9753 19.539 20.8209 17.6085C20.406 17.4158 20.1374 16.9544 20.1374 16.4504V15.7937C21.2641 14.9431 21.9975 13.6984 22.2853 12.3016H22.4112C23.3565 12.3016 24.1254 11.4258 24.1254 10.349C24.1254 9.27551 23.3632 8.4019 22.4238 8.39405C22.4238 6.57185 22.4238 6.07641 22.4238 6.05174C22.4238 3.07897 20.3119 0.68573 17.7129 0.68573H16.9535C16.3052 0.68573 15.6752 0.833095 15.0846 1.12462C14.9098 1.21272 14.8223 1.44722 14.9018 1.65161C14.9763 1.84863 15.1901 1.94634 15.3645 1.85985C15.8665 1.61157 16.4009 1.48663 16.9535 1.48663H17.7129C19.9207 1.49143 21.7207 3.54173 21.7207 6.05639H12.9457V6.05174C12.9457 5.25885 13.1271 4.47718 13.4716 3.79161C13.5673 3.59939 13.5082 3.35432 13.3409 3.2454C13.1777 3.13808 12.9527 3.20856 12.8613 3.39436C12.4563 4.20007 12.2426 5.1179 12.2426 6.05174V8.39405C11.3032 8.4019 10.541 9.27487 10.541 10.3476C10.541 11.4251 11.3099 12.3018 12.2552 12.3018H12.3838C12.6889 13.7738 13.4753 15.049 14.6388 15.8794V16.4506C14.6388 16.968 14.3583 17.4205 13.9568 17.6071C13.9568 17.6071 12.2513 18.3969 9.09089 19.8812C8.08471 20.3529 7.42518 21.4581 7.4107 22.697C7.31943 30.6262 7.34446 28.4916 7.31226 31.1647L7.22507 32.1802C7.20454 32.4051 7.35079 32.5962 7.54007 32.6191C7.78884 32.6191 7.90893 32.4437 7.92398 32.2587L8.01398 31.2255L8.03437 29.5819H9.9816L10.5104 34.2398L9.36777 39.7591C9.3232 39.9744 9.44034 40.19 9.6292 40.2408C9.81567 40.2914 10.0071 40.1604 10.0521 39.943L11.2094 34.3527C11.2191 34.3058 11.2214 34.2573 11.2159 34.2095C10.7169 29.8132 10.5137 28.0308 10.5137 28.0308C10.4552 27.5206 10.4302 26.9473 10.445 26.4572L10.5196 23.7466C10.5257 23.5256 10.3734 23.3407 10.1793 23.3338C9.98878 23.3247 9.82298 23.5004 9.81693 23.7215L9.74226 26.4309C9.72637 26.9617 9.75337 27.5827 9.81651 28.1338L9.88978 28.781H8.04421L8.1141 22.7075C8.12479 21.7899 8.61346 20.9713 9.35906 20.6218C11.4475 19.641 10.7844 19.9513 12.8601 18.9826L17.1452 23.6507C17.2817 23.7996 17.4941 23.8007 17.6318 23.6507L18.7286 22.4557C18.8756 22.2952 18.8671 22.0415 18.7399 21.8903C18.6091 21.7349 18.3785 21.7301 18.2421 21.8775L17.3885 22.8081L13.5733 18.6515C13.8011 18.5473 13.8011 18.5473 14.0992 18.4064C14.9866 17.993 15.3424 17.284 15.3424 16.3016C15.9807 16.6095 16.679 16.7585 17.3295 16.7585C18.0358 16.7585 18.7691 16.5887 19.4346 16.244C19.4346 16.4719 19.4271 16.6595 19.4838 16.9263C19.6188 17.5702 20.0182 18.102 20.5553 18.3487C20.8906 18.5059 20.6521 18.3981 21.2036 18.6515L20.2755 19.6638C20.1349 19.816 20.1307 20.0707 20.2643 20.2292C20.3936 20.3846 20.6257 20.3894 20.7607 20.242L21.9169 18.9824C24.4311 20.1546 23.7169 19.8198 25.4179 20.6218C26.1632 20.9713 26.6519 21.7899 26.6627 22.7075L26.682 24.3937H25.3913L25.3314 23.3364C25.3189 23.1158 25.1501 22.9468 24.9579 22.9627C24.7641 22.9769 24.6173 23.1674 24.6298 23.3881L24.6868 24.3939H20.5285C19.9469 24.3939 19.4738 24.9327 19.4738 25.5952V39.1192C19.4738 39.7817 19.9469 40.3205 20.5285 40.3205H29.2627C29.8443 40.3205 30.3174 39.7817 30.3174 39.1192V25.5952C30.3173 24.9326 29.8442 24.3936 29.2626 24.3936ZM22.4241 10.9609V9.1943C22.9758 9.20199 23.4226 9.71713 23.4226 10.349C23.4226 10.967 22.9872 11.5007 22.403 11.5007C22.4191 11.2967 22.4241 11.1097 22.4241 10.9609ZM11.2444 10.3474C11.2444 9.71633 11.6912 9.20199 12.2429 9.19414V10.9609C12.2429 11.1405 12.2523 11.3527 12.2644 11.5007C11.6823 11.5007 11.2444 10.9694 11.2444 10.3474ZM21.721 10.9609C21.721 11.8458 21.521 12.6955 21.1375 13.4524V11.5119L21.721 10.3265V10.9609ZM21.721 6.85744V7.39581C19.7213 7.6899 17.2802 7.29185 15.4415 6.85744H21.721ZM13.6393 13.6571C13.1865 12.853 12.946 11.9134 12.946 10.9611V10.2238L13.6393 11.5217V13.6571ZM12.946 8.68301V6.9928C15.5225 7.82669 19.0459 8.56944 21.721 8.20199V8.69006L20.5802 11.0077H17.6849V9.43842C17.6849 9.21721 17.5275 9.03797 17.3333 9.03797C17.1391 9.03797 16.9818 9.21721 16.9818 9.43842V11.0077H14.1891L12.946 8.68301ZM17.313 15.9566C16.2141 15.952 15.1732 15.4975 14.3424 14.6138V11.8084H20.4343V14.4914C19.5932 15.4474 18.4876 15.9616 17.313 15.9566ZM23.4113 25.1951H26.3799V25.9627H23.4113V25.1951ZM23.4113 26.7634H26.3799V27.2039C26.3799 27.3364 26.2853 27.4442 26.169 27.4442H23.6222C23.5059 27.4442 23.4113 27.3364 23.4113 27.2039V26.7634ZM23.6222 28.2451H26.169C26.673 28.2451 27.083 27.778 27.083 27.2039V26.7634H27.9704V37.4354H21.821V26.7634H22.7082V27.2039C22.7082 27.778 23.1182 28.2451 23.6222 28.2451ZM29.6141 39.1189C29.6141 39.3396 29.4564 39.5193 29.2626 39.5193H20.5283C20.3346 39.5193 20.1768 39.3396 20.1768 39.1189V25.5949C20.1768 25.3742 20.3346 25.1945 20.5283 25.1945H22.708V25.9625H21.4693C21.2751 25.9625 21.1177 26.1418 21.1177 26.363V37.8358C21.1177 38.057 21.2751 38.2363 21.4693 38.2363H28.3218C28.516 38.2363 28.6734 38.057 28.6734 37.8358V26.363C28.6734 26.1418 28.516 25.9625 28.3218 25.9625H27.0829V25.1945H29.2626C29.4564 25.1945 29.6141 25.3742 29.6141 25.5949V39.1189Z" fill="black"/>
<path d="M19.7452 21.3489C19.8844 21.1967 19.89 20.942 19.755 20.7834C19.6257 20.6281 19.3936 20.6216 19.2586 20.7706C19.118 20.9228 19.1138 21.1775 19.2474 21.336C19.381 21.4945 19.6019 21.5052 19.7452 21.3489Z" fill="black"/>
<path d="M22.5263 31.749C22.5263 31.9702 22.6837 32.1494 22.8779 32.1494H23.7284C23.8327 32.1494 23.9316 32.0967 23.9984 32.0056L24.5883 31.1999L24.7416 33.3389C24.7673 33.6985 25.1622 33.8356 25.362 33.5629L26.3972 32.1494H27.083C27.2772 32.1494 27.4346 31.9702 27.4346 31.749C27.4346 31.5278 27.2772 31.3485 27.083 31.3485H26.2326C26.1283 31.3485 26.0294 31.4012 25.9626 31.4924L25.3726 32.2981L25.2193 30.1591C25.1937 29.8022 24.8001 29.6607 24.5988 29.9351L23.5638 31.3485H22.878C22.6837 31.3485 22.5263 31.5278 22.5263 31.749Z" fill="black"/>
<path d="M45.5801 30.126C44.7041 30.126 43.9121 29.976 43.2041 29.676C42.5081 29.376 41.9561 28.944 41.5481 28.38C41.1401 27.816 40.9301 27.15 40.9181 26.382H43.6181C43.6541 26.898 43.8341 27.306 44.1581 27.606C44.4941 27.906 44.9501 28.056 45.5261 28.056C46.1141 28.056 46.5761 27.918 46.9121 27.642C47.2481 27.354 47.4161 26.982 47.4161 26.526C47.4161 26.154 47.3021 25.848 47.0741 25.608C46.8461 25.368 46.5581 25.182 46.2101 25.05C45.8741 24.906 45.4061 24.75 44.8061 24.582C43.9901 24.342 43.3241 24.108 42.8081 23.88C42.3041 23.64 41.8661 23.286 41.4941 22.818C41.1341 22.338 40.9541 21.702 40.9541 20.91C40.9541 20.166 41.1401 19.518 41.5121 18.966C41.8841 18.414 42.4061 17.994 43.0781 17.706C43.7501 17.406 44.5181 17.256 45.3821 17.256C46.6781 17.256 47.7281 17.574 48.5321 18.21C49.3481 18.834 49.7981 19.71 49.8821 20.838H47.1101C47.0861 20.406 46.9001 20.052 46.5521 19.776C46.2161 19.488 45.7661 19.344 45.2021 19.344C44.7101 19.344 44.3141 19.47 44.0141 19.722C43.7261 19.974 43.5821 20.34 43.5821 20.82C43.5821 21.156 43.6901 21.438 43.9061 21.666C44.1341 21.882 44.4101 22.062 44.7341 22.206C45.0701 22.338 45.5381 22.494 46.1381 22.674C46.9541 22.914 47.6201 23.154 48.1361 23.394C48.6521 23.634 49.0961 23.994 49.4681 24.474C49.8401 24.954 50.0261 25.584 50.0261 26.364C50.0261 27.036 49.8521 27.66 49.5041 28.236C49.1561 28.812 48.6461 29.274 47.9741 29.622C47.3021 29.958 46.5041 30.126 45.5801 30.126ZM53.4888 18.84C53.0448 18.84 52.6728 18.702 52.3728 18.426C52.0848 18.138 51.9408 17.784 51.9408 17.364C51.9408 16.944 52.0848 16.596 52.3728 16.32C52.6728 16.032 53.0448 15.888 53.4888 15.888C53.9328 15.888 54.2988 16.032 54.5868 16.32C54.8868 16.596 55.0368 16.944 55.0368 17.364C55.0368 17.784 54.8868 18.138 54.5868 18.426C54.2988 18.702 53.9328 18.84 53.4888 18.84ZM54.7308 20.028V30H52.2108V20.028H54.7308ZM61.6126 17.436C62.9326 17.436 64.0906 17.694 65.0866 18.21C66.0946 18.726 66.8686 19.464 67.4086 20.424C67.9606 21.372 68.2366 22.476 68.2366 23.736C68.2366 24.996 67.9606 26.1 67.4086 27.048C66.8686 27.984 66.0946 28.71 65.0866 29.226C64.0906 29.742 62.9326 30 61.6126 30H57.2206V17.436H61.6126ZM61.5226 27.858C62.8426 27.858 63.8626 27.498 64.5826 26.778C65.3026 26.058 65.6626 25.044 65.6626 23.736C65.6626 22.428 65.3026 21.408 64.5826 20.676C63.8626 19.932 62.8426 19.56 61.5226 19.56H59.7406V27.858H61.5226ZM79.3929 24.798C79.3929 25.158 79.3689 25.482 79.3209 25.77H72.0309C72.0909 26.49 72.3429 27.054 72.7869 27.462C73.2309 27.87 73.7769 28.074 74.4249 28.074C75.3609 28.074 76.0269 27.672 76.4229 26.868H79.1409C78.8529 27.828 78.3009 28.62 77.4849 29.244C76.6689 29.856 75.6669 30.162 74.4789 30.162C73.5189 30.162 72.6549 29.952 71.8869 29.532C71.1309 29.1 70.5369 28.494 70.1049 27.714C69.6849 26.934 69.4749 26.034 69.4749 25.014C69.4749 23.982 69.6849 23.076 70.1049 22.296C70.5249 21.516 71.1129 20.916 71.8689 20.496C72.6249 20.076 73.4949 19.866 74.4789 19.866C75.4269 19.866 76.2729 20.07 77.0169 20.478C77.7729 20.886 78.3549 21.468 78.7629 22.224C79.1829 22.968 79.3929 23.826 79.3929 24.798ZM76.7829 24.078C76.7709 23.43 76.5369 22.914 76.0809 22.53C75.6249 22.134 75.0669 21.936 74.4069 21.936C73.7829 21.936 73.2549 22.128 72.8229 22.512C72.4029 22.884 72.1449 23.406 72.0489 24.078H76.7829ZM83.7523 21.468C84.0763 21.012 84.5203 20.634 85.0843 20.334C85.6603 20.022 86.3143 19.866 87.0463 19.866C87.8983 19.866 88.6663 20.076 89.3503 20.496C90.0463 20.916 90.5923 21.516 90.9883 22.296C91.3963 23.064 91.6003 23.958 91.6003 24.978C91.6003 25.998 91.3963 26.904 90.9883 27.696C90.5923 28.476 90.0463 29.082 89.3503 29.514C88.6663 29.946 87.8983 30.162 87.0463 30.162C86.3143 30.162 85.6663 30.012 85.1023 29.712C84.5503 29.412 84.1003 29.034 83.7523 28.578V34.752H81.2323V20.028H83.7523V21.468ZM89.0263 24.978C89.0263 24.378 88.9003 23.862 88.6483 23.43C88.4083 22.986 88.0843 22.65 87.6763 22.422C87.2803 22.194 86.8483 22.08 86.3803 22.08C85.9243 22.08 85.4923 22.2 85.0843 22.44C84.6883 22.668 84.3643 23.004 84.1123 23.448C83.8723 23.892 83.7523 24.414 83.7523 25.014C83.7523 25.614 83.8723 26.136 84.1123 26.58C84.3643 27.024 84.6883 27.366 85.0843 27.606C85.4923 27.834 85.9243 27.948 86.3803 27.948C86.8483 27.948 87.2803 27.828 87.6763 27.588C88.0843 27.348 88.4083 27.006 88.6483 26.562C88.9003 26.118 89.0263 25.59 89.0263 24.978ZM95.9515 21.576C96.2755 21.048 96.6955 20.634 97.2115 20.334C97.7395 20.034 98.3395 19.884 99.0115 19.884V22.53H98.3455C97.5535 22.53 96.9535 22.716 96.5455 23.088C96.1495 23.46 95.9515 24.108 95.9515 25.032V30H93.4315V20.028H95.9515V21.576ZM109.979 24.798C109.979 25.158 109.955 25.482 109.907 25.77H102.617C102.677 26.49 102.929 27.054 103.373 27.462C103.817 27.87 104.363 28.074 105.011 28.074C105.947 28.074 106.613 27.672 107.009 26.868H109.727C109.439 27.828 108.887 28.62 108.071 29.244C107.255 29.856 106.253 30.162 105.065 30.162C104.105 30.162 103.241 29.952 102.473 29.532C101.717 29.1 101.123 28.494 100.691 27.714C100.271 26.934 100.061 26.034 100.061 25.014C100.061 23.982 100.271 23.076 100.691 22.296C101.111 21.516 101.699 20.916 102.455 20.496C103.211 20.076 104.081 19.866 105.065 19.866C106.013 19.866 106.859 20.07 107.603 20.478C108.359 20.886 108.941 21.468 109.349 22.224C109.769 22.968 109.979 23.826 109.979 24.798ZM107.369 24.078C107.357 23.43 107.123 22.914 106.667 22.53C106.211 22.134 105.653 21.936 104.993 21.936C104.369 21.936 103.841 22.128 103.409 22.512C102.989 22.884 102.731 23.406 102.635 24.078H107.369ZM115.634 30.162C114.818 30.162 114.086 30.018 113.438 29.73C112.79 29.43 112.274 29.028 111.89 28.524C111.518 28.02 111.314 27.462 111.278 26.85H113.816C113.864 27.234 114.05 27.552 114.374 27.804C114.71 28.056 115.124 28.182 115.616 28.182C116.096 28.182 116.468 28.086 116.732 27.894C117.008 27.702 117.146 27.456 117.146 27.156C117.146 26.832 116.978 26.592 116.642 26.436C116.318 26.268 115.796 26.088 115.076 25.896C114.332 25.716 113.72 25.53 113.24 25.338C112.772 25.146 112.364 24.852 112.016 24.456C111.68 24.06 111.512 23.526 111.512 22.854C111.512 22.302 111.668 21.798 111.98 21.342C112.304 20.886 112.76 20.526 113.348 20.262C113.948 19.998 114.65 19.866 115.454 19.866C116.642 19.866 117.59 20.166 118.298 20.766C119.006 21.354 119.396 22.152 119.468 23.16H117.056C117.02 22.764 116.852 22.452 116.552 22.224C116.264 21.984 115.874 21.864 115.382 21.864C114.926 21.864 114.572 21.948 114.32 22.116C114.08 22.284 113.96 22.518 113.96 22.818C113.96 23.154 114.128 23.412 114.464 23.592C114.8 23.76 115.322 23.934 116.03 24.114C116.75 24.294 117.344 24.48 117.812 24.672C118.28 24.864 118.682 25.164 119.018 25.572C119.366 25.968 119.546 26.496 119.558 27.156C119.558 27.732 119.396 28.248 119.072 28.704C118.76 29.16 118.304 29.52 117.704 29.784C117.116 30.036 116.426 30.162 115.634 30.162ZM122.905 18.84C122.461 18.84 122.089 18.702 121.789 18.426C121.501 18.138 121.357 17.784 121.357 17.364C121.357 16.944 121.501 16.596 121.789 16.32C122.089 16.032 122.461 15.888 122.905 15.888C123.349 15.888 123.715 16.032 124.003 16.32C124.303 16.596 124.453 16.944 124.453 17.364C124.453 17.784 124.303 18.138 124.003 18.426C123.715 18.702 123.349 18.84 122.905 18.84ZM124.147 20.028V30H121.627V20.028H124.147Z" fill="#276749"/>
</svg>
