<svg width="100" height="100" viewBox="0 0 100 100" fill="none" xmlns="http://www.w3.org/2000/svg">
<g clip-path="url(#clip0)">
<path fill-rule="evenodd" clip-rule="evenodd" d="M50.0083 -0.00494385C77.6194 -0.00494385 100.002 22.3774 100.002 49.9877C100.002 77.5972 77.6194 99.9803 50.0083 99.9803C22.398 99.9803 0.0156403 77.5972 0.0156403 49.9877C0.0156403 22.3774 22.398 -0.00494385 50.0083 -0.00494385Z" fill="#E30016"/>
<path fill-rule="evenodd" clip-rule="evenodd" d="M50.0069 12.4498C70.7355 12.4498 87.5459 29.2595 87.5459 49.9881C87.5459 70.7167 70.7355 87.5264 50.0069 87.5264C29.2783 87.5264 12.4686 70.7167 12.4686 49.9881C12.4686 29.2595 29.2783 12.4498 50.0069 12.4498ZM50.0069 13.3717C70.2269 13.3717 86.6241 29.7681 86.6241 49.9881C86.6241 70.2074 70.2269 86.6053 50.0069 86.6053C29.7876 86.6053 13.3904 70.2074 13.3904 49.9881C13.3904 29.7681 29.7876 13.3717 50.0069 13.3717Z" fill="#1B1918" stroke="#1B1918" stroke-width="0.5"/>
<path fill-rule="evenodd" clip-rule="evenodd" d="M50.0069 13.3717C70.2299 13.3717 86.6241 29.7652 86.6241 49.9882C86.6241 70.2112 70.2299 86.6054 50.0069 86.6054C29.7839 86.6054 13.3904 70.2112 13.3904 49.9882C13.3904 29.7652 29.7839 13.3717 50.0069 13.3717Z" fill="#FFCB00" stroke="#1B1918" stroke-width="0.5"/>
<path fill-rule="evenodd" clip-rule="evenodd" d="M82.344 40.2546L50.0575 16.9966L17.7717 40.2546L30.075 77.6871H70.0407L82.344 40.2546Z" fill="#009035"/>
<path fill-rule="evenodd" clip-rule="evenodd" d="M50.0575 18.5737L19.4486 40.6232L31.113 76.1108H69.0028L80.6664 40.6232L50.0575 18.5737ZM21.1262 40.991L50.0575 20.1493L78.9895 40.991L67.964 74.5345H32.151L21.1262 40.991Z" fill="white"/>
<path fill-rule="evenodd" clip-rule="evenodd" d="M33.7631 43.0075H60.1872C60.1872 43.0075 63.5038 40.5026 66.0086 40.3373C68.512 40.172 70.5359 42.0156 70.6327 43.764C70.728 45.5116 69.731 48.4491 67.2886 50.8512C64.1434 53.9444 60.9319 53.823 63.6274 52.0069C64.9766 51.0992 68.5545 48.7321 69.1598 46.4476C69.7652 44.1631 69.6826 43.5853 69.2701 42.9107C68.8575 42.2368 67.2469 41.0387 65.1963 41.5488C63.1456 42.0573 60.1872 44.2182 60.1872 44.2182H33.7631V43.0075ZM38.4951 68.4942H61.9453V69.5403H38.4951V68.4942ZM44.0455 66.6229H56.3949L55.7702 64.5306H44.6523L44.0455 66.6229ZM55.4738 63.5395L54.8491 61.4479H45.5481L44.9405 63.5395H55.4738ZM54.5527 60.4575L53.928 58.3659H46.4431L45.8355 60.4575H54.5527ZM53.6622 57.4768L53.0374 55.3852H47.3084L46.7008 57.4768H53.6622ZM52.7776 54.517L52.1528 52.4254H48.1677L47.5593 54.517H52.7776ZM59.0584 45.216H42.0767V45.2302C44.624 46.8802 46.0224 49.8296 50.5661 49.8058C55.1097 49.7812 56.9884 46.6911 59.0584 45.2302C61.1292 43.77 59.0584 45.2212 59.0584 45.216ZM50.5743 39.6567C52.0903 39.6567 52.5907 40.7282 52.5907 42.1951V42.2092H48.5444V42.1951C48.5318 40.729 49.0582 39.6567 50.5743 39.6567Z" fill="white"/>
<path fill-rule="evenodd" clip-rule="evenodd" d="M32.7459 41.2316C32.7459 41.2316 33.9016 41.4244 34.1763 41.7684C34.4526 42.1124 35.1816 42.5116 36.3104 42.2368C37.4385 41.9613 37.7967 41.4795 38.1131 41.1497C38.4296 40.819 38.6775 40.4341 38.6775 40.4341H37.5755C37.5755 40.4341 37.6105 38.7125 37.6031 38.1727C37.5964 37.6336 37.4169 37.2948 37.4169 37.2948C37.4169 37.2948 37.026 37.9426 36.5718 37.3923C36.1176 36.8421 35.9939 36.291 35.3327 35.7274C34.6723 35.1629 34.0393 35.0669 34.0393 35.0669C34.0393 35.0669 34.2985 37.1012 34.2367 37.2464C34.1749 37.3916 33.5479 37.0528 33.5479 37.0528C33.5479 37.0528 33.4451 37.9515 33.4794 38.2494C33.5136 38.5465 33.603 38.9471 33.603 38.9471C33.603 38.9471 32.5226 38.7334 32.4325 38.5323C32.3431 38.332 32.5255 39.5808 32.7735 39.9657C33.0207 40.3514 33.5025 40.6128 33.5025 40.6128C33.5025 40.6128 32.842 40.9151 32.7459 41.2316Z" fill="#E30016"/>
<path fill-rule="evenodd" clip-rule="evenodd" d="M17.4538 74.8018L12.6949 78.1339L11.7344 76.7616C11.3703 76.2419 11.1573 75.8852 11.094 75.6946C10.9957 75.4019 11.0076 75.0885 11.132 74.7579C11.2571 74.4265 11.508 74.1287 11.8863 73.8636C12.1789 73.6588 12.4581 73.5345 12.7225 73.4898C12.9883 73.4444 13.2281 73.4548 13.444 73.5211C13.6592 73.5873 13.8379 73.6819 13.9794 73.8062C14.1678 73.979 14.3979 74.2582 14.6697 74.6462L15.0598 75.2031L16.8536 73.947L17.4538 74.8018ZM12.9019 76.7147L14.2512 75.7698L13.9228 75.3022C13.6875 74.9649 13.5051 74.7564 13.3748 74.6774C13.2467 74.5993 13.1067 74.5643 12.9548 74.5739C12.8029 74.5844 12.6577 74.638 12.517 74.7363C12.3442 74.8576 12.2325 75.0028 12.1834 75.1726C12.1342 75.3409 12.1447 75.5062 12.2132 75.6633C12.2631 75.7817 12.3971 75.9939 12.6123 76.3014L12.9019 76.7147ZM14.4224 70.2194L9.24662 72.8561L7.50646 69.4413L8.38212 68.9945L9.64871 71.4801L10.7962 70.8948L9.61744 68.5828L10.4886 68.1382L11.6674 70.4517L13.0762 69.7339L11.7649 67.1605L12.6361 66.716L14.4224 70.2194ZM12.0546 65.398L6.52952 67.1933L5.85043 65.1024C5.67917 64.5767 5.60545 64.1791 5.62779 63.9081C5.64939 63.6378 5.76331 63.3891 5.97032 63.1642C6.17806 62.9378 6.44464 62.7733 6.77152 62.6661C7.18553 62.5328 7.56454 62.5298 7.90483 62.6579C8.24363 62.7874 8.52062 63.057 8.72986 63.4665C8.80134 63.2052 8.89889 62.9773 9.02175 62.783C9.14461 62.5886 9.38214 62.3034 9.73509 61.9266L10.6175 60.9758L11.0032 62.1627L10.0337 63.2722C9.68743 63.6668 9.47373 63.9289 9.39257 64.0592C9.31066 64.1888 9.26747 64.3131 9.25928 64.4323C9.25258 64.5514 9.28534 64.7234 9.3598 64.9528L9.42533 65.1538L11.7307 64.404L12.0546 65.398ZM8.54296 65.4405L8.30394 64.7063C8.1498 64.2297 8.03067 63.9393 7.94727 63.8336C7.86387 63.7316 7.75516 63.6638 7.62262 63.6326C7.48933 63.602 7.3419 63.6125 7.17585 63.6661C6.98895 63.7271 6.85417 63.8202 6.76854 63.9446C6.68291 64.0704 6.65164 64.2193 6.67323 64.3898C6.68738 64.474 6.75961 64.7182 6.89066 65.1203L7.14234 65.8954L8.54296 65.4405ZM8.41042 60.4538L8.12374 59.4724C8.49084 59.3458 8.74699 59.1753 8.89219 58.9594C9.03515 58.7442 9.08057 58.4806 9.02547 58.1678C8.96665 57.8365 8.84453 57.6004 8.65689 57.4612C8.46999 57.3205 8.27118 57.2683 8.06045 57.3048C7.92493 57.3287 7.81622 57.3845 7.73431 57.4731C7.65091 57.5602 7.58985 57.698 7.55188 57.8871C7.52507 58.0152 7.49008 58.3048 7.44689 58.7538C7.39104 59.3324 7.26967 59.7524 7.08426 60.013C6.82588 60.3823 6.46995 60.6064 6.01723 60.6861C5.72534 60.7375 5.44015 60.7122 5.16017 60.6087C4.88169 60.5074 4.65086 60.3295 4.46917 60.0763C4.28823 59.8224 4.16314 59.5007 4.09389 59.109C3.9807 58.4687 4.05368 57.9608 4.31057 57.5818C4.5697 57.2036 4.95913 56.9601 5.48259 56.8506L5.71417 57.87C5.42749 57.9653 5.2324 58.0978 5.13039 58.2654C5.02689 58.4329 5.00083 58.6608 5.05221 58.9504C5.10433 59.249 5.21379 59.4717 5.38207 59.6161C5.48855 59.7092 5.61737 59.7427 5.76555 59.7166C5.90107 59.6928 6.00829 59.6213 6.08499 59.5029C6.18551 59.3518 6.25774 59.0137 6.30167 58.4903C6.3456 57.966 6.41783 57.5721 6.51761 57.3078C6.61739 57.0427 6.77748 56.8216 7.00012 56.6421C7.22276 56.4627 7.5139 56.342 7.87504 56.2787C8.20267 56.2207 8.52509 56.2467 8.83857 56.3592C9.15355 56.4709 9.40746 56.6615 9.59808 56.9347C9.79019 57.2065 9.92422 57.5639 10.0024 58.0063C10.1163 58.6503 10.0367 59.1738 9.76338 59.5781C9.49011 59.9817 9.03813 60.2743 8.41042 60.4538ZM9.02845 49.8497L9.10812 50.9838L7.82292 51.5266L7.96588 53.5877L9.31364 53.9213L9.39033 55.027L3.45575 53.4224L3.37831 52.3211L9.02845 49.8497ZM6.86981 51.928L4.77 52.7902L6.96884 53.336L6.86981 51.928ZM9.12451 47.9882L4.31727 47.5675L4.18324 49.0954L3.20407 49.0098L3.56223 44.9159L4.5414 45.0015L4.40737 46.5265L9.21535 46.9472L9.12451 47.9882ZM3.77594 43.1035L3.97475 42.0782L7.06192 42.6791C7.55262 42.7737 7.8743 42.8228 8.02322 42.8258C8.26596 42.828 8.47371 42.7588 8.64572 42.6225C8.81996 42.484 8.93463 42.2725 8.99047 41.9859C9.04632 41.6955 9.02324 41.4624 8.9175 41.2889C8.81326 41.1154 8.66582 40.9948 8.47818 40.927C8.28905 40.8585 7.96886 40.7818 7.51763 40.6939L4.36344 40.0811L4.56225 39.0565L7.55784 39.6381C8.24288 39.7714 8.72018 39.8927 8.99196 40.0029C9.26449 40.1139 9.48267 40.2613 9.64871 40.4482C9.81327 40.6351 9.93018 40.8652 9.99719 41.1355C10.0635 41.4073 10.0583 41.7446 9.98007 42.1467C9.8855 42.6314 9.75147 42.9866 9.57723 43.213C9.40225 43.4386 9.20046 43.6039 8.97186 43.7111C8.74326 43.8176 8.51318 43.872 8.28383 43.8742C7.94355 43.8794 7.45582 43.8184 6.81769 43.6947L3.77594 43.1035ZM12.2742 34.0527L11.9042 35.1272L10.5095 35.1242L9.83636 37.0796L10.9451 37.9121L10.5847 38.9597L5.74842 35.1637L6.10733 34.1197L12.2742 34.0527ZM9.47596 35.1227L7.20414 35.0944L9.01579 36.4571L9.47596 35.1227ZM12.7649 32.9686L7.63602 30.241L8.11332 29.3438L12.5319 29.2961L9.10663 27.4748L9.56234 26.6177L14.6912 29.3453L14.1991 30.2708L9.87582 30.3319L13.2206 32.1108L12.7649 32.9686ZM16.6354 26.2164L12.1216 22.5603L13.1752 21.2588C13.5751 20.7658 13.8588 20.4628 14.0248 20.3496C14.2787 20.1731 14.5818 20.0994 14.9355 20.1277C15.2884 20.156 15.6444 20.3161 16.0025 20.6057C16.2803 20.8306 16.4776 21.0644 16.5922 21.3072C16.7092 21.5499 16.7657 21.783 16.762 22.0093C16.7576 22.2335 16.7151 22.4323 16.6347 22.602C16.52 22.8306 16.316 23.1292 16.0182 23.4971L15.59 24.0257L17.2929 25.4048L16.6354 26.2164ZM13.5416 22.3682L14.8223 23.4047L15.1819 22.9609C15.4411 22.6408 15.5907 22.4077 15.6302 22.2617C15.6712 22.1158 15.6659 21.9721 15.6146 21.8291C15.5632 21.6862 15.4716 21.5611 15.3383 21.4524C15.1738 21.3198 15.0032 21.2535 14.8268 21.2528C14.6518 21.252 14.4947 21.3072 14.3636 21.4166C14.2631 21.497 14.0963 21.6839 13.8603 21.9758L13.5416 22.3682ZM20.0979 21.9654L16.1358 17.7166L18.94 15.1023L19.6094 15.8208L17.5692 17.7241L18.4478 18.666L20.3466 16.8953L21.0138 17.6101L19.115 19.3808L20.1932 20.5372L22.3057 18.567L22.9736 19.2833L20.0979 21.9654ZM24.06 18.2885L20.7278 13.5296L22.5291 12.269C22.9818 11.9518 23.3407 11.7649 23.6043 11.7068C23.8701 11.648 24.1412 11.6845 24.4174 11.8163C24.6944 11.9496 24.9297 12.1558 25.127 12.4373C25.3757 12.794 25.4904 13.1558 25.4666 13.5177C25.4427 13.8811 25.2648 14.2244 24.9357 14.5446C25.206 14.5364 25.4524 14.5624 25.6743 14.6235C25.8962 14.6845 26.238 14.8283 26.7011 15.0554L27.8687 15.6205L26.8463 16.3368L25.5023 15.7337C25.0235 15.5185 24.7108 15.3904 24.5619 15.351C24.4137 15.3108 24.2826 15.3048 24.1657 15.3324C24.0496 15.3599 23.8947 15.4433 23.6974 15.5811L23.5254 15.7017L24.9163 17.6876L24.06 18.2885ZM22.993 14.9422L23.6251 14.4991C24.0354 14.2125 24.2789 14.0136 24.3541 13.9034C24.4286 13.7932 24.4613 13.6696 24.4524 13.5334C24.4435 13.3986 24.3899 13.2594 24.2893 13.1164C24.1762 12.9555 24.0488 12.8543 23.9036 12.8089C23.7584 12.7627 23.608 12.7761 23.4502 12.8468C23.3742 12.8856 23.162 13.0248 22.815 13.269L22.1478 13.7359L22.993 14.9422ZM32.912 12.6674L31.9179 13.2184L30.8829 12.2824L29.075 13.2847L29.3415 14.6451L28.3728 15.1827L27.3184 9.12525L28.2842 8.59061L32.912 12.6674ZM30.1159 11.5899L28.4473 10.0493L28.8814 12.2735L30.1159 11.5899ZM34.3521 12.1156L31.3825 6.97257L32.3989 6.6427L34.3737 10.196L34.0393 6.10956L35.2203 5.72608L37.3365 9.3047L36.8368 5.20038L37.8369 4.87573L38.4378 10.7887L37.3841 11.1305L35.0632 7.31881L35.428 11.7664L34.3521 12.1156ZM44.936 9.33151L43.8169 9.52957L43.143 8.30692L41.1065 8.66657L40.9158 10.0404L39.825 10.2332L40.8004 4.16239L41.8876 3.97028L44.936 9.33151ZM42.6426 7.40295L41.5666 5.40366L41.2532 7.64793L42.6426 7.40295ZM46.732 9.22279L46.3955 4.40886L44.8653 4.51534L44.7968 3.53393L48.8959 3.248L48.9651 4.22866L47.4379 4.33588L47.7737 9.14908L46.732 9.22279ZM52.6108 9.08132L53.3196 3.31576L54.3279 3.43862L55.9563 7.54741L56.4292 3.697L57.3919 3.8154L56.6846 9.58095L55.6436 9.45362L54.036 5.4394L53.5743 9.19896L52.6108 9.08132ZM62.85 11.0895L61.7517 10.7954L61.6571 9.40299L59.6608 8.86836L58.9072 10.0329L57.8372 9.74626L61.2863 4.65681L62.3526 4.942L62.85 11.0895ZM61.5871 8.37095L61.4568 6.10509L60.2237 8.00684L61.5871 8.37095ZM64.3712 9.6986L65.3601 9.95847C65.2789 10.3382 65.2938 10.6458 65.4047 10.8803C65.5149 11.1141 65.7175 11.2891 66.0138 11.403C66.3273 11.5237 66.5931 11.54 66.8098 11.4507C67.0265 11.3628 67.1732 11.2191 67.2492 11.0195C67.299 10.8907 67.3072 10.7694 67.273 10.6539C67.2425 10.537 67.1561 10.4142 67.0131 10.2846C66.9171 10.1953 66.6862 10.0166 66.3243 9.74775C65.8575 9.4015 65.5596 9.08132 65.4301 8.78868C65.2476 8.37691 65.2394 7.9562 65.4047 7.5273C65.5097 7.25031 65.6795 7.01948 65.9111 6.83183C66.1427 6.64568 66.4144 6.53994 66.7249 6.51388C67.0347 6.49006 67.3757 6.54814 67.7466 6.69036C68.3542 6.92342 68.7518 7.24733 68.9446 7.66282C69.1353 8.07981 69.1435 8.53924 68.9677 9.04409L67.9744 8.71794C68.0399 8.42308 68.0273 8.18778 67.9364 8.01354C67.8463 7.83855 67.6639 7.69931 67.3899 7.59357C67.1062 7.48486 66.859 7.46401 66.649 7.53401C66.5135 7.57645 66.4189 7.67027 66.3653 7.81026C66.3154 7.93908 66.3221 8.06715 66.3832 8.19522C66.4614 8.35829 66.7138 8.59434 67.1404 8.90186C67.5664 9.21013 67.8672 9.47447 68.0429 9.69562C68.2179 9.91826 68.3251 10.1692 68.3653 10.4529C68.4033 10.7351 68.3571 11.0471 68.2253 11.3889C68.1062 11.7009 67.9178 11.963 67.6602 12.1737C67.4018 12.3867 67.1077 12.5051 66.7763 12.5281C66.4442 12.5535 66.0682 12.4842 65.649 12.3234C65.0384 12.0881 64.6303 11.7515 64.4248 11.3085C64.2193 10.8662 64.2014 10.3293 64.3712 9.6986ZM68.8873 13.7031L71.5247 8.52732L72.4548 9.00164L69.8181 14.1767L68.8873 13.7031ZM72.7533 12.4455C73.0929 11.96 73.4421 11.5989 73.8018 11.3598C74.0676 11.1863 74.3513 11.0598 74.6529 10.9838C74.9529 10.9086 75.2366 10.8937 75.5002 10.9391C75.8524 10.998 76.2002 11.1491 76.5449 11.3904C77.1689 11.8275 77.5167 12.3941 77.5866 13.0918C77.6574 13.7888 77.4213 14.5252 76.8785 15.2996C76.3402 16.0673 75.7333 16.5379 75.0579 16.7121C74.3826 16.8849 73.7333 16.7538 73.1108 16.319C72.4816 15.8767 72.1316 15.3108 72.0616 14.619C71.9924 13.9265 72.2232 13.202 72.7533 12.4455ZM73.6566 13.03C73.2798 13.5684 73.1048 14.0553 73.1309 14.488C73.1584 14.9213 73.3423 15.2572 73.6841 15.4954C74.0237 15.7337 74.4004 15.7925 74.813 15.6689C75.2247 15.5461 75.6231 15.2095 76.0096 14.6577C76.3908 14.1127 76.5695 13.6317 76.5457 13.2139C76.5204 12.7962 76.3312 12.4641 75.979 12.2176C75.6261 11.9704 75.2463 11.9079 74.8405 12.0278C74.4354 12.1491 74.04 12.482 73.6566 13.03ZM76.3186 18.6325L80.2799 14.383L81.023 15.077L79.9255 19.357L82.5704 16.52L83.2815 17.1827L79.3194 21.4308L78.5524 20.7152L79.612 16.5237L77.0282 19.2937L76.3186 18.6325ZM83.4326 26.276L82.7178 25.3929L83.4594 24.2111L82.1571 22.6035L80.8637 23.1039L80.1667 22.2431L85.9487 20.153L86.6441 21.0108L83.4326 26.276ZM84.0075 23.3347L85.2353 21.4248L83.1206 22.2387L84.0075 23.3347ZM84.0588 27.3333L88.8906 24.1948L89.4595 25.0704L85.4483 27.6751L86.8623 29.8524L86.041 30.3855L84.0588 27.3333ZM87.3277 33.3208L92.5929 30.8658L93.0337 31.8122L87.7693 34.2672L87.3277 33.3208ZM88.324 35.7326L93.8163 33.842L94.1476 34.8033L91.1692 38.0677L94.8364 36.8048L95.1529 37.7222L89.6606 39.6135L89.3188 38.6217L92.2221 35.4176L88.6405 36.6507L88.324 35.7326ZM95.6637 40.2308L96.0278 42.1043C96.1097 42.5257 96.1358 42.8541 96.1067 43.0909C96.0658 43.4081 95.9407 43.697 95.7292 43.9576C95.52 44.219 95.243 44.4409 94.9012 44.6225C94.5572 44.8035 94.1186 44.9464 93.5847 45.0507C93.1156 45.1415 92.7008 45.1683 92.3397 45.1304C91.9019 45.0842 91.5311 44.9688 91.2287 44.7826C90.9987 44.6426 90.8006 44.4327 90.633 44.1512C90.5087 43.9412 90.4097 43.6463 90.3359 43.2666L89.9614 41.3388L95.6637 40.2308ZM94.8967 41.443L91.1215 42.1772L91.2704 42.9419C91.3255 43.2279 91.3836 43.4312 91.4454 43.5518C91.5244 43.7074 91.6293 43.831 91.7619 43.9196C91.8944 44.0075 92.097 44.0604 92.365 44.0805C92.6331 44.0998 92.9898 44.0671 93.4306 43.9814C93.8714 43.8958 94.2012 43.7945 94.4246 43.6806C94.6473 43.5644 94.8126 43.4319 94.9198 43.2822C95.0285 43.1311 95.0866 42.9553 95.0955 42.7543C95.1052 42.6046 95.068 42.3209 94.9868 41.9025L94.8967 41.443ZM93.6562 46.8013C94.2482 46.7804 94.7463 46.8415 95.1543 46.9852C95.4529 47.0932 95.7247 47.2436 95.9667 47.4387C96.2072 47.6338 96.3904 47.8504 96.5118 48.0887C96.6763 48.4059 96.7664 48.7738 96.7806 49.1945C96.8074 49.9562 96.5639 50.575 96.0486 51.0508C95.5348 51.5266 94.8044 51.7805 93.8595 51.814C92.922 51.8468 92.1804 51.6443 91.6353 51.2094C91.091 50.7745 90.8051 50.1766 90.7782 49.4179C90.7507 48.6502 90.9942 48.0292 91.5042 47.5571C92.0151 47.085 92.7329 46.834 93.6562 46.8013ZM93.7329 47.875C93.0761 47.8974 92.5824 48.0507 92.2518 48.3322C91.9227 48.6152 91.7656 48.9636 91.7798 49.3806C91.7946 49.7954 91.9741 50.1312 92.3211 50.3866C92.6673 50.6405 93.1759 50.7567 93.8483 50.7336C94.514 50.7098 95.0054 50.5631 95.3249 50.2928C95.6428 50.021 95.7947 49.6703 95.7798 49.2406C95.7649 48.8095 95.5862 48.4692 95.2459 48.2168C94.9049 47.9666 94.4023 47.8512 93.7329 47.875ZM90.8043 53.368L96.5699 54.0754L96.4455 55.0844L92.3382 56.7129L96.1879 57.1857L96.0695 58.1485L90.3039 57.4411L90.432 56.3994L94.4462 54.7925L90.6859 54.3308L90.8043 53.368ZM89.9167 59.106L95.5274 60.6087L94.5348 64.3124L93.5854 64.0577L94.3077 61.363L93.0635 61.0301L92.3918 63.5373L91.4477 63.2841L92.1193 60.777L90.5921 60.3674L89.8445 63.1575L88.8988 62.9043L89.9167 59.106ZM90.2399 64.879L89.9294 65.853C89.5541 65.7525 89.2466 65.751 89.0061 65.8493C88.767 65.9476 88.5816 66.1404 88.4528 66.4308C88.3158 66.7376 88.2853 67.0019 88.3635 67.2231C88.4394 67.4442 88.5749 67.5976 88.7708 67.6848C88.8966 67.7406 89.0172 67.7555 89.1349 67.7279C89.2525 67.7034 89.3799 67.6222 89.5176 67.4874C89.6114 67.3958 89.8013 67.1747 90.0895 66.8277C90.4596 66.3794 90.7946 66.0987 91.0925 65.9855C91.5147 65.8247 91.9346 65.8381 92.3553 66.025C92.6256 66.1449 92.8475 66.3258 93.0225 66.5678C93.1968 66.8083 93.2883 67.0853 93.2973 67.3966C93.3055 67.7086 93.2288 68.0452 93.0679 68.4078C92.8036 69.002 92.4588 69.3825 92.0337 69.5523C91.6077 69.722 91.1483 69.7056 90.6539 69.5039L91.0314 68.5292C91.3226 68.6103 91.5579 68.6096 91.7358 68.5277C91.916 68.4472 92.0649 68.2723 92.1848 68.0035C92.3077 67.7272 92.3419 67.4807 92.2831 67.2678C92.2466 67.13 92.1588 67.0302 92.0218 66.9692C91.8959 66.9133 91.7671 66.9126 91.636 66.9677C91.4692 67.0369 91.2198 67.2767 90.8914 67.6855C90.5601 68.0958 90.2808 68.3825 90.0508 68.5463C89.8199 68.7093 89.5638 68.8032 89.2786 68.8285C88.9941 68.8516 88.6844 68.789 88.3493 68.6401C88.0455 68.5038 87.7938 68.3028 87.5965 68.0347C87.3977 67.7652 87.2949 67.4651 87.2882 67.133C87.2815 66.8002 87.3701 66.4286 87.5526 66.0176C87.8184 65.4211 88.1773 65.0309 88.63 64.8485C89.082 64.6668 89.6196 64.6758 90.2399 64.879ZM86.082 69.2537L91.1625 72.0698L90.6554 72.9834L85.5756 70.1673L86.082 69.2537ZM82.1355 75.3454L82.787 74.4146L84.1266 74.8018L85.3135 73.1078L84.4766 72.002L85.1117 71.0944L88.7149 76.0766L88.0813 76.9805L82.1355 75.3454ZM85.1199 75.0885L87.2957 75.7407L85.9301 73.9321L85.1199 75.0885Z" fill="white"/>
<path fill-rule="evenodd" clip-rule="evenodd" d="M32.5538 94.1022L35.3119 86.0916L37.9069 86.9852C38.8898 87.3232 39.5175 87.5853 39.7878 87.7685C40.2048 88.0455 40.5019 88.4394 40.6731 88.948C40.8436 89.458 40.8191 90.0321 40.6002 90.668C40.4311 91.1602 40.1988 91.5437 39.9047 91.8155C39.6091 92.0902 39.2941 92.2757 38.9516 92.3725C38.612 92.4685 38.2889 92.4983 37.9836 92.4626C37.5718 92.406 36.9985 92.2526 36.265 92.0001L35.2114 91.6375L34.1712 94.6592L32.5538 94.1022ZM36.4623 88.0038L35.6805 90.2756L36.5643 90.5802C37.2025 90.7998 37.6433 90.9063 37.8868 90.8959C38.1303 90.8855 38.3432 90.8132 38.5279 90.6762C38.7111 90.5392 38.8436 90.3531 38.9255 90.1155C39.0253 89.8251 39.0223 89.5556 38.9166 89.3054C38.8116 89.0589 38.6344 88.8646 38.3894 88.7283C38.2085 88.6233 37.8257 88.4736 37.2442 88.2733L36.4623 88.0038ZM43.2912 96.9742L44.0298 88.534L46.7633 88.773C47.7976 88.8638 48.4707 88.9658 48.7775 89.0783C49.2503 89.2458 49.6323 89.5571 49.922 90.0098C50.2109 90.4625 50.3263 91.0254 50.2675 91.6956C50.2221 92.2139 50.0895 92.6413 49.8699 92.9771C49.6509 93.3144 49.3888 93.5705 49.0798 93.747C48.7738 93.9227 48.467 94.0307 48.1632 94.0694C47.7492 94.1149 47.1557 94.1037 46.3836 94.0367L45.2734 93.9399L44.9941 97.1231L43.2912 96.9742ZM45.6084 90.1118L45.3992 92.505L46.33 92.5862C47.0023 92.645 47.4558 92.6413 47.6896 92.5728C47.9234 92.5043 48.1126 92.3821 48.2585 92.2049C48.403 92.027 48.4871 91.8147 48.5087 91.5653C48.5355 91.2585 48.467 90.9971 48.3039 90.7812C48.1424 90.5668 47.9234 90.4208 47.6531 90.3478C47.4521 90.2905 47.0448 90.2369 46.4312 90.1833L45.6084 90.1118ZM54.4604 97.4403L52.8438 89.1244L54.4775 88.8072L58.9623 93.6979L57.8827 88.1453L59.4434 87.8422L61.0599 96.1588L59.3734 96.4857L54.9675 91.7142L56.0211 97.138L54.4604 97.4403ZM65.9319 94.7024L62.7584 86.8467L64.3437 86.2063L67.5172 94.0612L65.9319 94.7024Z" fill="white"/>
<path fill-rule="evenodd" clip-rule="evenodd" d="M77.2508 81.7885L77.9478 82.5592L78.8495 82.4505L78.7974 83.4885L79.5115 84.0477L78.7408 84.7461L78.8495 85.6471L77.8108 85.595L77.2508 86.3091L76.5531 85.5384L75.6521 85.6471L75.7043 84.6084L74.9909 84.0477L75.7616 83.3507L75.6521 82.4505L76.6909 82.5018L77.2508 81.7885Z" fill="white" stroke="white" stroke-width="0.5"/>
<path fill-rule="evenodd" clip-rule="evenodd" d="M23.1464 81.7885L23.8441 82.5592L24.7443 82.4505L24.6929 83.4885L25.4063 84.0477L24.6356 84.7461L24.7443 85.6471L23.7063 85.595L23.1464 86.3091L22.4487 85.5384L21.5477 85.6471L21.5998 84.6084L20.8857 84.0477L21.6564 83.3507L21.5477 82.4505L22.5864 82.5018L23.1464 81.7885Z" fill="white" stroke="white" stroke-width="0.5"/>
</g>
<defs>
<clipPath id="clip0">
<rect width="100" height="100" fill="white"/>
</clipPath>
</defs>
</svg>
