<svg width="39" height="54" fill="none" xmlns="http://www.w3.org/2000/svg">
<path d="M27.0249 22.6506C27.1144 23.09 27.664 23.0898 27.7536 22.6506C28.0215 21.3352 28.4158 21.1868 28.9617 20.9814C29.3026 20.8531 29.3034 20.3008 28.9617 20.1723C28.4373 19.9756 28.0278 19.8485 27.7536 18.5031C27.6643 18.0647 27.114 18.0658 27.025 18.5031C26.7568 19.8187 26.3829 19.9595 25.8169 20.1725C25.476 20.3008 25.4752 20.8529 25.8169 20.9816C26.757 21.3351 26.8636 21.8584 27.0249 22.6506Z" fill="black"/>
<path d="M9.08351 20.1723C8.55912 19.9756 8.14962 19.8485 7.8754 18.5031C7.7861 18.0647 7.23584 18.0658 7.14682 18.5031C6.87865 19.8187 6.50473 19.9595 5.93871 20.1725C5.59784 20.3008 5.59699 20.8529 5.93871 20.9816C6.87893 21.3354 6.98553 21.8587 7.14682 22.6508C7.2364 23.0902 7.78596 23.09 7.87554 22.6508C8.14343 21.3354 8.53775 21.1869 9.08365 20.9816C9.42439 20.8531 9.42523 20.3008 9.08351 20.1723Z" fill="black"/>
<path d="M10.8321 39.2607L9.6719 44.8509H6.8819L7.62862 36.1869L7.63846 35.3027L7.65252 34.1815H10.2541L10.8321 39.2607Z" fill="#FFB69F"/>
<path d="M21.8035 23.5134L17.3527 28.362L12.9019 23.5134C13.7625 23.1161 13.4546 23.2603 14.0536 22.9784C14.4783 22.7814 14.7877 22.3713 14.903 21.8844C14.9382 21.745 14.955 21.5992 14.955 21.4503V20.6558C16.4147 21.6137 18.3005 21.5944 19.7504 20.5773V21.4503C19.7504 21.58 19.763 21.7066 19.7897 21.8299C19.8952 22.3409 20.2116 22.7749 20.6518 22.9784C21.2818 23.2731 20.9358 23.1129 21.8035 23.5134Z" fill="#FFB69F"/>
<path d="M19.7897 21.8299C18.2583 22.6804 16.4344 22.6916 14.903 21.8843C14.9382 21.745 14.955 21.5992 14.955 21.4503V20.6558C16.4147 21.6136 18.3005 21.5944 19.7503 20.5773V21.4503C19.7503 21.58 19.763 21.7066 19.7897 21.8299Z" fill="#E98E7B"/>
<path d="M10.832 39.2607L9.67187 44.8509H8.66358L9.83218 39.2014L9.39062 35.3027H7.63843L7.65249 34.1815H10.2541L10.832 39.2607Z" fill="#E98E7B"/>
<path d="M19.7897 30.5949V44.1188C19.7897 44.4456 19.9612 44.7259 20.2073 44.8509H9.67453L10.8319 39.2606L10.2553 34.1813H7.65234L7.72687 27.7021C7.73953 26.6241 8.31469 25.6614 9.18937 25.2513C11.407 24.2102 10.3214 24.7179 12.9019 23.5134L17.3527 28.362L21.8034 23.5134C24.5332 24.7862 23.8412 24.4618 25.5159 25.2513C26.3906 25.6614 26.9658 26.6241 26.9784 27.7021L26.9897 28.6728L27.0023 29.794H20.4928C20.1047 29.794 19.7897 30.1528 19.7897 30.5949Z" fill="#276749"/>
<path d="M19.7897 30.5949V44.1188C19.7897 44.4456 19.9612 44.7259 20.2073 44.8509H18.9333C18.8503 44.6218 18.8053 44.3735 18.8053 44.1188V30.5949C18.8053 29.5345 19.5619 28.6728 20.4928 28.6728H26.9897L27.0023 29.794H20.4928C20.1047 29.794 19.7897 30.1528 19.7897 30.5949Z" fill="#B14E34"/>
<path d="M12.6319 16.9012H12.2199C11.4661 16.9012 10.8572 16.206 10.8572 15.3474C10.8572 14.4921 11.4647 13.7937 12.2199 13.7937H12.5588V15.9609C12.5588 16.2845 12.5827 16.6 12.6319 16.9012Z" fill="#FFB69F"/>
<path d="M22.0369 11.4567V15.9609C22.0369 16.2813 22.0144 16.5968 21.9652 16.9012C21.8091 17.9231 21.3942 18.8826 20.7502 19.6578C20.4633 20.0054 20.1286 20.3146 19.7503 20.5773C18.3005 21.5944 16.4147 21.6136 14.955 20.6557C14.588 20.4171 14.2519 20.124 13.9552 19.7876C13.2788 19.0235 12.8063 18.0272 12.6319 16.9012C12.5827 16.6 12.5588 16.2845 12.5588 15.9609V11.4567H22.0369Z" fill="#FFB69F"/>
<path d="M12.5592 11.457C12.5592 11.457 18.1796 13.4629 22.0376 12.7421V11.457H12.5592Z" fill="#7C7A78"/>
<path d="M23.7385 15.349C23.7385 16.2044 23.131 16.9012 22.3758 16.9012H21.9652C22.0144 16.5968 22.0369 16.2813 22.0369 15.9609V13.7937H22.3758C23.1296 13.7937 23.7385 14.4889 23.7385 15.349Z" fill="#FFB69F"/>
<path d="M22.0376 11.457H12.5592V11.0519C12.5592 8.30946 14.5109 6.08633 16.9186 6.08633H17.6782C20.0859 6.08633 22.0376 8.30946 22.0376 11.0519V11.457Z" fill="#276749"/>
<path d="M20.7501 16.4078V19.6579C20.4633 20.0054 20.1286 20.3146 19.7503 20.5773C18.3004 21.5944 16.4147 21.6137 14.955 20.6558C14.588 20.4171 14.2519 20.124 13.9551 19.7876V16.4078H20.7501Z" fill="#EEEEEE"/>
<path d="M29.9302 30.5949V44.1188C29.9302 44.5609 29.6152 44.9197 29.227 44.9197H20.4928C20.3915 44.9197 20.2945 44.8957 20.2073 44.8509C19.9612 44.7259 19.7897 44.4456 19.7897 44.1188V30.5949C19.7897 30.1528 20.1047 29.794 20.4928 29.794H29.227C29.6152 29.794 29.9302 30.1528 29.9302 30.5949Z" fill="#EFBF27"/>
<path d="M21.4338 31.3629H28.2863V42.8358H21.4338V31.3629Z" fill="#EEEEEE"/>
<path d="M20.4035 10.0937C20.3841 9.95708 20.3547 9.82141 20.3162 9.69022C20.2547 9.48038 20.3543 9.25357 20.5384 9.18357C20.7223 9.11373 20.9217 9.22698 20.9832 9.43665C21.0335 9.60869 21.0719 9.78649 21.0975 9.96541C21.1286 10.1837 20.9985 10.3894 20.8068 10.4248C20.6155 10.4602 20.4347 10.3122 20.4035 10.0937ZM19.6463 8.55038C19.2317 8.14 18.7014 7.91415 18.1531 7.91415C18.153 7.91415 18.153 7.91415 18.153 7.91415H16.444C16.2498 7.91415 16.0924 7.73491 16.0924 7.5137C16.0924 7.29249 16.2498 7.11325 16.444 7.11325H18.153H18.1533C18.871 7.11325 19.565 7.40894 20.1075 7.94586C20.254 8.09083 20.2697 8.34375 20.1424 8.51082C20.015 8.67756 19.7929 8.6955 19.6463 8.55038Z" fill="#FFCAC2"/>
<path d="M27.9312 20.5806C27.7245 20.7456 27.5389 20.9683 27.3786 21.2918C27.245 21.0371 27.0622 20.7969 26.7922 20.587C27.0101 20.4156 27.2056 20.185 27.3715 19.8438C27.5403 20.1898 27.733 20.4188 27.9312 20.5806Z" fill="#F0C020"/>
<path d="M8.17702 20.5806C7.9703 20.7456 7.78468 20.9683 7.62437 21.2918C7.49077 21.0371 7.30796 20.7969 7.03796 20.587C7.25593 20.4156 7.4514 20.185 7.61734 19.8438C7.78609 20.1898 7.97874 20.4188 8.17702 20.5806Z" fill="#F0C020"/>
<path d="M6.95105 40.3694L6.56715 44.8127C6.54774 45.0556 6.71536 45.2515 6.9173 45.2515C7.09871 45.2515 7.24918 45.0962 7.26746 44.8895L7.64996 40.4479C7.67049 40.2235 7.52466 40.0319 7.33496 40.009C7.14089 39.988 6.96933 40.15 6.95105 40.3694Z" fill="black"/>
<path d="M7.78782 38.8525C7.8061 38.633 7.66407 38.4376 7.47141 38.4152C7.27876 38.3943 7.10719 38.5561 7.08751 38.7756C7.06979 38.9982 7.21013 39.1898 7.40391 39.2129C7.57773 39.2382 7.76701 39.0884 7.78782 38.8525Z" fill="black"/>
<path d="M15.1277 14.0378C14.9335 14.0378 14.7761 14.2171 14.7761 14.4383V14.7561C14.7761 14.9773 14.9335 15.1565 15.1277 15.1565C15.3219 15.1565 15.4792 14.9773 15.4792 14.7561V14.4383C15.4792 14.2171 15.3219 14.0378 15.1277 14.0378Z" fill="black"/>
<path d="M19.5387 15.1565C19.7329 15.1565 19.8903 14.9773 19.8903 14.7561V14.4383C19.8903 14.2171 19.7329 14.0378 19.5387 14.0378C19.3445 14.0378 19.1871 14.2171 19.1871 14.4383V14.7561C19.1871 14.9773 19.3445 15.1565 19.5387 15.1565Z" fill="black"/>
<path d="M14.2805 7.65114C14.4253 7.50378 14.438 7.2491 14.3086 7.08571C14.1834 6.92714 13.95 6.91272 13.8122 7.05368C13.6658 7.20377 13.6555 7.45284 13.7841 7.61911C13.9174 7.78666 14.1397 7.79402 14.2805 7.65114Z" fill="black"/>
<path d="M29.2625 29.3936H27.3849L27.3655 27.6966C27.3509 26.458 26.6913 25.3527 25.6859 24.8813C24.5282 24.3356 24.9753 24.539 20.8208 22.6085C20.4059 22.4158 20.1374 21.9544 20.1374 21.4504V20.7937C21.264 19.9431 21.9974 18.6984 22.2853 17.3016H22.4111C23.3564 17.3016 24.1253 16.4258 24.1253 15.349C24.1253 14.2755 23.3631 13.4019 22.4238 13.394C22.4238 11.5718 22.4238 11.0764 22.4238 11.0517C22.4238 8.07897 20.3119 5.68573 17.7128 5.68573H16.9535C16.3052 5.68573 15.6752 5.8331 15.0845 6.12462C14.9098 6.21272 14.8223 6.44722 14.9017 6.65161C14.9763 6.84863 15.19 6.94634 15.3644 6.85985C15.8664 6.61157 16.4008 6.48663 16.9535 6.48663H17.7128C19.9206 6.49143 21.7206 8.54173 21.7206 11.0564H12.9456V11.0517C12.9456 10.2589 13.127 9.47718 13.4716 8.79161C13.5672 8.59939 13.5081 8.35432 13.3408 8.2454C13.1777 8.13808 12.9527 8.20856 12.8613 8.39436C12.4563 9.20007 12.2425 10.1179 12.2425 11.0517V13.394C11.3031 13.4019 10.541 14.2749 10.541 15.3476C10.541 16.4251 11.3099 17.3018 12.2552 17.3018H12.3837C12.6889 18.7738 13.4752 20.049 14.6388 20.8794V21.4506C14.6388 21.968 14.3582 22.4205 13.9567 22.6071C13.9567 22.6071 12.2512 23.3969 9.09082 24.8812C8.08465 25.3529 7.42512 26.4581 7.41063 27.697C7.31937 35.6262 7.3444 33.4916 7.3122 36.1647L7.22501 37.1802C7.20448 37.4051 7.35073 37.5962 7.54001 37.6191C7.78878 37.6191 7.90887 37.4437 7.92392 37.2587L8.01392 36.2255L8.03431 34.5819H9.98154L10.5103 39.2398L9.36771 44.7591C9.32314 44.9744 9.44028 45.19 9.62914 45.2408C9.81561 45.2914 10.007 45.1604 10.052 44.943L11.2093 39.3527C11.219 39.3058 11.2213 39.2573 11.2158 39.2095C10.7169 34.8132 10.5137 33.0308 10.5137 33.0308C10.4552 32.5206 10.4301 31.9473 10.4449 31.4572L10.5196 28.7466C10.5256 28.5256 10.3733 28.3407 10.1793 28.3338C9.98872 28.3247 9.82292 28.5004 9.81687 28.7215L9.7422 31.4309C9.72631 31.9617 9.75331 32.5827 9.81645 33.1338L9.88972 33.781H8.04415L8.11404 27.7075C8.12473 26.7899 8.6134 25.9713 9.359 25.6218C11.4474 24.641 10.7844 24.9513 12.86 23.9826L17.1451 28.6507C17.2817 28.7996 17.494 28.8007 17.6317 28.6507L18.7286 27.4557C18.8755 27.2952 18.8671 27.0415 18.7398 26.8903C18.609 26.7349 18.3784 26.7301 18.242 26.8775L17.3884 27.8081L13.5732 23.6515C13.8011 23.5473 13.8011 23.5473 14.0992 23.4064C14.9865 22.993 15.3423 22.284 15.3423 21.3016C15.9806 21.6095 16.679 21.7585 17.3295 21.7585C18.0357 21.7585 18.7691 21.5887 19.4345 21.244C19.4345 21.4719 19.4271 21.6595 19.4837 21.9263C19.6187 22.5702 20.0181 23.102 20.5553 23.3487C20.8905 23.5059 20.652 23.3981 21.2036 23.6515L20.2754 24.6638C20.1348 24.816 20.1306 25.0707 20.2642 25.2292C20.3936 25.3846 20.6256 25.3894 20.7606 25.242L21.9168 23.9824C24.4311 25.1546 23.7168 24.8198 25.4178 25.6218C26.1631 25.9713 26.6518 26.7899 26.6626 27.7075L26.6819 29.3937H25.3912L25.3313 28.3364C25.3188 28.1158 25.1501 27.9468 24.9578 27.9627C24.7641 27.9769 24.6172 28.1674 24.6298 28.3881L24.6867 29.3939H20.5284C19.9468 29.3939 19.4737 29.9327 19.4737 30.5952V44.1192C19.4737 44.7817 19.9468 45.3205 20.5284 45.3205H29.2627C29.8443 45.3205 30.3173 44.7817 30.3173 44.1192V30.5952C30.3172 29.9326 29.8441 29.3936 29.2625 29.3936ZM22.4241 15.9609V14.1943C22.9757 14.202 23.4225 14.7171 23.4225 15.349C23.4225 15.967 22.9871 16.5007 22.403 16.5007C22.419 16.2967 22.4241 16.1097 22.4241 15.9609ZM11.2444 15.3474C11.2444 14.7163 11.6911 14.202 12.2428 14.1941V15.9609C12.2428 16.1405 12.2522 16.3527 12.2643 16.5007C11.6823 16.5007 11.2444 15.9694 11.2444 15.3474ZM21.7209 15.9609C21.7209 16.8458 21.521 17.6955 21.1375 18.4524V16.5119L21.7209 15.3265V15.9609ZM21.7209 11.8574V12.3958C19.7212 12.6899 17.2801 12.2919 15.4415 11.8574H21.7209ZM13.6392 18.6571C13.1864 17.853 12.9459 16.9134 12.9459 15.9611V15.2238L13.6392 16.5217V18.6571ZM12.9459 13.683V11.9928C15.5225 12.8267 19.0458 13.5694 21.7209 13.202V13.6901L20.5802 16.0077H17.6848V14.4384C17.6848 14.2172 17.5275 14.038 17.3333 14.038C17.1391 14.038 16.9817 14.2172 16.9817 14.4384V16.0077H14.189L12.9459 13.683ZM17.3129 20.9566C16.214 20.952 15.1731 20.4975 14.3423 19.6138V16.8084H20.4342V19.4914C19.5931 20.4474 18.4875 20.9616 17.3129 20.9566ZM23.4112 30.1951H26.3798V30.9627H23.4112V30.1951ZM23.4112 31.7634H26.3798V32.2039C26.3798 32.3364 26.2852 32.4442 26.1689 32.4442H23.6222C23.5059 32.4442 23.4112 32.3364 23.4112 32.2039V31.7634ZM23.6222 33.2451H26.1689C26.6729 33.2451 27.083 32.778 27.083 32.2039V31.7634H27.9703V42.4354H21.8209V31.7634H22.7081V32.2039C22.7081 32.778 23.1182 33.2451 23.6222 33.2451ZM29.6141 44.1189C29.6141 44.3396 29.4563 44.5193 29.2625 44.5193H20.5283C20.3345 44.5193 20.1767 44.3396 20.1767 44.1189V30.5949C20.1767 30.3742 20.3345 30.1945 20.5283 30.1945H22.708V30.9625H21.4692C21.275 30.9625 21.1176 31.1418 21.1176 31.363V42.8358C21.1176 43.057 21.275 43.2363 21.4692 43.2363H28.3217C28.5159 43.2363 28.6733 43.057 28.6733 42.8358V31.363C28.6733 31.1418 28.5159 30.9625 28.3217 30.9625H27.0828V30.1945H29.2625C29.4563 30.1945 29.6141 30.3742 29.6141 30.5949V44.1189Z" fill="black"/>
<path d="M19.7451 26.3489C19.8844 26.1967 19.89 25.942 19.755 25.7834C19.6256 25.6281 19.3936 25.6216 19.2586 25.7706C19.1179 25.9228 19.1137 26.1775 19.2473 26.336C19.3809 26.4945 19.6018 26.5052 19.7451 26.3489Z" fill="black"/>
<path d="M22.5262 36.749C22.5262 36.9702 22.6836 37.1494 22.8778 37.1494H23.7283C23.8327 37.1494 23.9315 37.0967 23.9983 37.0056L24.5882 36.1999L24.7415 38.3389C24.7673 38.6985 25.1621 38.8356 25.362 38.5629L26.3971 37.1494H27.0829C27.2771 37.1494 27.4345 36.9702 27.4345 36.749C27.4345 36.5278 27.2771 36.3485 27.0829 36.3485H26.2326C26.1282 36.3485 26.0294 36.4012 25.9626 36.4924L25.3725 37.2981L25.2192 35.1591C25.1936 34.8022 24.8 34.6607 24.5988 34.9351L23.5638 36.3485H22.878C22.6836 36.3485 22.5262 36.5278 22.5262 36.749Z" fill="black"/>
</svg>
