<svg id="Layer_1" enable-background="new 0 0 256 256" height="512" viewBox="0 0 256 256" width="512" xmlns="http://www.w3.org/2000/svg"><g><path d="m192.177 110.193c.637 2.743 4.545 2.742 5.182 0 1.905-8.212 4.709-9.139 8.591-10.421 2.424-.801 2.43-4.249 0-5.051-3.729-1.228-6.641-2.022-8.591-10.421-.635-2.737-4.548-2.73-5.181 0-1.907 8.213-4.566 9.092-8.591 10.422-2.424.801-2.43 4.248 0 5.051 6.685 2.207 7.443 5.474 8.59 10.42z"/><path d="m64.594 94.721c-3.729-1.228-6.641-2.022-8.591-10.421-.635-2.737-4.548-2.73-5.181 0-1.907 8.213-4.566 9.092-8.591 10.422-2.424.801-2.43 4.248 0 5.051 6.686 2.209 7.444 5.476 8.591 10.421.637 2.743 4.545 2.742 5.182 0 1.905-8.212 4.709-9.139 8.591-10.421 2.423-.802 2.429-4.25-.001-5.052z"/><path d="m77.028 213.89-8.25 34.9h-19.84l5.31-54.09.07-5.52.1-7h18.5z" fill="#ffb69f"/><path d="m155.047 115.579-31.65 30.27-31.65-30.27c6.12-2.48 3.93-1.58 8.19-3.34 3.02-1.23 5.22-3.79 6.04-6.83.25-.87.37-1.78.37-2.71v-4.96c10.38 5.98 23.79 5.86 34.1-.49v5.45c0 .81.09 1.6.28 2.37.75 3.19 3 5.9 6.13 7.17 4.48 1.84 2.02.84 8.19 3.34z" fill="#ffb69f"/><path d="m140.727 105.069c-10.89 5.31-23.86 5.38-34.75.34.25-.87.37-1.78.37-2.71v-4.96c10.38 5.98 23.79 5.86 34.1-.49v5.45c0 .81.09 1.6.28 2.37z" fill="#e98e7b"/><path d="m77.028 213.89-8.25 34.9h-7.17l8.31-35.27-3.14-24.34h-12.46l.1-7h18.5z" fill="#e98e7b"/><path d="m140.727 159.789v84.43c0 2.04 1.22 3.79 2.97 4.57h-74.9l8.23-34.9-4.1-31.71h-18.51l.53-40.45c.09-6.73 4.18-12.74 10.4-15.3 15.77-6.5 8.05-3.33 26.4-10.85l31.65 30.27 31.65-30.27c19.412 7.946 14.491 5.921 26.4 10.85 6.22 2.56 10.31 8.57 10.4 15.3l.08 6.06.09 7h-46.29c-2.76 0-5 2.24-5 5z" fill="#fb5c3c"/><path d="m140.727 159.789v84.43c0 2.04 1.22 3.79 2.97 4.57h-9.06c-.59-1.43-.91-2.98-.91-4.57v-84.43c0-6.62 5.38-12 12-12h46.2l.09 7h-46.29c-2.76 0-5 2.24-5 5z" fill="#b14e34"/><path d="m89.827 74.299h-2.93c-5.36 0-9.69-4.34-9.69-9.7 0-5.34 4.32-9.7 9.69-9.7h2.41v13.53c0 2.02.17 3.99.52 5.87z" fill="#ffb69f"/><path d="m156.707 40.309v28.12c0 2-.16 3.97-.51 5.87-1.11 6.38-4.06 12.37-8.64 17.21-2.04 2.17-4.42 4.1-7.11 5.74-10.31 6.35-23.72 6.47-34.1.49-2.61-1.49-5-3.32-7.11-5.42-4.81-4.77-8.17-10.99-9.41-18.02-.35-1.88-.52-3.85-.52-5.87v-28.12z" fill="#ffb69f"/><path d="m89.31 40.311s39.967 12.523 67.402 8.023v-8.023z" fill="#7c7a78"/><path d="m168.807 64.609c0 5.34-4.32 9.69-9.69 9.69h-2.92c.35-1.9.51-3.87.51-5.87v-13.53h2.41c5.36 0 9.69 4.34 9.69 9.71z" fill="#ffb69f"/><path d="m156.712 40.311h-67.402v-2.529c0-17.121 13.879-31 31-31h5.402c17.121 0 31 13.879 31 31z" fill="#fb5c3c"/><path d="m147.557 71.219v20.29c-2.04 2.17-4.42 4.1-7.11 5.74-10.31 6.35-23.72 6.47-34.1.49-2.61-1.49-5-3.32-7.11-5.42v-21.1z" fill="#eee"/><path d="m212.837 159.789v84.43c0 2.76-2.24 5-5 5h-62.11c-.72 0-1.41-.15-2.03-.43-1.75-.78-2.97-2.53-2.97-4.57v-84.43c0-2.76 2.24-5 5-5h62.11c2.76 0 5 2.24 5 5z" fill="#efbf27"/><path d="m152.418 164.584h48.729v71.625h-48.729z" fill="#eee"/><path d="m145.092 31.8c-.138-.853-.347-1.7-.621-2.519-.437-1.31.271-2.726 1.58-3.163 1.308-.436 2.726.271 3.163 1.58.358 1.074.631 2.184.813 3.301.221 1.363-.704 2.647-2.067 2.868-1.361.221-2.646-.703-2.868-2.067zm-5.385-9.635c-2.948-2.562-6.719-3.972-10.618-3.972-.001 0-.001 0-.001 0h-12.153c-1.381 0-2.5-1.119-2.5-2.5s1.119-2.5 2.5-2.5h12.153.002c5.104 0 10.039 1.846 13.897 5.198 1.042.905 1.153 2.484.248 3.527-.906 1.041-2.485 1.153-3.528.247z" fill="#ffcac2"/><path d="m198.622 97.27c-1.47 1.03-2.79 2.42-3.93 4.44-.95-1.59-2.25-3.09-4.17-4.4 1.55-1.07 2.94-2.51 4.12-4.64 1.2 2.16 2.57 3.59 3.98 4.6z" fill="#f0c020"/><path d="m58.148 97.27c-1.47 1.03-2.79 2.42-3.93 4.44-.95-1.59-2.25-3.09-4.17-4.4 1.55-1.07 2.94-2.51 4.12-4.64 1.2 2.16 2.57 3.59 3.98 4.6z" fill="#f0c020"/><path d="m49.43 220.811-2.73 27.74c-.138 1.517 1.054 2.74 2.49 2.74 1.29 0 2.36-.97 2.49-2.26l2.72-27.73c.146-1.401-.891-2.597-2.24-2.74-1.38-.131-2.6.88-2.73 2.25z"/><path d="m55.38 211.341c.13-1.37-.88-2.59-2.25-2.73-1.37-.13-2.59.88-2.73 2.25-.126 1.39.872 2.586 2.25 2.73 1.236.158 2.582-.777 2.73-2.25z"/><path d="m107.575 56.423c-1.381 0-2.5 1.119-2.5 2.5v1.984c0 1.381 1.119 2.5 2.5 2.5s2.5-1.119 2.5-2.5v-1.984c0-1.381-1.119-2.5-2.5-2.5z"/><path d="m138.942 63.407c1.381 0 2.5-1.119 2.5-2.5v-1.984c0-1.381-1.119-2.5-2.5-2.5s-2.5 1.119-2.5 2.5v1.984c0 1.381 1.119 2.5 2.5 2.5z"/><path d="m101.55 16.551c1.03-.92 1.12-2.51.2-3.53-.89-.99-2.55-1.08-3.53-.2-1.041.937-1.114 2.492-.2 3.53.948 1.046 2.529 1.092 3.53.2z"/><path d="m208.089 152.289h-13.352l-.138-10.594c-.104-7.733-4.794-14.633-11.944-17.576-8.232-3.407-5.053-2.137-34.596-14.189-2.95-1.203-4.86-4.084-4.86-7.23v-4.1c8.012-5.31 13.227-13.081 15.274-21.801h.895c6.722 0 12.19-5.468 12.19-12.19 0-6.702-5.42-12.156-12.1-12.205 0-11.376 0-14.469 0-14.623 0-18.559-15.018-33.5-33.5-33.5h-5.4c-4.61 0-9.09.92-13.29 2.74-1.243.55-1.865 2.014-1.3 3.29.53 1.23 2.05 1.84 3.29 1.3 3.57-1.55 7.37-2.33 11.3-2.33h5.4c15.7.03 28.5 12.83 28.5 28.529h-62.4v-.029c0-4.95 1.29-9.83 3.74-14.11.68-1.2.26-2.73-.93-3.41-1.16-.67-2.76-.23-3.41.93-2.88 5.03-4.4 10.76-4.4 16.59v14.623c-6.68.049-12.1 5.499-12.1 12.196 0 6.727 5.468 12.2 12.19 12.2h.914c2.17 9.19 7.762 17.151 16.036 22.335v3.566c0 3.23-1.995 6.055-4.85 7.22 0 0-12.128 4.931-34.602 14.197-7.155 2.945-11.845 9.845-11.948 17.579-.649 49.502-.471 36.176-.7 52.864l-.62 6.34c-.146 1.404.894 2.597 2.24 2.74 1.769 0 2.623-1.095 2.73-2.25l.64-6.45.145-10.261h13.847l3.76 29.079-8.125 34.457c-.317 1.344.516 2.69 1.859 3.007 1.326.316 2.687-.502 3.007-1.859l8.23-34.9c.069-.293.085-.596.046-.894-3.548-27.446-4.993-38.574-4.993-38.574-.416-3.185-.594-6.764-.489-9.824l.531-16.922c.043-1.38-1.04-2.534-2.42-2.577-1.355-.057-2.534 1.04-2.577 2.42l-.531 16.915c-.113 3.314.079 7.191.528 10.631l.521 4.041h-13.124l.497-37.917c.076-5.729 3.551-10.839 8.853-13.021 14.851-6.123 10.136-4.186 24.896-10.234l30.472 29.143c.971.93 2.481.937 3.46 0l7.8-7.46c1.045-1.002.985-2.586.08-3.53-.93-.97-2.57-1-3.54-.08l-6.07 5.81-27.13-25.95c1.62-.65 1.62-.65 3.74-1.53 6.31-2.581 8.84-7.007 8.84-13.14 4.539 1.922 9.505 2.852 14.131 2.852 5.022 0 10.237-1.06 14.969-3.212 0 1.423-.053 2.594.35 4.26.96 4.02 3.8 7.34 7.62 8.88 2.384.981.688.308 4.61 1.89l-6.6 6.32c-1 .95-1.03 2.54-.08 3.53.92.97 2.57 1 3.53.08l8.222-7.864c17.879 7.318 12.8 5.228 24.896 10.235 5.3 2.182 8.775 7.292 8.852 13.021l.137 10.527h-9.178l-.426-6.601c-.089-1.377-1.289-2.432-2.656-2.333-1.378.089-2.422 1.278-2.333 2.656l.405 6.279h-29.57c-4.136 0-7.5 3.364-7.5 7.5v84.43c0 4.136 3.364 7.5 7.5 7.5h62.11c4.136 0 7.5-3.364 7.5-7.5v-84.43c-.001-4.137-3.365-7.502-7.501-7.502zm-48.629-83.86v-11.029c3.923.048 7.1 3.264 7.1 7.209 0 3.858-3.096 7.19-7.25 7.19.114-1.274.15-2.441.15-3.37zm-79.5-3.83c0-3.94 3.177-7.151 7.1-7.2v11.03c0 1.121.067 2.446.153 3.37-4.139 0-7.253-3.317-7.253-7.2zm74.5 3.83c0 5.524-1.422 10.829-4.149 15.554v-12.114l4.149-7.401zm0-25.618v3.361c-14.22 1.836-31.579-.649-44.654-3.361zm-57.47 42.45c-3.22-5.02-4.93-10.886-4.93-16.831v-4.603l4.93 8.103zm-4.93-31.053v-10.552c18.322 5.206 43.377 9.843 62.4 7.549v3.047l-8.112 14.469h-20.589v-9.797c0-1.381-1.119-2.5-2.5-2.5s-2.5 1.119-2.5 2.5v9.797h-19.859zm31.054 45.409c-7.814-.029-15.216-2.866-21.124-8.383v-17.514h43.32v16.75c-5.981 5.968-13.843 9.178-22.196 9.147zm43.366 57.676h21.11v4.792h-21.11zm0 9.791h21.11v2.75c0 .827-.673 1.5-1.5 1.5h-18.11c-.827 0-1.5-.673-1.5-1.5zm1.5 9.25h18.11c3.584 0 6.5-2.916 6.5-6.5v-2.75h6.31v66.625h-43.729v-66.625h6.309v2.75c0 3.584 2.916 6.5 6.5 6.5zm42.609 67.885c0 1.378-1.122 2.5-2.5 2.5h-62.11c-1.378 0-2.5-1.122-2.5-2.5v-84.43c0-1.378 1.122-2.5 2.5-2.5h15.5v4.795h-8.809c-1.381 0-2.5 1.119-2.5 2.5v71.625c0 1.381 1.119 2.5 2.5 2.5h48.729c1.381 0 2.5-1.119 2.5-2.5v-71.625c0-1.381-1.119-2.5-2.5-2.5h-8.81v-4.795h15.5c1.378 0 2.5 1.122 2.5 2.5z"/><path d="m140.41 133.281c.99-.95 1.03-2.54.07-3.53-.92-.97-2.57-1.01-3.53-.08-1 .95-1.03 2.54-.08 3.53.95.989 2.521 1.056 3.54.08z"/><path d="m160.187 198.209c0 1.381 1.119 2.5 2.5 2.5h6.048c.742 0 1.445-.329 1.92-.898l4.195-5.03 1.09 13.354c.183 2.245 2.991 3.101 4.412 1.398l7.361-8.824h4.877c1.381 0 2.5-1.119 2.5-2.5s-1.119-2.5-2.5-2.5h-6.047c-.742 0-1.445.329-1.92.898l-4.196 5.03-1.09-13.354c-.182-2.228-2.981-3.111-4.412-1.398l-7.36 8.824h-4.877c-1.382 0-2.501 1.119-2.501 2.5z"/></g></svg>