<svg width="638" height="415" viewBox="0 0 638 415" fill="none" xmlns="http://www.w3.org/2000/svg">
<g clip-path="url(#clip0)">
<path opacity="0.1" d="M85.9769 136.162H129.497V191.855H89.159C89.0561 192.43 88.9532 193.002 88.8374 193.578H129.497V238.485C129.429 238.485 129.36 238.436 129.296 238.412C128.152 237.985 127.009 237.533 125.865 237.055C125.621 236.951 125.38 236.842 125.132 236.741C123.988 236.234 122.844 235.697 121.701 235.131C121.302 234.934 120.903 234.728 120.513 234.519C114.164 231.193 108.393 226.976 103.401 222.014C103.251 221.881 103.114 221.736 102.973 221.611C102.278 220.903 101.596 220.186 100.935 219.453C100.687 219.184 100.447 218.91 100.202 218.648C99.4216 217.754 98.6668 216.828 97.9377 215.898C97.8262 215.757 97.7233 215.62 97.6161 215.496C94.6295 211.616 92.1528 207.412 90.2397 202.975C90.1797 202.842 90.1239 202.697 90.0682 202.572C89.4764 201.163 88.9403 199.734 88.4771 198.276C88.2798 197.668 88.0869 197.068 87.9239 196.436C87.8639 196.255 87.8167 196.07 87.7652 195.889C85.355 186.971 85.0763 177.703 85.0763 168.479C85.0763 167.406 85.0763 166.332 85.0763 165.258C85.1106 161.493 85.1578 157.731 85.2178 153.973C85.2407 153.007 85.2621 152.037 85.2821 151.062C85.3422 148.596 85.4279 146.124 85.5394 143.646C85.5652 142.962 85.5995 142.273 85.6381 141.593C85.6552 141.198 85.6767 140.804 85.7024 140.409C85.7796 138.984 85.8711 137.568 85.9769 136.162Z" fill="#276749"/>
<path opacity="0.1" d="M129.497 74.1522H105.623C109.506 68.4533 113.746 62.9762 118.321 57.75C121.872 53.6595 125.612 49.6737 129.497 45.8328V74.1522Z" fill="#276749"/>
<path opacity="0.1" d="M129.497 75.8673V134.439H86.1141C86.1141 134.27 86.1399 134.096 86.157 133.927C86.1956 133.464 86.2342 133.005 86.2771 132.542C86.32 132.003 86.3757 131.463 86.4315 130.932C86.4872 130.401 86.543 129.756 86.6116 129.173C86.6802 128.589 86.736 127.997 86.8046 127.413C86.8732 126.829 86.9418 126.246 87.019 125.666C87.0962 125.086 87.1648 124.498 87.2506 123.919C87.3149 123.439 87.3792 122.956 87.4522 122.473C87.5508 121.793 87.6537 121.112 87.7609 120.436C87.7609 120.331 87.7952 120.231 87.8124 120.13C88.5962 115.179 89.6613 110.271 91.0031 105.427C92.4122 100.346 94.211 95.3675 96.3853 90.5303C98.6957 85.462 101.402 80.561 104.482 75.8673H129.497Z" fill="#276749"/>
<path opacity="0.1" d="M139.893 136.162V191.855H232.852V136.162H139.893ZM139.893 193.578V241.408C140.425 241.509 140.948 241.609 141.475 241.694C142.183 241.823 142.895 241.939 143.62 242.04L144.049 242.096C144.332 242.141 144.619 242.177 144.906 242.209C145.622 242.306 146.339 242.378 147.051 242.443C147.385 242.475 147.732 242.499 148.071 242.527L148.899 242.584C149.349 242.616 149.795 242.64 150.241 242.656C150.516 242.656 150.79 242.676 151.069 242.684C151.348 242.692 151.498 242.684 151.721 242.684H152.531C152.9 242.684 153.269 242.684 153.634 242.684H154.105C154.474 242.684 154.843 242.684 155.207 242.652H155.229C155.486 242.652 155.739 242.652 155.997 242.624C156.069 242.628 156.142 242.628 156.215 242.624C156.43 242.624 156.644 242.624 156.85 242.6C156.899 242.596 156.947 242.596 156.996 242.6C157.472 242.571 157.952 242.535 158.437 242.495C158.921 242.455 159.38 242.406 159.865 242.358L160.838 242.245C164.816 241.722 168.75 240.937 172.611 239.894C181.286 237.623 189.765 234.447 198.436 232.124C209.638 229.124 222.024 227.647 232.848 231.298V193.578H139.893ZM232.852 74.1527V0.0084956C222.676 -0.0966138 212.527 1.0196 202.652 3.33001C179.112 8.88196 157.974 20.924 139.893 36.3036V74.1487H144.572V75.8678H139.893V134.439H232.852V75.8678H163.712V74.1446L232.852 74.1527ZM352.281 49.1065C346.457 48.9132 340.667 47.186 335.427 44.5087C325.417 39.3996 317.415 31.5005 308.477 24.8413C289.908 10.9634 266.878 2.58518 243.252 0.507729V74.1527H375.945L376.275 73.8266L352.281 49.1065ZM364.37 47.0934L377.189 60.303V43.6189C372.874 44.1302 369.118 45.3179 364.37 47.0773V47.0934ZM377.189 253.285V193.578H349.853C349.785 193.324 349.708 193.067 349.622 192.809C349.703 193.067 349.776 193.324 349.849 193.578H243.252V236.754C244.264 237.458 245.263 238.203 246.254 238.952C247.323 239.773 248.385 240.604 249.44 241.444L250.504 242.269C251.014 242.672 251.533 243.075 252.048 243.457C253.08 244.238 254.119 245.011 255.166 245.776C255.689 246.163 256.215 246.542 256.744 246.916C265.12 252.925 273.956 258.35 283.179 263.145C285.246 264.228 287.334 265.27 289.436 266.289C290.834 266.965 292.242 267.628 293.66 268.278C295.787 269.252 297.931 270.192 300.093 271.096C320.02 279.494 341.092 285.255 362.706 288.215C367.504 288.878 372.323 289.401 377.163 289.785V253.277H377.592L377.189 253.285ZM243.252 75.8678V134.439H377.189V75.8678H243.252ZM243.252 136.154V191.855H377.189V136.162L243.252 136.154ZM387.584 43.5384V62.1791L403.941 45.322C398.52 44.4819 393.068 43.8873 387.584 43.5384ZM387.584 136.162V191.855H517.85V136.162H387.584ZM517.391 257.701L517.85 193.578H387.584V290.433C395.975 290.761 404.378 290.666 412.758 290.148H412.904C416.907 289.906 420.891 289.562 424.856 289.117H424.946C446.109 286.804 466.8 281.615 486.372 273.713L517.391 257.701ZM542.981 145.31C542.486 144.236 541.979 143.162 541.459 142.089C540.489 140.076 539.469 138.119 538.414 136.166H528.25V191.855H553.943C553.921 176.081 549.667 159.977 542.981 145.31V145.31ZM528.25 193.578V248.735C535.485 242.225 541.604 234.773 546.005 226.254C551.301 215.991 553.724 204.887 553.926 193.574L528.25 193.578ZM528.25 119.933V134.427H537.462C534.669 129.445 531.594 124.606 528.25 119.933V119.933ZM439.905 54.4692C439.227 54.2236 438.546 53.978 437.864 53.7445C430.674 51.25 423.326 49.1766 415.863 47.5363L390.826 73.3273L390.338 73.8225L390.659 74.1487H479.767C467.356 66.1312 453.975 59.5251 439.905 54.4692V54.4692ZM482.383 75.8678H389.411L387.584 77.4339V134.439H403.602H517.85V106.82C507.519 95.0921 495.596 84.6859 482.383 75.8678V75.8678Z" fill="#276749"/>
<path opacity="0.1" d="M129.497 105.415V134.439H86.1141C86.1141 134.27 86.1399 134.096 86.157 133.927C86.1956 133.464 86.2342 133.005 86.2771 132.542C86.32 132.003 86.3757 131.463 86.4315 130.932C86.4872 130.401 86.543 129.756 86.6116 129.173C86.6802 128.589 86.736 127.997 86.8046 127.413C86.8732 126.829 86.9418 126.246 87.019 125.666C87.0962 125.086 87.1648 124.498 87.2506 123.919C87.3149 123.439 87.3792 122.956 87.4522 122.473C87.5508 121.793 87.6537 121.112 87.7609 120.436C87.7609 120.331 87.7952 120.231 87.8124 120.13C88.5962 115.179 89.6613 110.271 91.0031 105.427L129.497 105.415Z" fill="#276749"/>
<path opacity="0.1" d="M85.9769 136.162H129.497V191.855H89.159C89.0561 192.43 88.9532 193.002 88.8374 193.578H129.497V238.485C129.429 238.485 129.36 238.436 129.296 238.412C128.152 237.985 127.009 237.533 125.865 237.055C125.621 236.951 125.38 236.842 125.132 236.741C123.988 236.234 122.844 235.697 121.701 235.131C121.302 234.934 120.903 234.728 120.513 234.519C114.164 231.193 108.393 226.976 103.401 222.014C103.251 221.881 103.114 221.736 102.973 221.611C102.278 220.903 101.596 220.186 100.935 219.453C100.687 219.184 100.447 218.91 100.202 218.648C99.4216 217.754 98.6668 216.828 97.9377 215.898C97.8262 215.757 97.7233 215.62 97.6161 215.496C94.6295 211.616 92.1528 207.412 90.2397 202.975C90.1797 202.842 90.1239 202.697 90.0682 202.572C89.4764 201.163 88.9403 199.734 88.4771 198.276C88.2798 197.668 88.0869 197.068 87.9239 196.436C87.8639 196.255 87.8167 196.07 87.7652 195.889C85.355 186.971 85.0763 177.703 85.0763 168.479C85.0763 167.406 85.0763 166.332 85.0763 165.258C85.1106 161.493 85.1578 157.731 85.2178 153.973C85.2407 153.007 85.2621 152.037 85.2821 151.062C85.3422 148.596 85.4279 146.124 85.5394 143.646C85.5652 142.962 85.5995 142.273 85.6381 141.593C85.6552 141.198 85.6767 140.804 85.7024 140.409C85.7796 138.984 85.8711 137.568 85.9769 136.162Z" fill="#276749"/>
<path opacity="0.1" d="M172.615 84.2577V134.439H139.889V84.2577H144.555V67.2676H163.707V84.2577H172.615Z" fill="#276749"/>
<path opacity="0.1" d="M172.611 136.158H139.889V191.85H172.611V136.158Z" fill="#276749"/>
<path opacity="0.1" d="M139.893 193.578H172.615V239.878C168.755 240.921 164.821 241.705 160.843 242.225C160.517 242.269 160.195 242.305 159.869 242.337C159.389 242.39 158.913 242.438 158.437 242.478L157 242.587H156.854L156.22 242.619H156.001C155.744 242.619 155.49 242.647 155.233 242.652H155.212C154.843 242.652 154.478 242.676 154.11 242.684H153.638C153.273 242.684 152.909 242.684 152.536 242.684H151.729H151.073C150.795 242.684 150.52 242.684 150.241 242.652C149.801 242.635 149.355 242.611 148.903 242.579L148.076 242.523C147.732 242.499 147.389 242.466 147.051 242.434C146.33 242.375 145.615 242.299 144.906 242.205L144.049 242.092L143.62 242.036C142.904 241.935 142.192 241.822 141.475 241.693C140.944 241.605 140.42 241.504 139.893 241.399V193.578Z" fill="#276749"/>
<path opacity="0.1" d="M377.184 78.3313H350.201V134.435H377.184V78.3313Z" fill="#276749"/>
<path opacity="0.1" d="M377.189 136.158V191.855H243.252V167.831H314.593V182.003H350.201V136.158H377.189Z" fill="#276749"/>
<path opacity="0.1" d="M377.613 253.296C377.472 253.296 377.33 253.296 377.184 253.272V289.809C372.35 289.436 367.532 288.914 362.732 288.243C341.11 285.284 320.03 279.525 300.093 271.132C294.338 268.695 288.7 266.039 283.179 263.164C273.959 258.367 265.125 252.943 256.748 246.935C254.638 245.421 252.56 243.874 250.513 242.293C249.093 241.19 247.686 240.063 246.254 238.972C245.268 238.219 244.268 237.474 243.252 236.765V193.578H349.849C349.772 193.32 349.703 193.066 349.626 192.809C349.708 193.066 349.785 193.32 349.853 193.578H377.189V253.268C377.33 253.272 377.472 253.284 377.613 253.296Z" fill="#276749"/>
<path opacity="0.1" d="M447.564 74.1523H429.981V69.023H437.859V53.7441C438.543 53.9803 439.223 54.2218 439.901 54.4688V69.023H447.56L447.564 74.1523Z" fill="#276749"/>
<path opacity="0.1" d="M489.931 134.439H403.602C403.611 134.441 403.619 134.441 403.628 134.439H403.589H387.584V78.3353H392.122V119.804H412.853V95.2448H429.985V75.8673H447.569V95.2569H464.693V119.816H489.936L489.931 134.439Z" fill="#276749"/>
<path opacity="0.1" d="M387.584 136.162V191.855H489.936V136.162H387.584ZM517.704 257.407L517.85 213.322H489.936V193.594H387.584V290.433C395.975 290.761 404.378 290.665 412.758 290.147H412.904C416.907 289.906 420.891 289.562 424.856 289.116H424.946C446.109 286.804 466.8 281.615 486.372 273.713" fill="#276749"/>
<path opacity="0.1" d="M530.051 193.578H553.926C553.72 204.887 551.301 215.995 546.004 226.253C541.604 234.777 535.485 242.229 528.25 248.739V213.309H530.051V193.578Z" fill="#276749"/>
<path opacity="0.1" d="M553.943 191.855H530.051V145.309H542.981C549.667 159.976 553.921 176.08 553.943 191.855Z" fill="#276749"/>
<path opacity="0.1" d="M377.189 93.9283H362.732V111.518H377.189V93.9283Z" fill="#276749"/>
<path opacity="0.1" d="M377.189 130.388H362.732V134.439H377.189V130.388Z" fill="#276749"/>
<path opacity="0.1" d="M377.189 136.158H362.732V147.974H377.189V136.158Z" fill="#276749"/>
<path opacity="0.1" d="M377.189 166.849H362.732V184.438H377.189V166.849Z" fill="#276749"/>
<path opacity="0.1" d="M377.189 203.309H362.732V220.899H377.189V203.309Z" fill="#276749"/>
<path opacity="0.1" d="M377.189 253.268C377.33 253.268 377.472 253.268 377.618 253.296C377.476 253.296 377.335 253.296 377.189 253.272V257.359H362.732V239.769H377.189V253.268Z" fill="#276749"/>
<path opacity="0.1" d="M377.189 276.225V289.809C372.351 289.436 367.532 288.914 362.732 288.243V276.225H377.189Z" fill="#276749"/>
<path opacity="0.1" d="M305.209 190.562H243.252V191.855H305.209V190.562Z" fill="#276749"/>
<path opacity="0.1" d="M305.209 193.574H243.252V198.526H305.209V193.574Z" fill="#276749"/>
<path opacity="0.1" d="M305.209 214.759H243.252V222.722H305.209V214.759Z" fill="#276749"/>
<path opacity="0.1" d="M305.209 238.956V246.919H256.748C254.638 245.411 252.56 243.862 250.513 242.273C249.089 241.174 247.682 240.047 246.254 238.956H305.209Z" fill="#276749"/>
<path opacity="0.1" d="M305.209 263.148V271.132H300.093C294.338 268.695 288.7 266.039 283.179 263.164L305.209 263.148Z" fill="#276749"/>
<path opacity="0.1" d="M424.955 141.557H412.758V153.007H424.955V141.557Z" fill="#276749"/>
<path opacity="0.1" d="M160.873 88.2073H148.676V99.6574H160.873V88.2073Z" fill="#276749"/>
<path opacity="0.1" d="M160.873 114.804H148.676V126.254H160.873V114.804Z" fill="#276749"/>
<path opacity="0.1" d="M160.873 141.4H148.676V152.85H160.873V141.4Z" fill="#276749"/>
<path opacity="0.1" d="M160.873 167.992H148.676V179.442H160.873V167.992Z" fill="#276749"/>
<path opacity="0.1" d="M160.873 194.588H148.676V206.038H160.873V194.588Z" fill="#276749"/>
<path opacity="0.1" d="M160.873 221.184H148.676V232.635H160.873V221.184Z" fill="#276749"/>
<path opacity="0.1" d="M471.516 141.557H459.319V153.007H471.516V141.557Z" fill="#276749"/>
<path opacity="0.1" d="M424.955 169.8H412.758V181.25H424.955V169.8Z" fill="#276749"/>
<path opacity="0.1" d="M471.516 169.8H459.319V181.25H471.516V169.8Z" fill="#276749"/>
<path opacity="0.1" d="M424.955 198.039H412.758V209.489H424.955V198.039Z" fill="#276749"/>
<path opacity="0.1" d="M471.516 198.039H459.319V209.489H471.516V198.039Z" fill="#276749"/>
<path opacity="0.1" d="M424.955 226.281H412.758V237.732H424.955V226.281Z" fill="#276749"/>
<path opacity="0.1" d="M471.516 226.281H459.319V237.732H471.516V226.281Z" fill="#276749"/>
<path opacity="0.1" d="M424.955 254.524H412.758V265.975H424.955V254.524Z" fill="#276749"/>
<path opacity="0.1" d="M471.516 254.524H459.319V265.975H471.516V254.524Z" fill="#276749"/>
<path opacity="0.1" d="M412.758 290.147V282.763H424.951V289.096L412.758 290.147Z" fill="#276749"/>
<path opacity="0.1" d="M87.7609 120.118V126.668H129.497V120.118H87.7609ZM91.9166 126.258H88.4857V120.533H91.9166V126.258ZM96.0722 126.258H92.6413V120.533H96.0722V126.258ZM100.219 126.258H96.7884V120.533H100.219V126.258ZM104.375 126.258H100.944V120.533H104.375V126.258ZM108.526 126.258H105.095V120.533H108.526V126.258ZM112.682 126.258H109.251V120.533H112.682V126.258ZM116.838 126.258H113.407V120.533H116.838V126.258ZM120.989 126.258H117.558V120.533H120.989V126.258ZM125.14 126.258H121.709V120.533H125.14V126.258ZM129.296 126.258H125.865V120.533H129.296V126.258Z" fill="#276749"/>
<path opacity="0.1" d="M87.7609 139.185V145.736H129.497V139.185H87.7609ZM91.9166 145.325H88.4857V139.6H91.9166V145.325ZM96.0722 145.325H92.6413V139.6H96.0722V145.325ZM100.219 145.325H96.7884V139.6H100.219V145.325ZM104.375 145.325H100.944V139.6H104.375V145.325ZM108.526 145.325H105.095V139.6H108.526V145.325ZM112.682 145.325H109.251V139.6H112.682V145.325ZM116.838 145.325H113.407V139.6H116.838V145.325ZM120.989 145.325H117.558V139.6H120.989V145.325ZM125.14 145.325H121.709V139.6H125.14V145.325ZM129.296 145.325H125.865V139.6H129.296V145.325Z" fill="#276749"/>
<path opacity="0.1" d="M87.7609 158.257V164.803H129.497V158.257H87.7609ZM91.9166 164.389H88.4857V158.664H91.9166V164.389ZM96.0722 164.389H92.6413V158.664H96.0722V164.389ZM100.219 164.389H96.7884V158.664H100.219V164.389ZM104.375 164.389H100.944V158.664H104.375V164.389ZM108.526 164.389H105.095V158.664H108.526V164.389ZM112.682 164.389H109.251V158.664H112.682V164.389ZM116.838 164.389H113.407V158.664H116.838V164.389ZM120.989 164.389H117.558V158.664H120.989V164.389ZM125.14 164.389H121.709V158.664H125.14V164.389ZM129.296 164.389H125.865V158.664H129.296V164.389Z" fill="#276749"/>
<path opacity="0.1" d="M87.7609 177.324V183.871H129.497V177.324H87.7609ZM91.9166 183.46H88.4857V177.727H91.9166V183.46ZM96.0722 183.46H92.6413V177.727H96.0722V183.46ZM100.219 183.46H96.7884V177.727H100.219V183.46ZM104.375 183.46H100.944V177.727H104.375V183.46ZM108.526 183.46H105.095V177.727H108.526V183.46ZM112.682 183.46H109.251V177.727H112.682V183.46ZM116.838 183.46H113.407V177.727H116.838V183.46ZM120.989 183.46H117.558V177.727H120.989V183.46ZM125.14 183.46H121.709V177.727H125.14V183.46ZM129.296 183.46H125.865V177.727H129.296V183.46Z" fill="#276749"/>
<path opacity="0.1" d="M87.9625 196.384C88.1255 197.004 88.3185 197.616 88.5157 198.224V196.799H91.9466V202.52H90.1068C90.1583 202.656 90.214 202.797 90.274 202.922H129.515V196.384H87.9625ZM96.1108 202.52H92.6799V196.799H96.1108V202.52ZM100.258 202.52H96.827V196.799H100.258V202.52ZM104.413 202.52H100.983V196.799H104.413V202.52ZM108.565 202.52H105.134V196.799H108.565V202.52ZM112.72 202.52H109.29V196.799H112.72V202.52ZM116.876 202.52H113.445V196.799H116.876V202.52ZM121.027 202.52H117.597V196.799H121.027V202.52ZM125.179 202.52H121.748V196.799H125.179V202.52ZM129.334 202.52H125.904V196.799H129.334V202.52Z" fill="#276749"/>
<path opacity="0.1" d="M97.629 215.451C97.7405 215.58 97.8434 215.725 97.9506 215.854H100.219V218.604L100.953 219.409V215.838H104.383V221.611H102.973C103.11 221.744 103.243 221.885 103.401 222.014H129.489V215.451H97.629ZM108.548 221.611H105.117V215.862H108.548V221.611ZM112.703 221.611H109.272V215.862H112.703V221.611ZM116.859 221.611H113.428V215.862H116.859V221.611ZM121.01 221.611H117.579V215.862H121.01V221.611ZM125.162 221.611H121.731V215.862H125.162V221.611ZM129.317 221.611H125.886V215.862H129.317V221.611Z" fill="#276749"/>
<path opacity="0.1" d="M120.526 234.519C120.92 234.728 121.319 234.921 121.718 235.127V234.925H125.149V236.741C125.398 236.842 125.633 236.951 125.878 237.055V234.925H129.309V238.412C129.374 238.44 129.441 238.463 129.51 238.481V234.519H120.526Z" fill="#276749"/>
<path opacity="0.1" d="M377.184 253.268H377.613H377.184ZM349.622 192.809C349.703 193.066 349.776 193.324 349.849 193.578C349.785 193.324 349.708 193.066 349.622 192.809ZM144.572 74.1522V75.8674H163.729V74.1442L144.572 74.1522ZM377.189 253.268H377.618H377.189ZM349.622 192.809C349.703 193.066 349.776 193.324 349.849 193.578C349.785 193.324 349.708 193.066 349.622 192.809ZM377.184 253.268H377.613H377.184ZM349.622 192.809C349.703 193.066 349.776 193.324 349.849 193.578C349.785 193.324 349.708 193.066 349.622 192.809Z" fill="#276749"/>
<path opacity="0.1" d="M430.354 347.398C453.433 347.398 472.142 344.577 472.142 341.097C472.142 337.617 453.433 334.796 430.354 334.796C407.275 334.796 388.566 337.617 388.566 341.097C388.566 344.577 407.275 347.398 430.354 347.398Z" fill="#276749"/>
<path opacity="0.1" d="M241.888 341.097C264.967 341.097 283.676 338.276 283.676 334.796C283.676 331.316 264.967 328.495 241.888 328.495C218.809 328.495 200.1 331.316 200.1 334.796C200.1 338.276 218.809 341.097 241.888 341.097Z" fill="#276749"/>
<path d="M289.998 168.189C289.987 168.149 289.965 168.113 289.933 168.085C289.294 167.493 281.146 156.675 281.146 156.675C281.146 156.675 280.717 155.467 280.022 153.897C280.245 153.626 280.412 153.319 280.516 152.991C280.553 152.852 280.58 152.711 280.597 152.568C280.597 152.524 280.631 152.488 280.644 152.443C280.793 151.897 280.778 151.323 280.601 150.785C280.554 150.923 280.495 151.057 280.425 151.187C280.264 150.718 280.048 150.267 279.782 149.842C278.701 148.095 277.158 146.622 276.021 144.919C274.3 142.273 273.616 139.146 274.087 136.077C274.087 136.234 274.087 136.395 274.087 136.552C274.13 135.944 274.216 135.339 274.344 134.741C274.523 134.06 274.763 133.395 275.06 132.752C276.081 130.558 277.732 128.645 278.736 126.443C279.073 125.7 279.328 124.927 279.499 124.136C279.853 122.815 279.982 121.449 279.881 120.09C279.881 120.412 279.825 120.734 279.774 121.052C279.665 117.784 278.259 114.672 275.832 112.327C272.329 109.022 267.298 107.738 262.486 107.061C260.464 106.84 258.533 106.148 256.868 105.048C255.02 103.925 252.631 103.655 250.47 103.901C247.985 104.153 245.677 105.224 243.955 106.924C241.67 109.284 240.679 112.625 238.011 114.614C236.395 115.822 234.345 116.386 232.462 117.207C230.579 118.028 228.8 119.22 228.195 120.984C228.195 120.984 228.195 120.959 228.195 120.947V121.048L228.169 121.112C227.543 123.198 228.752 125.32 229.383 127.401C230.039 129.555 230.082 131.83 230.116 134.056C230.163 136.778 230.206 139.503 230.159 142.229C230.138 143.3 230.099 144.383 230.013 145.45C228.998 145.738 228.012 146.11 227.067 146.561C226.106 147.149 222.512 150.793 222.512 150.793L215.483 176.004L215.578 176.105L215.483 176.447L215.839 176.37C216.834 177.377 219.806 180.243 223.014 182.031L223.314 186.975C223.314 186.975 223.675 191.935 228.534 193.984C228.645 195.703 228.993 202.685 227.384 205.451C226.271 207.471 225.747 209.733 225.866 212.005C225.866 212.005 226.428 216.2 225.789 218.407C225.416 219.881 225.388 221.414 225.707 222.9V222.9C225.707 222.9 225.707 223.387 225.707 224.224C225.707 228.689 225.763 242.998 225.707 244.616C225.626 246.529 225.707 274.812 225.707 274.812C225.707 274.812 225.309 288.947 224.031 292.776C222.753 296.605 223.074 309.283 223.074 309.283C223.074 309.283 222.272 324.385 225.107 327.364C225.107 327.497 225.081 327.634 225.077 327.767C225.077 327.827 225.077 327.896 225.077 327.956C225.043 329.103 225.279 330.323 226.329 330.698C228.474 331.471 231.308 333.79 231.844 334.454C232.38 335.118 235.498 336.773 239.564 336.33C242.111 336.062 244.674 335.951 247.236 336V336C247.236 336 248.84 335.726 248.321 333.854C247.987 332.687 246.734 330.891 245.842 329.711C246.005 329.752 246.164 329.784 246.314 329.812L246.468 329.84H246.589C246.654 329.844 246.72 329.844 246.786 329.84H246.872C246.952 329.846 247.032 329.846 247.112 329.84V329.84C248.188 329.744 252.202 331.499 252.919 332.659C253.635 333.818 256.161 334.7 258.065 334.921C259.197 335.05 262.053 334.833 264.45 334.543C265.658 334.426 266.854 334.221 268.027 333.931C268.593 333.729 268.713 333.085 268.55 332.361C268.358 331.44 267.834 330.61 267.067 330.009C266.372 329.546 265.454 328.326 264.776 327.328L264.596 327.058C265.793 325.987 267.954 322.485 268.61 321.76C269.408 320.878 267.324 288.633 267.324 288.633V272.469L270.519 257.17L272.753 249.073L274.67 236.85C274.67 236.85 278.024 222.574 276.99 221.172C276.99 221.144 276.133 206.445 275.232 202.914C274.842 201.34 274.94 197.797 275.172 194.351C275.414 194.125 275.583 193.84 275.659 193.527C275.735 193.215 275.715 192.889 275.601 192.587C275.537 192.381 275.454 192.18 275.352 191.987C275.352 191.927 275.352 191.863 275.352 191.802C277.205 191.002 279.141 190.384 281.129 189.958C284.324 189.37 283.526 187.824 283.526 187.824C283.526 187.824 284.247 186.5 284.723 185.691C285.199 184.881 284.804 177.739 284.723 177.151C284.693 176.914 284.495 175.601 284.268 174.112C285.293 173.427 286.627 172.578 288.081 171.772C290.847 170.235 290.225 168.612 289.998 168.189ZM248.313 270.262C248.313 270.262 245.915 276.004 246.876 277.473C247.837 278.943 246.717 284.398 246.717 284.398L245.915 292.494C245.915 292.494 243.681 307.512 244.479 311.043C245.105 313.812 245.336 322.086 245.409 325.536C245.354 325.556 245.301 325.581 245.251 325.609L245.143 325.661C245.512 324.304 245.358 321.559 243.527 316.035L243.372 293.219C243.372 293.219 243.089 266.864 245.306 263.917C247.523 260.97 248.308 255.966 248.308 255.966C248.308 255.966 247.828 263.185 247.515 265.097C247.202 267.009 248.313 270.262 248.313 270.262ZM243.848 326.974C243.827 327.022 243.801 327.07 243.784 327.115L243.664 326.97C243.725 326.975 243.787 326.977 243.848 326.974V326.974Z" fill="url(#paint0_linear)"/>
<path d="M268.297 336.016C267.058 336.463 260.338 337.224 258.459 337.011C256.581 336.797 254.094 335.903 253.386 334.736C252.678 333.568 248.711 331.805 247.648 331.918C247.212 331.93 246.777 331.873 246.361 331.749C245.628 331.54 244.911 331.282 244.217 330.976C244.12 330.468 244.136 329.947 244.264 329.446C244.289 329.345 244.32 329.245 244.358 329.148C244.609 328.487 245.127 327.946 245.799 327.642L245.954 327.574C246.251 327.453 246.562 327.364 246.88 327.308C250.251 326.7 264.159 327.92 264.159 327.92C264.159 327.92 264.549 328.576 265.085 329.389C265.754 330.396 266.663 331.624 267.35 332.087C268.11 332.697 268.626 333.532 268.812 334.454C268.975 335.167 268.855 335.819 268.297 336.016Z" fill="white"/>
<path opacity="0.1" d="M268.297 336.016C267.058 336.463 260.342 337.224 258.464 337.011C256.585 336.797 254.098 335.899 253.386 334.736C252.674 333.572 248.716 331.805 247.652 331.918C246.589 332.03 244.221 330.976 244.221 330.976C244.221 330.976 243.852 329.365 244.925 328.266L247.069 329.695C247.069 329.695 252.807 331.366 253.871 332.916C254.934 334.466 256.873 335.332 259.673 335.489C261.766 335.618 266.573 334.853 268.825 334.47C268.975 335.167 268.859 335.819 268.297 336.016Z" fill="black"/>
<path d="M247.768 338.069C245.238 338.023 242.708 338.135 240.194 338.404C236.167 338.847 233.092 337.196 232.556 336.515C232.02 335.835 229.246 333.536 227.114 332.731C226.072 332.352 225.828 331.12 225.875 329.969C225.875 329.909 225.875 329.84 225.875 329.78C225.914 329.05 226.029 328.326 226.218 327.618L242.905 327.284L244.35 329.124L244.573 329.405L245.452 330.529C245.452 330.529 245.851 331.02 246.374 331.736C247.258 332.944 248.493 334.728 248.823 335.907C249.35 337.796 247.768 338.069 247.768 338.069Z" fill="white"/>
<path opacity="0.1" d="M247.768 338.069C245.238 338.023 242.708 338.135 240.194 338.404C236.172 338.847 233.092 337.196 232.561 336.515C232.029 335.835 229.246 333.516 227.114 332.739C226.072 332.36 225.828 331.128 225.875 329.977C227.067 330.239 229.571 330.907 230.554 332.071C231.84 333.625 234.143 336.238 237.415 336.403C240.057 336.536 246.49 336.093 248.849 335.915C249.355 337.796 247.768 338.069 247.768 338.069Z" fill="black"/>
<path opacity="0.1" d="M245.782 327.626C245.589 328.971 244.993 329.333 244.564 329.413C244.46 329.433 244.352 329.433 244.247 329.413C244.191 329.41 244.135 329.402 244.08 329.389C244.08 329.389 229.095 332.497 226.068 329.981C225.991 329.916 225.919 329.846 225.853 329.772C225.893 329.042 226.008 328.318 226.196 327.61L242.883 327.276L244.328 329.115C244.579 328.455 245.097 327.914 245.769 327.61L245.782 327.626Z" fill="black"/>
<path opacity="0.1" d="M265.081 329.373C264.746 329.719 264.468 329.917 264.292 329.848C263.503 329.55 257.036 328.516 254.981 329.405C252.927 330.295 245.975 329.55 245.975 329.55C245.975 329.55 245.975 328.777 245.937 327.537C246.234 327.417 246.545 327.328 246.863 327.272C250.234 326.664 264.142 327.884 264.142 327.884C264.142 327.884 264.549 328.56 265.081 329.373Z" fill="black"/>
<path d="M274.867 238.303L272.972 250.599L270.768 258.748L267.611 274.152V290.457C267.611 290.457 269.661 322.899 268.872 323.785C268.083 324.671 265.085 329.715 264.296 329.421C263.507 329.128 257.04 328.089 254.986 328.975C252.931 329.86 245.98 329.124 245.98 329.124C245.98 329.124 245.821 316.534 245.032 312.979C244.243 309.424 246.451 294.314 246.451 294.314L247.24 286.169C247.24 286.169 248.347 280.686 247.399 279.204C246.451 277.723 248.819 271.957 248.819 271.957C248.819 271.957 247.716 268.692 248.034 266.768C248.351 264.843 248.819 257.584 248.819 257.584C248.819 257.584 248.034 262.625 245.842 265.584C243.651 268.543 243.93 295.063 243.93 295.063L244.084 318.012C248.034 330.162 244.084 328.975 244.084 328.975C244.084 328.975 229.1 332.087 226.072 329.566C223.044 327.046 223.911 311.183 223.911 311.183C223.911 311.183 223.597 298.445 224.858 294.596C226.119 290.747 226.518 276.523 226.518 276.523C226.518 276.523 226.437 248.079 226.518 246.158C226.578 244.548 226.518 230.13 226.518 225.625C226.518 224.788 226.518 224.293 226.518 224.293L228.328 220.073L249.771 217.553H260.029C260.029 217.553 275.468 220.959 277.063 222.429C277.097 222.453 277.126 222.483 277.149 222.517C278.183 223.938 274.867 238.303 274.867 238.303Z" fill="#276749"/>
<path opacity="0.1" d="M248.831 302.89C248.831 302.89 253.549 313.555 255.775 314.296C258 315.036 248.831 302.89 248.831 302.89Z" fill="black"/>
<path opacity="0.1" d="M250.577 318.591C250.577 318.591 266.505 319.332 266.346 320.963C266.187 322.593 250.577 318.591 250.577 318.591Z" fill="black"/>
<path opacity="0.1" d="M229.267 314.328C229.897 314.887 241.417 315.938 240.469 316.961C239.521 317.983 230.215 319.972 230.215 319.972L229.267 314.328Z" fill="black"/>
<path opacity="0.1" d="M227.376 295.929C227.376 296.371 229.743 310.149 230.378 310.74C231.012 311.332 236.214 311.924 236.214 311.924L227.376 295.929Z" fill="black"/>
<path d="M244.552 107.613C242.291 109.984 241.314 113.346 238.68 115.351C237.081 116.559 235.057 117.135 233.195 117.956C231.334 118.777 229.49 120.029 228.937 121.889C228.319 123.983 229.511 126.121 230.138 128.214C230.785 130.38 230.824 132.643 230.862 134.91C230.905 137.651 230.952 140.393 230.901 143.135C230.824 147.407 230.446 151.876 228.032 155.495C236.751 158.1 246.022 158.454 255.166 158.788C256.923 158.906 258.688 158.864 260.436 158.664C261.952 158.38 263.45 158.024 264.927 157.597C267.845 156.872 270.853 156.51 273.873 156.522C275.189 156.522 276.531 156.598 277.801 156.276C279.07 155.954 280.293 155.129 280.636 153.937C280.94 152.866 280.494 151.727 279.911 150.764C278.847 149.009 277.338 147.544 276.197 145.812C275.032 143.984 274.342 141.924 274.18 139.799C274.018 137.674 274.39 135.543 275.266 133.577C276.278 131.367 277.908 129.442 278.903 127.228C279.922 124.85 280.193 122.248 279.684 119.731C279.175 117.213 277.906 114.885 276.03 113.024C272.569 109.698 267.603 108.41 262.851 107.726C260.85 107.504 258.941 106.811 257.301 105.713C255.479 104.585 253.116 104.312 250.98 104.561C248.516 104.82 246.234 105.904 244.552 107.613Z" fill="#3F3D56"/>
<g opacity="0.1">
<path opacity="0.1" d="M275.399 131.254C274.525 133.194 274.15 135.3 274.306 137.402C274.402 135.899 274.772 134.423 275.399 133.038C276.407 130.827 278.037 128.903 279.032 126.688C279.845 124.839 280.187 122.838 280.031 120.843C279.943 122.241 279.605 123.616 279.032 124.909C278.037 127.123 276.407 129.044 275.399 131.254Z" fill="black"/>
<path opacity="0.1" d="M230.991 134.362C231.017 135.94 231.042 137.523 231.047 139.101C231.047 136.927 231.025 134.757 230.991 132.587C230.957 130.336 230.914 128.057 230.266 125.887C229.837 124.51 229.203 123.113 228.98 121.724C228.598 123.697 229.683 125.698 230.266 127.667C230.914 129.817 230.957 132.112 230.991 134.362Z" fill="black"/>
<path opacity="0.1" d="M277.947 153.973C276.66 154.299 275.339 154.227 274.023 154.219C271.006 154.201 267.999 154.555 265.081 155.274C263.604 155.699 262.106 156.054 260.591 156.336C258.841 156.54 257.074 156.584 255.316 156.465C246.481 156.139 237.523 155.789 229.061 153.418C228.81 153.944 228.523 154.455 228.203 154.948C236.922 157.548 246.194 157.907 255.333 158.241C257.092 158.359 258.858 158.316 260.608 158.112C262.117 157.832 263.611 157.479 265.081 157.053C267.993 156.332 270.994 155.974 274.005 155.986C275.322 155.986 276.66 156.063 277.93 155.737C279.199 155.411 280.421 154.593 280.764 153.401C280.909 152.85 280.894 152.271 280.721 151.727C280.34 152.854 279.16 153.639 277.947 153.973Z" fill="black"/>
</g>
<path d="M265.244 149.202C264.927 149.871 263.588 155.644 263.271 156.236C262.954 156.828 261.221 166.301 261.063 166.832C260.904 167.364 249.642 164.61 249.642 164.61L242.862 159.276L235.893 152.765C235.893 152.765 235.687 146.891 240.82 145.007C241.169 144.879 241.528 144.774 241.893 144.693C248.12 143.288 247.493 125.513 247.493 125.513L260.273 130.694C260.273 130.694 257.906 141.066 257.988 143.067C258.009 143.739 258.571 144.158 259.304 144.411C260.438 144.714 261.618 144.834 262.795 144.766C262.795 144.766 265.561 148.538 265.244 149.202Z" fill="#FBBEBE"/>
<path d="M288.123 168.68L289.938 169.127C289.938 169.127 291.28 171.044 288.123 172.827C286.119 173.97 284.195 175.233 282.364 176.608L273.036 179.273L271.239 173.979L279.919 167.795L288.123 168.68Z" fill="#276749"/>
<path opacity="0.1" d="M288.123 168.68L289.938 169.127C289.938 169.127 291.28 171.044 288.123 172.827C286.119 173.97 284.195 175.233 282.364 176.608L273.036 179.273L271.239 173.979L279.919 167.795L288.123 168.68Z" fill="black"/>
<path d="M220.051 173.794L216.423 177.127C216.423 177.127 222.967 184.237 228.002 184.68C233.037 185.123 236.283 179.273 236.283 179.273L231.926 172.831L220.051 173.794Z" fill="#276749"/>
<path opacity="0.1" d="M220.051 173.794L216.423 177.127C216.423 177.127 222.967 184.237 228.002 184.68C233.037 185.123 236.283 179.273 236.283 179.273L231.926 172.831L220.051 173.794Z" fill="black"/>
<path opacity="0.1" d="M254.514 137.128C261.484 137.128 267.135 131.823 267.135 125.279C267.135 118.735 261.484 113.431 254.514 113.431C247.543 113.431 241.893 118.735 241.893 125.279C241.893 131.823 247.543 137.128 254.514 137.128Z" fill="black"/>
<path d="M254.514 136.238C261.484 136.238 267.135 130.933 267.135 124.39C267.135 117.846 261.484 112.541 254.514 112.541C247.543 112.541 241.893 117.846 241.893 124.39C241.893 130.933 247.543 136.238 254.514 136.238Z" fill="#FBBEBE"/>
<path opacity="0.1" d="M277.158 223.862C274.284 224.171 271.453 224.766 268.713 225.637C263.996 227.111 227.028 225.661 226.514 225.637C226.514 224.8 226.514 224.305 226.514 224.305L228.324 220.085L249.766 217.565H260.025C260.025 217.565 275.464 220.971 277.059 222.441C277.123 223.326 277.158 223.862 277.158 223.862Z" fill="black"/>
<path opacity="0.1" d="M265.244 149.202C264.927 149.871 263.588 155.644 263.271 156.236C262.954 156.828 261.221 166.301 261.063 166.832C260.904 167.364 249.642 164.61 249.642 164.61L242.862 159.276L235.893 152.765C235.893 152.765 235.687 146.891 240.82 145.007L253.566 158.764L259.304 144.411C260.438 144.714 261.618 144.834 262.795 144.766C262.795 144.766 265.561 148.538 265.244 149.202Z" fill="black"/>
<path d="M253.566 159.207L240.52 145.116C239.757 144.658 238.884 144.386 237.98 144.323C237.077 144.261 236.171 144.41 235.344 144.758C232.423 145.945 228.795 146.907 227.847 147.499C226.9 148.091 223.349 151.755 223.349 151.755L233.924 177.727L229.267 194.834C229.267 194.834 229.979 203.574 228.165 206.759C227.06 208.795 226.543 211.068 226.664 213.35C226.664 213.35 227.217 217.573 226.587 219.791C226.218 221.275 226.19 222.815 226.505 224.309C226.505 224.309 263.983 225.79 268.713 224.309C271.452 223.435 274.283 222.839 277.158 222.533C277.158 222.533 276.3 207.717 275.442 204.162C274.584 200.607 276.154 187.055 276.154 187.055L275.129 172.537L281.279 157.641C281.279 157.641 277.947 148.091 274.473 147.129C274.473 147.129 268.164 145.72 266.822 145.055C265.48 144.391 261.534 143.795 261.534 143.795L259.463 144.448L253.566 159.207Z" fill="#276749"/>
<path opacity="0.1" d="M271.768 172.047L244.316 170.295C243.621 170.25 243.019 170.743 242.972 171.395L240.025 212.086C239.978 212.738 240.503 213.302 241.197 213.347L268.65 215.099C269.344 215.144 269.946 214.651 269.993 213.999L272.94 173.308C272.987 172.656 272.463 172.092 271.768 172.047Z" fill="black"/>
<path d="M272.713 171.164L245.261 169.411C244.566 169.367 243.965 169.86 243.917 170.512L240.97 211.202C240.923 211.854 241.448 212.419 242.143 212.463L269.595 214.216C270.29 214.26 270.891 213.767 270.938 213.115L273.885 172.425C273.933 171.773 273.408 171.208 272.713 171.164Z" fill="#3F3D56"/>
<path d="M271.807 174.353L245.699 172.686L243.015 209.729L269.124 211.396L271.807 174.353Z" fill="white"/>
<path opacity="0.1" d="M269.466 183.808L248.139 182.407L247.723 187.987L269.05 189.388L269.466 183.808Z" fill="black"/>
<path opacity="0.1" d="M268.694 205.983L265.31 205.767L265.099 208.675L268.484 208.891L268.694 205.983Z" fill="black"/>
<path opacity="0.1" d="M265.356 198.965L248.032 197.859L247.821 200.767L265.145 201.873L265.356 198.965Z" fill="black"/>
<path d="M268.576 172.968L250.537 171.817L250.213 176.287L268.252 177.439L268.576 172.968Z" fill="#3F3D56"/>
<path opacity="0.1" d="M268.576 172.968L250.537 171.817L250.213 176.287L268.252 177.439L268.576 172.968Z" fill="black"/>
<path opacity="0.1" d="M255.144 223.045C255.144 223.045 254.986 244.971 248.831 257.56C248.831 257.56 256.251 240.969 256.251 240.304C256.251 239.64 260.351 232.675 259.253 230.601C258.155 228.528 255.144 223.045 255.144 223.045Z" fill="black"/>
<path opacity="0.1" d="M255.479 121.426C255.243 119.486 255.749 117.53 256.907 115.907C256.769 117.533 257.259 119.152 258.287 120.468C259.316 121.784 260.814 122.708 262.508 123.073C262.363 122.955 262.26 122.799 262.212 122.625C262.164 122.451 262.173 122.268 262.238 122.099C263.117 123.033 263.79 124.14 264.785 124.961C265.78 125.783 267.272 126.274 268.443 125.69C270.034 124.885 270.051 122.763 269.64 121.112C268.756 117.597 266.943 114.347 264.369 111.663C263.727 110.852 262.893 110.191 261.933 109.733C260.973 109.275 259.913 109.031 258.837 109.022C256.401 108.845 253.871 109.046 251.688 110.073C250.459 110.702 249.309 111.457 248.257 112.323L242.253 116.921C241.675 117.312 241.181 117.801 240.795 118.363C240.537 118.832 240.382 119.346 240.34 119.872C240.187 121.378 240.483 122.894 241.197 124.25C241.911 125.607 243.013 126.749 244.38 127.55C244.351 126.36 244.7 125.189 245.382 124.185C246.064 123.181 247.048 122.391 248.21 121.914C248.392 122.056 248.539 122.234 248.642 122.435C248.745 122.635 248.8 122.854 248.806 123.077L250.071 120.959C250.259 120.574 250.556 120.244 250.929 120.005C251.709 119.603 252.683 120.078 253.347 120.645C254.012 121.213 254.66 121.922 255.552 122.01L255.586 118.858" fill="black"/>
<path d="M255.479 120.984C255.242 119.042 255.749 117.084 256.907 115.46C256.521 118.681 259.107 122.006 262.512 122.626C262.367 122.509 262.264 122.354 262.216 122.181C262.167 122.007 262.177 121.824 262.242 121.656C263.121 122.59 263.794 123.693 264.789 124.518C265.784 125.344 267.277 125.831 268.447 125.243C270.039 124.438 270.056 122.316 269.644 120.67C268.761 117.154 266.948 113.904 264.373 111.22C263.575 110.306 262.568 109.572 261.427 109.07C260.601 108.784 259.733 108.618 258.854 108.579C256.418 108.402 253.888 108.599 251.705 109.626C250.477 110.258 249.327 111.014 248.274 111.881L242.27 116.478C241.691 116.868 241.197 117.357 240.812 117.92C240.554 118.389 240.399 118.903 240.357 119.429C240.204 120.935 240.501 122.45 241.215 123.806C241.928 125.161 243.03 126.303 244.397 127.103C244.369 125.913 244.718 124.742 245.4 123.739C246.082 122.736 247.066 121.945 248.227 121.467C248.408 121.61 248.555 121.788 248.658 121.988C248.761 122.189 248.817 122.408 248.823 122.63L250.084 120.521C250.271 120.135 250.568 119.804 250.941 119.566C251.722 119.164 252.696 119.639 253.36 120.207C254.025 120.774 254.673 121.479 255.565 121.571L255.599 118.415" fill="#3F3D56"/>
<path d="M261.457 195.72C260.355 195.196 242.128 197.865 242.128 197.865C242.128 197.865 239.126 197.06 231.87 195.941C224.614 194.822 224.151 188.163 224.151 188.163L223.357 174.832L225.806 172.819L236.296 179.261C236.296 179.261 236.459 182.518 236.296 183.106C236.193 183.508 235.919 183.988 235.944 184.314C235.952 184.402 235.991 184.485 236.055 184.551C236.118 184.616 236.203 184.66 236.296 184.676C237.008 184.845 246.709 186.319 246.709 186.319C246.709 186.319 269.194 184.873 274.799 191.983C275.243 192.505 275.579 193.101 275.789 193.739C277.179 198.598 262.456 196.183 261.457 195.72Z" fill="#FBBEBE"/>
<path opacity="0.1" d="M275.802 193.767C274.945 194.125 274.413 194.383 274.413 194.383C274.413 194.383 266.368 194.161 261.847 192.624C257.327 191.086 251.834 191.359 251.834 191.359C251.834 191.359 232.998 188.316 235.919 184.342C235.927 184.43 235.965 184.514 236.029 184.579C236.092 184.645 236.177 184.689 236.27 184.704C236.982 184.873 246.683 186.347 246.683 186.347C246.683 186.347 269.168 184.902 274.773 192.012C275.231 192.531 275.58 193.126 275.802 193.767V193.767Z" fill="black"/>
<path d="M283.625 170.311C283.625 170.311 284.731 177.642 284.808 178.238C284.886 178.834 285.284 186.013 284.808 186.83C284.332 187.647 283.625 188.976 283.625 188.976C283.625 188.976 284.414 190.53 281.257 191.126C278.101 191.722 274.396 193.493 274.396 193.493C274.396 193.493 266.346 193.272 261.852 191.718C257.357 190.164 251.833 190.457 251.833 190.457C251.833 190.457 227.925 186.605 238.183 181.902C248.441 177.2 255.698 183.569 255.698 183.569L267.135 182.905C267.135 182.905 271.398 180.457 272.582 180.682C273.417 180.782 274.266 180.653 275.026 180.312L275.108 172.533L283.625 170.311Z" fill="#FBBEBE"/>
<path opacity="0.1" d="M225.626 152.314L223.336 152.202L216.397 177.566C216.397 177.566 223.889 175.786 227.118 177.566C230.348 179.346 236.27 179.712 236.27 179.712L234.062 159.493L225.626 152.314Z" fill="black"/>
<path d="M225.626 151.868L223.336 151.755L216.397 177.119C216.397 177.119 223.889 175.34 227.118 177.119C230.348 178.899 236.27 179.265 236.27 179.265L234.062 159.046L225.626 151.868Z" fill="#276749"/>
<path opacity="0.1" d="M278.105 157.424L281.257 158.092C281.257 158.092 289.307 168.962 289.938 169.57C290.568 170.178 286.936 172.388 285.439 172.388C283.942 172.388 276.604 173.194 274.473 175.054C272.342 176.914 273.229 167.553 273.229 167.34C273.229 167.126 275.875 161.22 275.875 161.22L278.105 157.424Z" fill="black"/>
<path d="M278.105 156.981L281.257 157.645C281.257 157.645 289.307 168.536 289.938 169.127C290.568 169.719 286.936 171.946 285.439 171.946C283.942 171.946 276.604 172.751 274.473 174.611C272.342 176.471 273.229 167.11 273.229 166.897C273.229 166.684 275.892 160.757 275.892 160.757L278.105 156.981Z" fill="#276749"/>
<g opacity="0.1">
<path opacity="0.1" d="M256.885 115.496C256.867 115.187 256.874 114.878 256.907 114.57C256.254 115.49 255.805 116.524 255.586 117.61V118.544C255.586 118.544 255.586 118.524 255.586 118.512V118.733C255.586 119.385 255.586 120.041 255.565 120.694H255.505V120.996C255.505 120.891 255.505 120.79 255.483 120.686C254.625 120.557 254.012 119.88 253.373 119.341C252.734 118.801 251.735 118.286 250.954 118.701C250.58 118.939 250.284 119.269 250.097 119.655L248.823 121.765C248.817 121.543 248.761 121.324 248.658 121.124C248.556 120.924 248.408 120.747 248.227 120.605C247.065 121.082 246.081 121.873 245.399 122.877C244.717 123.88 244.368 125.051 244.397 126.242C243.225 125.552 242.245 124.611 241.537 123.496C240.83 122.381 240.415 121.124 240.327 119.828C240.253 121.275 240.591 122.714 241.306 123.997C242.021 125.28 243.088 126.36 244.397 127.127C244.369 125.937 244.718 124.767 245.4 123.763C246.082 122.76 247.066 121.969 248.227 121.491C248.408 121.634 248.555 121.812 248.658 122.013C248.761 122.213 248.817 122.432 248.823 122.654L250.084 120.545C250.271 120.159 250.568 119.829 250.941 119.591C251.722 119.188 252.696 119.663 253.36 120.231C254.025 120.798 254.673 121.503 255.565 121.595C255.565 120.565 255.576 119.537 255.599 118.512C255.809 117.436 256.247 116.411 256.885 115.496V115.496Z" fill="black"/>
<path opacity="0.1" d="M255.436 119.55C255.457 119.276 255.492 119.003 255.535 118.745L255.582 117.634C255.453 118.265 255.404 118.908 255.436 119.55Z" fill="black"/>
<path opacity="0.1" d="M268.447 124.353C267.277 124.941 265.784 124.45 264.789 123.629C263.794 122.807 263.121 121.7 262.242 120.766C262.177 120.935 262.168 121.119 262.216 121.293C262.264 121.467 262.368 121.623 262.512 121.74C262.426 121.74 262.345 121.7 262.263 121.68C263.121 122.606 263.803 123.693 264.789 124.498C265.776 125.304 267.277 125.811 268.447 125.223C269.618 124.635 269.953 123.258 269.85 121.918C269.773 122.972 269.369 123.886 268.447 124.353Z" fill="black"/>
<path opacity="0.1" d="M262.238 121.672C260.803 121.305 259.523 120.535 258.568 119.466C257.613 118.397 257.029 117.079 256.894 115.689C256.65 118.85 259.188 122.018 262.512 122.626C262.371 122.511 262.269 122.358 262.22 122.188C262.171 122.018 262.177 121.839 262.238 121.672V121.672Z" fill="black"/>
</g>
<path d="M468.192 187.474C468.192 187.474 466.503 187.253 466.503 184.946C466.503 182.639 465.293 178.319 465.293 178.319C465.293 178.319 464.247 170.802 462.802 169.61C461.356 168.419 459.499 161.421 459.499 161.421C459.499 161.421 459.182 157.625 458.535 156.808C457.887 155.99 457.012 153.989 455.721 151.135C454.43 148.28 449.061 146.324 449.061 146.324C449.061 146.324 439.33 141.025 436.573 139.298C436.321 139.155 436.085 138.988 435.869 138.799C435.389 138.211 433.296 138.199 433.296 138.199C433.078 136.899 432.867 135.409 432.799 134.06C432.799 133.915 432.799 133.77 432.799 133.625C435.874 131.919 438.19 129.229 439.322 126.048C439.373 125.895 439.416 125.738 439.463 125.581C439.651 125.527 439.825 125.435 439.973 125.313C440.121 125.191 440.239 125.041 440.321 124.873C440.565 124.353 440.574 123.749 440.883 123.262C441.243 122.691 441.929 122.385 442.47 121.958C443.833 120.867 444.185 119.035 444.121 117.372C444.078 116.019 443.846 114.659 443.936 113.318C443.936 113.205 443.936 113.092 443.962 112.98C443.988 112.782 444.018 112.577 444.056 112.384C444.266 111.385 444.725 110.443 444.983 109.453C445.24 108.462 445.266 107.347 444.665 106.494C443.786 105.242 441.955 104.992 440.347 104.883C438.524 104.738 436.916 104.924 435.728 103.502C435.183 102.76 434.569 102.065 433.892 101.425C433.652 101.216 431.319 99.8748 431.319 99.7903C429.037 98.7939 426.447 98.6066 424.029 99.2629C422.815 99.593 421.678 100.133 420.448 100.402C417.806 100.99 414.761 100.354 412.514 101.775C411.262 102.58 410.511 103.865 409.808 105.109C409.236 106.134 408.655 107.161 408.067 108.189C407.114 109.876 406.154 111.591 405.755 113.459C405.672 113.867 405.619 114.28 405.596 114.695V114.695C405.596 114.844 405.596 114.993 405.596 115.142C405.596 115.206 405.596 115.271 405.596 115.335C405.596 115.472 405.596 115.609 405.622 115.738C405.648 115.866 405.622 115.903 405.652 115.987C405.682 116.072 405.691 116.261 405.716 116.39C405.742 116.519 405.794 116.748 405.845 116.921C405.845 116.998 405.896 117.07 405.922 117.147C405.948 117.223 406.017 117.416 406.072 117.549C406.128 117.682 406.132 117.69 406.167 117.759C406.231 117.9 406.308 118.036 406.385 118.161C406.42 118.214 406.445 118.266 406.48 118.318C406.597 118.507 406.729 118.687 406.874 118.858C407.788 119.933 409.143 120.617 410.142 121.624C410.142 121.664 410.142 121.704 410.142 121.744C410.142 121.853 410.142 121.962 410.142 122.075C410.203 124.32 410.848 126.517 412.02 128.474C413.192 130.432 414.856 132.091 416.867 133.307C416.867 133.46 416.888 133.617 416.897 133.774C416.98 134.968 416.965 136.166 416.85 137.358C416.675 137.165 416.456 137.011 416.209 136.908C415.963 136.805 415.695 136.755 415.426 136.762C415.241 136.753 415.057 136.768 414.877 136.806L414.838 136.778V136.814C413.895 137.031 412.733 137.953 411.622 140.574C411.622 140.574 408.242 144.15 405.669 144.001C403.096 143.852 396.582 147.725 396.582 147.725C396.582 147.725 390.226 151.594 388.862 155.539C388.1 157.777 387.185 159.967 386.122 162.094L378.244 177.28L376.798 189.358C376.798 189.358 377.6 194.717 377.442 195.538C377.283 196.36 380.74 203.727 380.74 203.727C380.74 203.727 392.16 222.561 396.826 223.528L397.161 223.31C397.361 223.405 397.573 223.478 397.791 223.528L398.752 222.896C398.811 223.603 398.785 224.315 398.675 225.017C398.036 226.881 398.919 239.016 400.043 241.395C401.166 243.775 400.767 274.977 400.767 274.977L400.609 277.727C400.609 277.727 400.609 277.815 400.647 277.968L400.609 278.621L400.724 278.677C400.845 279.552 400.805 280.439 400.609 281.302C400.206 282.51 400.043 285.92 400.043 285.92C400.043 285.92 396.826 305.197 398.353 309.07C399.88 312.943 401.171 317.186 401.171 317.186C401.171 317.186 402.779 322.018 401.248 322.823C399.717 323.628 395.381 325.057 396.264 327.066C397.079 328.926 400.171 333.911 400.63 334.639L400.592 335.042L399.961 341.455C400.063 342.302 400.308 343.129 400.686 343.903C401.376 345.304 402.714 346.75 405.27 346.593C405.699 346.565 406.192 346.52 406.677 346.46C411.347 345.868 417.094 343.911 417.094 343.911C416.796 343.734 416.524 343.522 416.283 343.279V343.279C416.054 343.071 415.872 342.82 415.749 342.543C415.626 342.266 415.564 341.969 415.567 341.669C415.636 340.497 413.307 334.937 412.724 333.564L412.591 333.258C412.591 333.258 417.9 328.045 417.017 323.431C417.017 323.431 411.141 320.21 413.076 318.438C415.01 316.667 418.466 311.594 418.466 311.594C418.466 311.594 418.625 292.611 418.466 289.781C418.301 287.812 418.4 285.832 418.762 283.887C418.827 283.597 418.904 283.311 418.985 283.025C421.662 283.404 424.366 283.597 427.074 283.601C428.063 283.601 429.063 283.582 430.076 283.544C430.076 283.813 430.088 284.103 430.114 284.414C430.337 289.116 430.753 297.366 431.092 300.43C431.572 304.818 434.227 316.659 434.227 316.659C434.227 316.659 429.162 319.707 435.11 327.231C435.11 327.231 435.11 329.953 434.716 330.352C434.294 331.643 433.955 332.956 433.699 334.285C433.451 335.698 433.348 337.136 433.751 337.876C434.716 339.656 440.505 339.511 440.505 339.511C440.552 339.501 440.599 339.494 440.647 339.491C441.74 339.382 442.845 339.48 443.897 339.777C444.949 340.074 445.928 340.565 446.775 341.222C448.975 342.881 457.321 342.156 461.845 341.625C463.617 341.411 464.8 341.222 464.8 341.222C464.857 341.034 464.877 340.837 464.86 340.642V340.642C464.813 339.599 463.942 337.313 458.041 335.271C458.041 335.271 452.492 331.769 452.569 328.717H452.445H451.806C452.209 328.705 452.492 328.705 452.492 328.705C452.492 328.705 450.318 321.261 451.205 320.653C452.093 320.045 449.434 311.795 449.434 311.795C449.434 311.795 447.912 297.946 447.826 296.979C447.832 296.147 447.967 295.319 448.229 294.524L447.826 286.926C447.826 286.926 447.749 284.402 447.826 283.581C447.817 282.868 447.757 282.156 447.646 281.451C447.607 281.169 447.569 280.875 447.526 280.585C449.606 280.09 450.957 279.635 450.957 279.635L450.716 253.204C452.483 249.983 452.809 242.913 452.801 237.905C452.801 234.684 452.646 232.301 452.646 232.301L455.061 228.601C455.061 228.601 455.618 224.172 454.735 223.202C454.345 222.763 454.52 222.308 454.842 221.933C455.011 221.803 455.19 221.685 455.378 221.579C455.357 221.551 455.338 221.521 455.322 221.491C455.491 221.358 455.67 221.238 455.858 221.132C455.858 221.132 455.001 219.884 455.768 219.357C456.489 219.816 457.132 220.182 457.621 220.444C457.587 220.738 457.552 220.907 457.552 220.907L457.758 220.504C458.23 220.754 458.517 220.907 458.517 220.907C458.517 220.907 462.3 213.833 462.218 212.794C462.137 211.755 464.792 207.359 464.792 207.359C464.792 207.359 465.113 205.048 466.563 204.082C468.012 203.116 467.686 196.114 467.686 196.114C467.686 196.114 468.09 192.467 469.054 190.981C470.019 189.495 468.192 187.474 468.192 187.474ZM395.818 184.37L395.891 186.057C395.462 185.409 395.154 184.946 395.154 184.946L395.818 184.37Z" fill="url(#paint1_linear)"/>
<path d="M458.74 217.847L457.814 221.551C457.814 221.551 450.395 217.988 449.061 213.479C447.727 208.969 451.295 207.25 451.295 207.25L458.213 209.996L458.74 217.847Z" fill="white"/>
<path opacity="0.1" d="M458.74 217.847L457.814 221.551C457.814 221.551 450.395 217.988 449.061 213.479C447.727 208.969 451.295 207.25 451.295 207.25L458.213 209.996L458.74 217.847Z" fill="black"/>
<path d="M417.103 343.907C417.103 343.907 410.241 346.275 405.523 346.573C403.019 346.73 401.702 345.288 401.025 343.899C400.656 343.133 400.416 342.318 400.313 341.484L400.935 335.102L401.261 331.708L411.283 329.26L412.702 333.339L412.835 333.645C413.402 335.01 415.692 340.542 415.623 341.697C415.618 341.996 415.677 342.293 415.797 342.569C415.917 342.846 416.096 343.097 416.322 343.307C416.554 343.538 416.816 343.739 417.103 343.907V343.907Z" fill="white"/>
<path d="M463.951 340.662C463.969 340.857 463.948 341.054 463.891 341.242C463.891 341.242 449.215 343.537 446.213 341.242C445.37 340.572 444.386 340.074 443.326 339.781C442.265 339.487 441.151 339.405 440.055 339.539C440.055 339.539 434.377 339.684 433.429 337.929C433.035 337.192 433.138 335.763 433.382 334.357C433.632 333.036 433.964 331.729 434.377 330.444L434.604 330.275L435.955 329.256L451.771 328.818H451.892C451.814 331.853 457.257 335.336 457.257 335.336C463.05 337.349 463.904 339.624 463.951 340.662Z" fill="white"/>
<path opacity="0.1" d="M463.955 340.662C463.971 340.858 463.949 341.054 463.891 341.242C463.891 341.242 449.216 343.537 446.218 341.242C445.373 340.571 444.389 340.073 443.328 339.78C442.267 339.487 441.152 339.405 440.055 339.539C440.055 339.539 434.373 339.684 433.425 337.929C433.035 337.192 433.133 335.763 433.378 334.353C435.565 334.559 439.017 335.07 440.372 336.294C442.422 338.146 445.896 339.998 448.023 340.147C449.704 340.244 459.701 340.541 463.955 340.662Z" fill="black"/>
<path opacity="0.1" d="M417.103 343.907C417.103 343.907 410.241 346.275 405.523 346.573C403.019 346.73 401.702 345.288 401.025 343.899C402.774 344.451 405.197 345.027 406.471 344.499C407.981 343.867 413.333 343.464 416.335 343.291C416.561 343.527 416.819 343.734 417.103 343.907V343.907Z" fill="black"/>
<path d="M427.284 153.116C421.623 151.05 414.341 144.226 416.159 141.037C416.561 140.232 416.801 139.364 416.867 138.477C416.984 137.272 417.001 136.061 416.918 134.853C416.79 132.875 416.537 130.905 416.159 128.955C416.159 128.955 433.832 129.33 432.803 131.773C432.503 132.494 432.451 133.738 432.537 135.127C432.623 136.516 432.833 138.098 433.056 139.431C433.361 141.255 433.674 142.652 433.674 142.652C433.674 142.652 432.589 144.073 431.958 144.15C431.328 144.226 435.406 156.075 427.284 153.116Z" fill="#FBBEBE"/>
<path opacity="0.1" d="M412.818 333.625L412.685 333.762C407.402 327.763 401.012 335.243 401.012 335.243L400.917 335.082L401.243 331.688L411.266 329.24L412.685 333.319L412.818 333.625Z" fill="black"/>
<path opacity="0.1" d="M451.9 329.24C451.9 329.24 448.04 329.168 445.982 330.875C443.923 332.582 433.974 331.241 434.403 330.875C434.528 330.689 434.604 330.478 434.626 330.259L435.977 329.24L451.793 328.801C451.853 329.083 451.9 329.24 451.9 329.24Z" fill="black"/>
<path d="M419.393 282.131C419.106 282.799 418.888 283.49 418.741 284.197C418.383 286.131 418.284 288.101 418.445 290.059C418.604 292.877 418.445 311.763 418.445 311.763C418.445 311.763 415.053 316.8 413.157 318.575C411.262 320.351 417.017 323.539 417.017 323.539C417.875 328.133 412.677 333.319 412.677 333.319C407.393 327.32 401.003 334.796 401.003 334.796C401.003 334.796 397.529 329.16 396.663 327.147C395.797 325.134 400.055 323.745 401.552 322.923C403.049 322.102 401.475 317.287 401.475 317.287C401.475 317.287 400.214 313.064 398.713 309.211C397.212 305.358 400.369 286.181 400.369 286.181C400.369 286.181 400.531 282.771 400.922 281.584C401.117 280.726 401.156 279.844 401.038 278.975C401.012 278.681 400.982 278.439 400.96 278.27C400.939 278.101 400.922 278.029 400.922 278.029L400.982 277.932L403.126 274.18C403.126 274.18 420.422 279.768 419.393 282.131Z" fill="#276749"/>
<path d="M451.9 328.797C451.9 328.797 448.04 328.721 445.982 330.408C443.923 332.095 433.974 330.778 434.403 330.408C434.832 330.037 434.793 327.3 434.793 327.3C428.956 319.815 433.935 316.78 433.935 316.78C433.935 316.78 431.332 305.003 430.86 300.635C430.53 297.587 430.123 289.362 429.904 284.704C429.81 282.691 429.754 281.302 429.754 281.302L434.48 280.42L435.093 280.307L446.595 278.137C446.595 278.137 446.912 280.15 447.127 281.797C447.235 282.5 447.294 283.209 447.303 283.919C447.23 284.724 447.303 287.248 447.303 287.248L447.697 294.801C447.443 295.594 447.31 296.417 447.303 297.245C447.384 298.211 448.881 311.985 448.881 311.985C448.881 311.985 451.484 320.206 450.596 320.798C449.709 321.389 451.9 328.797 451.9 328.797Z" fill="#276749"/>
<path opacity="0.1" d="M432.803 131.786C432.503 132.506 432.451 133.75 432.537 135.139C430.17 136.477 427.449 137.162 424.686 137.113C421.923 137.065 419.231 136.286 416.918 134.865C416.79 132.887 416.537 130.917 416.159 128.967C416.159 128.967 433.832 129.342 432.803 131.786Z" fill="black"/>
<path d="M439.626 122.896C439.673 126.549 438.172 130.069 435.453 132.683C432.735 135.297 429.022 136.79 425.131 136.834C421.24 136.878 417.49 135.469 414.705 132.917C411.921 130.365 410.33 126.879 410.284 123.226C410.284 123.113 410.284 123.009 410.284 122.896C410.284 119.242 411.83 115.738 414.582 113.154C417.334 110.57 421.067 109.119 424.959 109.119C428.851 109.119 432.584 110.57 435.336 113.154C438.089 115.738 439.635 119.242 439.635 122.896H439.626Z" fill="#FBBEBE"/>
<path opacity="0.1" d="M427.284 153.116C421.623 151.05 414.341 144.226 416.159 141.037C416.561 140.232 416.801 139.364 416.867 138.477L424.616 144.46L429.411 148.151L433.056 139.443C433.361 141.267 433.674 142.664 433.674 142.664C433.674 142.664 432.589 144.085 431.958 144.162C431.328 144.238 435.406 156.075 427.284 153.116Z" fill="black"/>
<path d="M447.324 179.555L440.853 281.616L432.413 282.135L410.554 222.956L414.139 152.697L414.898 137.853L424.616 145.345L429.411 149.037L433.163 140.071L440.141 145.78L447.324 179.555Z" fill="#276749"/>
<path opacity="0.1" d="M419.393 282.131C419.106 282.799 418.888 283.49 418.741 284.197C412.594 283.308 406.623 281.559 401.029 279.007L400.913 278.951L400.952 278.302V277.964L403.096 274.212C403.096 274.212 420.422 279.768 419.393 282.131Z" fill="black"/>
<path opacity="0.1" d="M434.621 284.213C433.052 284.465 431.468 284.635 429.878 284.724C429.784 282.711 429.728 281.322 429.728 281.322L434.48 280.42L434.621 284.213Z" fill="black"/>
<path opacity="0.1" d="M447.144 281.797C444.095 282.542 439.382 283.379 435.17 282.856L435.11 280.307L446.612 278.137C446.612 278.137 446.917 280.134 447.144 281.797Z" fill="black"/>
<path opacity="0.1" d="M435.093 283.323C417.51 286.141 401.406 278.061 401.406 278.061L401.561 275.323C401.561 275.323 401.96 244.286 400.853 241.907C399.747 239.527 398.885 227.477 399.511 225.637C400.137 223.797 397.225 196.017 397.225 196.017L396.753 184.744L379.475 178.154L387.194 163.044C388.236 160.926 389.133 158.747 389.879 156.522C391.221 152.596 397.452 148.743 397.452 148.743C397.452 148.743 403.842 144.894 406.368 145.039C408.894 145.184 412.205 141.633 412.205 141.633C414.65 135.783 416.862 138.412 416.862 138.412C416.862 138.694 416.862 138.412 416.742 139.278C415.885 145.7 430.612 165.991 430.822 166.353L432.241 198.425L433.661 239.012L435.093 283.323Z" fill="black"/>
<path d="M434.621 283.323C417.038 286.141 400.93 278.061 400.93 278.061L401.089 275.323C401.089 275.323 401.484 244.286 400.377 241.907C399.271 239.527 398.409 227.465 399.039 225.609C399.669 223.753 396.74 196.001 396.74 196.001L396.264 184.728L378.99 178.138L386.709 163.028C387.749 160.91 388.646 158.733 389.394 156.51C390.736 152.596 396.989 148.739 396.989 148.739C396.989 148.739 403.379 144.89 405.901 145.035C408.422 145.18 411.75 141.633 411.75 141.633C414.199 135.783 416.897 138.412 416.897 138.412C416.897 138.694 416.639 138.815 416.777 139.278C418.664 145.506 430.174 165.991 430.384 166.353L431.804 198.425L433.193 239.032L434.621 283.323Z" fill="white"/>
<path opacity="0.1" d="M429.883 167.259C427.991 166.518 417.973 155.781 417.973 155.781V153.337C417.609 152.532 415.439 153.023 413.685 153.587L414.439 138.743L415.297 139.411C417.171 145.635 429.677 166.901 429.883 167.259Z" fill="black"/>
<path d="M430.359 166.374C428.463 165.629 418.445 154.895 418.445 154.895V152.447C418.08 151.642 415.915 152.133 414.156 152.697L414.898 137.869L415.756 138.533C417.647 144.749 430.148 166.011 430.359 166.374Z" fill="white"/>
<path opacity="0.1" d="M401.406 219.92C401.642 219.92 413.633 218.737 413.633 218.737C413.633 218.737 420.894 232.143 420.418 235.401C419.942 238.658 419.08 241.548 416.159 241.037C413.239 240.526 400.441 241.44 400.441 241.44L401.406 219.92Z" fill="black"/>
<path d="M400.93 219.031C401.17 219.031 413.161 217.847 413.161 217.847C413.161 217.847 420.418 231.274 419.946 234.495C419.474 237.716 418.604 240.643 415.687 240.131C412.771 239.62 399.965 240.534 399.965 240.534L400.93 219.031Z" fill="white"/>
<path d="M409.966 212.754C409.966 212.754 420.971 218.31 421.207 220.001C421.443 221.692 415.606 219.26 414.345 218.962C413.515 218.777 412.67 218.653 411.819 218.592L403.409 218.805L409.966 212.754Z" fill="#FBBEBE"/>
<path opacity="0.1" d="M426.808 167.952C427.447 167.952 427.966 167.465 427.966 166.865C427.966 166.264 427.447 165.778 426.808 165.778C426.168 165.778 425.65 166.264 425.65 166.865C425.65 167.465 426.168 167.952 426.808 167.952Z" fill="black"/>
<path d="M426.808 167.509C427.447 167.509 427.966 167.022 427.966 166.422C427.966 165.821 427.447 165.335 426.808 165.335C426.168 165.335 425.65 165.821 425.65 166.422C425.65 167.022 426.168 167.509 426.808 167.509Z" fill="#3F3D56"/>
<path opacity="0.1" d="M428.939 215.008C429.579 215.008 430.097 214.522 430.097 213.921C430.097 213.321 429.579 212.834 428.939 212.834C428.3 212.834 427.781 213.321 427.781 213.921C427.781 214.522 428.3 215.008 428.939 215.008Z" fill="black"/>
<path d="M428.939 214.562C429.579 214.562 430.097 214.075 430.097 213.475C430.097 212.874 429.579 212.388 428.939 212.388C428.3 212.388 427.781 212.874 427.781 213.475C427.781 214.075 428.3 214.562 428.939 214.562Z" fill="#3F3D56"/>
<path opacity="0.1" d="M427.966 191.48C428.605 191.48 429.124 190.993 429.124 190.393C429.124 189.793 428.605 189.306 427.966 189.306C427.326 189.306 426.808 189.793 426.808 190.393C426.808 190.993 427.326 191.48 427.966 191.48Z" fill="black"/>
<path d="M427.966 191.037C428.605 191.037 429.124 190.551 429.124 189.95C429.124 189.35 428.605 188.863 427.966 188.863C427.326 188.863 426.808 189.35 426.808 189.95C426.808 190.551 427.326 191.037 427.966 191.037Z" fill="#3F3D56"/>
<path d="M454.658 218.366C454.658 218.366 455.447 219.477 454.658 219.977C453.869 220.476 454.735 221.756 454.735 221.756C454.735 221.756 452.766 222.835 453.633 223.813C454.499 224.792 453.95 229.184 453.95 229.184L451.583 232.884C451.583 232.884 451.724 235.256 451.733 238.46C451.733 243.461 451.42 250.49 449.687 253.695L449.919 279.989C449.919 279.989 441.629 282.836 434.69 281.966L433.661 239.773C433.661 239.773 435.162 215.846 435.715 211.256C436.039 208.873 436.171 206.471 436.11 204.07C436.11 204.07 435.874 196.887 435.08 193.558C435.08 193.558 434.223 179.112 434.137 175.114C434.098 173.202 434.205 167.622 434.326 162.315C434.458 156.514 434.609 151.042 434.609 151.042L433.043 139.411C433.043 139.411 434.609 139.266 435.08 139.854C435.292 140.039 435.521 140.205 435.766 140.349C438.473 142.064 448.019 147.338 448.019 147.338C448.019 147.338 453.302 149.311 454.568 152.137C455.833 154.964 456.712 156.969 457.325 157.774C457.938 158.579 458.273 162.364 458.273 162.364C458.273 162.364 460.091 169.329 461.511 170.508C462.93 171.688 463.951 179.176 463.951 179.176L451.407 188.436C451.407 188.436 450.305 203.84 450.069 204.436C449.833 205.032 454.658 218.366 454.658 218.366Z" fill="white"/>
<path d="M455.134 218.366C455.134 218.366 455.919 219.477 455.134 219.977C454.349 220.476 455.207 221.756 455.207 221.756C455.207 221.756 453.238 222.835 454.104 223.813C454.971 224.792 454.422 229.184 454.422 229.184L452.063 232.884C452.063 232.884 452.205 235.256 452.217 238.46C452.217 243.461 451.904 250.49 450.172 253.695L450.408 279.989C450.408 279.989 442.118 282.836 435.179 281.966L434.154 239.773C434.154 239.773 435.651 215.846 436.208 211.256C436.532 208.873 436.663 206.471 436.598 204.07C436.598 204.07 436.363 196.887 435.573 193.558C435.573 193.558 434.716 179.112 434.626 175.114C434.587 173.202 434.694 167.622 434.814 162.315C434.947 156.514 435.097 151.042 435.097 151.042L433.03 139.254C433.03 139.254 435.097 139.254 435.573 139.854C435.783 140.041 436.013 140.207 436.26 140.349V140.349C438.961 142.064 448.508 147.338 448.508 147.338C448.508 147.338 453.779 149.311 455.065 152.137C456.352 154.964 457.209 156.969 457.823 157.774C458.436 158.579 458.77 162.364 458.77 162.364C458.77 162.364 460.589 169.329 462.008 170.508C463.428 171.688 464.453 179.176 464.453 179.176L451.909 188.436C451.909 188.436 450.807 203.84 450.566 204.436C450.326 205.032 455.134 218.366 455.134 218.366Z" fill="white"/>
<path opacity="0.1" d="M440.111 154.46L441.247 157.56L435.282 163.197C435.415 157.395 435.565 151.924 435.565 151.924L433.498 140.14C433.498 140.14 435.565 140.14 436.041 140.739C436.25 140.927 436.48 141.093 436.727 141.235V141.235L441.796 154.96L440.111 154.46Z" fill="black"/>
<path d="M439.626 153.571L440.763 156.667L434.802 162.303C434.93 156.502 435.085 151.03 435.085 151.03L433.013 139.242C433.013 139.242 435.085 139.242 435.556 139.842C435.767 140.028 435.997 140.194 436.242 140.337V140.337L441.342 154.074L439.626 153.571Z" fill="white"/>
<path opacity="0.1" d="M439.626 122.896C439.628 124.347 439.385 125.788 438.906 127.168C438.825 127.18 438.742 127.178 438.663 127.16C438.583 127.142 438.508 127.109 438.443 127.063C438.327 123.439 436.431 120.033 434.094 117.139C433.437 116.266 432.641 115.492 431.735 114.844C430.818 114.198 429.678 113.895 428.536 113.994C427.249 114.159 426.113 114.981 424.813 115.085C423.098 115.218 421.563 114.103 419.86 114.051C419.168 114.056 418.485 114.2 417.857 114.474C417.229 114.748 416.67 115.144 416.219 115.637C415.324 116.628 414.659 117.784 414.268 119.031C413.594 120.923 413.226 122.899 413.179 124.893C413.157 126.02 413.041 127.433 411.926 127.844C412.011 127.016 411.91 126.18 411.632 125.389C411.354 124.599 410.903 123.872 410.309 123.254L410.284 123.226C410.284 123.113 410.284 123.009 410.284 122.896C410.284 119.242 411.83 115.738 414.582 113.154C417.334 110.57 421.067 109.119 424.959 109.119C428.851 109.119 432.584 110.57 435.336 113.154C438.089 115.738 439.635 119.242 439.635 122.896H439.626Z" fill="black"/>
<path d="M431.049 101.022C428.821 100.038 426.286 99.852 423.921 100.499C422.733 100.829 421.614 101.364 420.409 101.634C417.836 102.218 414.834 101.586 412.625 102.999C411.399 103.804 410.661 105.077 409.975 106.317L408.26 109.38C407.325 111.059 406.381 112.766 405.991 114.614C405.601 116.462 405.836 118.532 407.084 120.021C407.989 121.1 409.336 121.781 410.322 122.799C410.915 123.42 411.364 124.15 411.642 124.942C411.919 125.734 412.019 126.571 411.935 127.401C413.05 126.999 413.161 125.577 413.187 124.45C413.235 122.456 413.602 120.48 414.276 118.588C414.668 117.341 415.332 116.185 416.228 115.194C416.679 114.701 417.237 114.304 417.865 114.029C418.493 113.755 419.176 113.61 419.869 113.604C421.584 113.66 423.124 114.775 424.822 114.638C426.109 114.538 427.249 113.716 428.545 113.551C429.686 113.45 430.828 113.753 431.744 114.401C432.65 115.047 433.445 115.821 434.098 116.696C436.44 119.595 438.34 122.985 438.451 126.62C438.936 126.95 439.635 126.515 439.875 126C440.115 125.485 440.124 124.881 440.428 124.39C440.78 123.822 441.453 123.516 441.981 123.089C443.319 122.006 443.653 120.182 443.602 118.528C443.55 116.873 443.207 115.194 443.542 113.568C443.743 112.573 444.198 111.635 444.447 110.649C444.695 109.662 444.725 108.555 444.138 107.706C443.28 106.461 441.475 106.212 439.901 106.095C438.112 105.95 436.513 106.135 435.372 104.722C434.835 103.986 434.233 103.293 433.571 102.653C433.335 102.439 431.049 101.111 431.049 101.022Z" fill="#512E4E"/>
<path opacity="0.1" d="M384.424 185.924L379.946 178.15L378.527 190.147C378.527 190.147 379.316 195.478 379.157 196.295C378.999 197.113 382.391 204.44 382.391 204.44C382.391 204.44 393.597 223.181 398.173 224.144L413.612 213.772L409.512 208.885C409.512 208.885 408.092 208.365 407.736 208.885C407.736 208.885 400.12 196.589 399.335 195.703C398.55 194.818 398.7 193.034 398.7 193.034C398.7 193.034 397.517 191.851 397.911 190.739C398.306 189.628 395.647 185.779 395.647 185.779L398.091 183.633L384.424 185.924Z" fill="black"/>
<path d="M380.182 177.26L378.999 178.15L377.579 190.147C377.579 190.147 378.368 195.478 378.209 196.295C378.051 197.113 381.447 204.44 381.447 204.44C381.447 204.44 392.649 223.181 397.225 224.144L412.69 213.772L408.585 208.885C408.585 208.885 407.166 208.365 406.81 208.885C406.81 208.885 399.198 196.589 398.409 195.703C397.62 194.818 397.778 193.034 397.778 193.034C397.778 193.034 396.595 191.851 396.989 190.739C397.384 189.628 394.699 185.779 394.699 185.779L397.144 183.633L380.182 177.26Z" fill="white"/>
<path opacity="0.1" d="M453.633 224.276C454.49 225.255 453.95 229.651 453.95 229.651L451.583 233.327C451.583 233.327 451.724 235.703 451.733 238.907L447.753 240.075C447.393 240.18 447.011 240.203 446.639 240.142C446.268 240.081 445.917 239.937 445.616 239.723C445.316 239.508 445.074 239.23 444.912 238.91C444.75 238.59 444.671 238.239 444.682 237.885L445.373 217.11L454.658 220.44C453.869 220.955 454.735 222.219 454.735 222.219C454.735 222.219 452.766 223.298 453.633 224.276Z" fill="black"/>
<path d="M454.104 223.834C454.962 224.808 454.422 229.204 454.422 229.204L452.063 232.884C452.063 232.884 452.205 235.256 452.217 238.46L448.165 239.648C447.813 239.752 447.44 239.775 447.076 239.715C446.713 239.656 446.37 239.516 446.076 239.306C445.782 239.097 445.546 238.825 445.387 238.512C445.228 238.2 445.151 237.856 445.163 237.51L445.853 216.663L455.134 220.001C454.34 220.516 455.207 221.78 455.207 221.78C455.207 221.78 453.238 222.855 454.104 223.834Z" fill="white"/>
<path d="M457.184 213.921C457.184 213.921 456.553 217.702 454.975 217.923C453.397 218.145 452.689 224.039 451.115 223.834C449.541 223.628 450.584 218.35 450.639 217.328C450.695 216.305 448.924 212.069 450.245 211.107C451.566 210.145 455.768 211.107 455.768 211.107L457.184 213.921Z" fill="#FBBEBE"/>
<path opacity="0.1" d="M460.52 184.813L463.492 179.176C463.492 179.176 464.68 183.472 464.68 185.767C464.68 188.062 466.336 188.287 466.336 188.287C466.336 188.287 468.15 190.3 467.193 191.77C466.237 193.239 465.855 196.879 465.855 196.879C465.855 196.879 466.168 203.84 464.749 204.802C463.329 205.765 463.012 208.063 463.012 208.063C463.012 208.063 460.409 212.432 460.49 213.471C460.572 214.509 456.862 221.543 456.862 221.543C456.862 221.543 458.676 212.802 448.105 209.026C448.105 209.026 448.023 206.063 448.812 205.249C449.601 204.436 450.832 204.041 450.06 199.951C449.288 195.86 449.837 190.929 449.837 189.942C449.837 188.956 452.205 182.808 452.205 182.808L460.52 184.813Z" fill="black"/>
<path d="M461.841 178.371L464.44 179.176C464.44 179.176 465.628 183.472 465.628 185.767C465.628 188.062 467.283 188.287 467.283 188.287C467.283 188.287 469.097 190.3 468.141 191.77C467.185 193.239 466.799 196.879 466.799 196.879C466.799 196.879 467.116 203.84 465.697 204.802C464.277 205.765 463.981 208.063 463.981 208.063C463.981 208.063 461.378 212.432 461.459 213.471C461.541 214.509 457.827 221.543 457.827 221.543C457.827 221.543 459.641 212.802 449.07 209.026C449.07 209.026 448.993 206.063 449.782 205.249C450.571 204.436 451.802 204.041 451.03 199.951C450.258 195.86 450.807 190.929 450.807 189.942C450.807 188.956 453.174 182.808 453.174 182.808L461.841 178.371Z" fill="white"/>
<path opacity="0.1" d="M404.426 324.465C404.426 324.465 408.568 322.022 411.287 323.797C414.006 325.573 404.426 324.465 404.426 324.465Z" fill="black"/>
<path opacity="0.1" d="M436.624 316.908C436.624 316.908 440.291 316.466 443.37 319.578C446.449 322.69 436.624 316.908 436.624 316.908Z" fill="black"/>
<g opacity="0.1">
<path opacity="0.1" d="M441.981 122.203C441.453 122.634 440.776 122.936 440.424 123.504C440.124 123.991 440.115 124.595 439.875 125.114C439.635 125.634 438.936 126.064 438.447 125.734C438.335 122.111 436.436 118.709 434.098 115.81C433.445 114.936 432.65 114.164 431.744 113.519C430.827 112.87 429.684 112.566 428.54 112.666C427.254 112.831 426.121 113.652 424.822 113.757C423.107 113.89 421.567 112.774 419.864 112.722C419.173 112.727 418.49 112.871 417.863 113.145C417.235 113.418 416.678 113.815 416.228 114.308C415.332 115.3 414.668 116.456 414.276 117.702C413.602 119.594 413.235 121.57 413.187 123.564C413.161 124.688 413.05 126.089 411.943 126.507C411.969 126.806 411.969 127.106 411.943 127.405C413.063 127.003 413.174 125.581 413.2 124.454C413.248 122.46 413.615 120.484 414.289 118.592C414.681 117.345 415.345 116.189 416.241 115.198C416.691 114.705 417.249 114.308 417.876 114.034C418.503 113.759 419.185 113.614 419.877 113.608C421.593 113.664 423.137 114.779 424.835 114.642C426.121 114.542 427.262 113.721 428.553 113.555C429.696 113.454 430.839 113.757 431.757 114.405C432.663 115.051 433.458 115.825 434.111 116.7C436.448 119.599 438.348 122.989 438.46 126.624C438.949 126.954 439.648 126.519 439.888 126.004C440.128 125.489 440.137 124.885 440.437 124.394C440.788 123.826 441.466 123.52 441.994 123.093C443.332 122.01 443.666 120.186 443.615 118.532C443.615 118.479 443.615 118.431 443.615 118.379C443.529 119.82 443.121 121.281 441.981 122.203Z" fill="black"/>
<path opacity="0.1" d="M410.318 121.922C409.336 120.903 407.989 120.219 407.084 119.14C406.32 118.187 405.885 117.038 405.836 115.846C405.702 117.336 406.145 118.822 407.084 120.029C407.989 121.108 409.336 121.789 410.318 122.807C411.267 123.803 411.837 125.066 411.939 126.399C412.004 125.588 411.893 124.774 411.615 124.005C411.336 123.236 410.895 122.527 410.318 121.922Z" fill="black"/>
<path opacity="0.1" d="M444.447 109.763C444.194 110.749 443.743 111.687 443.537 112.682C443.414 113.354 443.369 114.037 443.404 114.719C443.419 114.334 443.463 113.95 443.537 113.572C443.743 112.577 444.194 111.639 444.447 110.653C444.592 110.108 444.64 109.545 444.588 108.986C444.56 109.248 444.513 109.507 444.447 109.763V109.763Z" fill="black"/>
</g>
<path opacity="0.1" d="M110.126 337.739C133.205 337.739 151.914 334.918 151.914 331.439C151.914 327.959 133.205 325.138 110.126 325.138C87.047 325.138 68.3379 327.959 68.3379 331.439C68.3379 334.918 87.047 337.739 110.126 337.739Z" fill="#276749"/>
<path d="M111.472 210.733H108.784V267.569H111.472V210.733Z" fill="#535461"/>
<path d="M128.374 267.4L128.202 269.96L127.966 273.584L127.868 275.09L127.628 278.713L127.525 280.219L127.289 283.842L124.574 324.936C124.458 326.705 123.629 328.365 122.254 329.578C120.879 330.791 119.063 331.467 117.176 331.467H103.08C101.188 331.468 99.3669 330.788 97.9913 329.569C96.6156 328.349 95.7893 326.682 95.6819 324.908L92.9673 283.814L92.7314 280.191L92.6328 278.685L92.3883 275.061L92.2897 273.556L92.0538 269.932L91.8823 267.372C91.8526 266.881 91.9296 266.389 92.1086 265.927C92.2876 265.466 92.5649 265.043 92.9236 264.684C93.2822 264.326 93.7148 264.04 94.1949 263.844C94.675 263.648 95.1926 263.545 95.7163 263.543H124.544C125.07 263.546 125.59 263.649 126.072 263.848C126.553 264.046 126.987 264.334 127.345 264.696C127.704 265.057 127.98 265.483 128.157 265.948C128.334 266.413 128.408 266.907 128.374 267.4Z" fill="#132B50"/>
<path d="M128.202 269.956L127.962 273.572H92.2897L92.0495 269.956H128.202Z" fill="#9D9CB5"/>
<path d="M127.863 275.078L127.628 278.693H92.6285L92.3883 275.078H127.863Z" fill="#9D9CB5"/>
<path d="M127.525 280.203L127.289 283.814H92.9673L92.7271 280.203H127.525Z" fill="#9D9CB5"/>
<path d="M87.9625 232.039C103.624 242.676 110.147 259.311 110.147 259.311C110.147 259.311 91.2776 258.703 75.6114 248.067C59.9452 237.43 53.4137 220.806 53.4137 220.806C53.4137 220.806 72.2834 221.402 87.9625 232.039Z" fill="#276749"/>
<path d="M53.4137 220.806C53.4137 220.806 72.9996 231.012 79.2824 239.463C85.5652 247.914 110.13 259.319 110.13 259.319" stroke="#535461" stroke-width="2" stroke-miterlimit="10"/>
<path d="M98.0535 210.612C106.579 216.397 110.13 225.452 110.13 225.452C110.13 225.452 99.8376 225.122 91.3333 219.337C82.8291 213.551 79.2567 204.492 79.2567 204.492C79.2567 204.492 89.5321 204.823 98.0535 210.612Z" fill="#276749"/>
<path d="M79.2567 204.492C79.2567 204.492 89.9181 210.048 93.3404 214.646C96.7627 219.244 110.13 225.452 110.13 225.452" stroke="#535461" stroke-width="2" stroke-miterlimit="10"/>
<path d="M122.516 224.993C112.725 235.095 110.653 248.296 110.653 248.296C110.653 248.296 124.458 245.115 134.241 235.01C144.023 224.905 146.103 211.707 146.103 211.707C146.103 211.707 132.306 214.892 122.516 224.993Z" fill="#276749"/>
<path d="M146.111 211.711C146.111 211.711 133.357 222.066 130.115 229.2C126.873 236.335 110.653 248.296 110.653 248.296" stroke="#535461" stroke-width="2" stroke-miterlimit="10"/>
</g>
<defs>
<linearGradient id="paint0_linear" x1="252.85" y1="336.403" x2="252.85" y2="103.836" gradientUnits="userSpaceOnUse">
<stop stop-color="#808080" stop-opacity="0.25"/>
<stop offset="0.54" stop-color="#808080" stop-opacity="0.12"/>
<stop offset="1" stop-color="#808080" stop-opacity="0.1"/>
</linearGradient>
<linearGradient id="paint1_linear" x1="81656" y1="217952" x2="81656" y2="65516" gradientUnits="userSpaceOnUse">
<stop stop-color="#808080" stop-opacity="0.25"/>
<stop offset="0.54" stop-color="#808080" stop-opacity="0.12"/>
<stop offset="1" stop-color="#808080" stop-opacity="0.1"/>
</linearGradient>
<clipPath id="clip0">
<rect width="500.739" height="347.398" fill="white" transform="translate(53.2035)"/>
</clipPath>
</defs>
</svg>
