<svg width="500" height="453" viewBox="0 0 500 453" fill="none" xmlns="http://www.w3.org/2000/svg">
<g clip-path="url(#clip0)">
<path d="M218.531 374.126H9.90675C7.28022 374.123 4.76212 373.078 2.90489 371.221C1.04765 369.364 0.00295597 366.846 0 364.219V81.0024C0.00295598 78.3759 1.04765 75.8578 2.90489 74.0005C4.76212 72.1433 7.28022 71.0986 9.90675 71.0956H218.531C221.158 71.0986 223.676 72.1433 225.533 74.0005C227.391 75.8578 228.435 78.3759 228.438 81.0024V364.219C228.435 366.846 227.391 369.364 225.533 371.221C223.676 373.078 221.158 374.123 218.531 374.126Z" fill="white"/>
<path d="M104.815 144.804C104.815 152.983 102.227 160.953 97.422 167.573C92.6171 174.192 85.8412 179.122 78.0642 181.657C77.8316 181.731 77.5993 181.805 77.3631 181.875C76.3557 182.185 75.3342 182.449 74.295 182.675C72.4144 183.083 70.5055 183.348 68.5849 183.467C67.7502 183.524 66.9106 183.552 66.0663 183.552C61.704 183.556 57.3723 182.822 53.2547 181.382C53.135 181.34 53.0153 181.297 52.899 181.255C46.2275 178.846 40.3454 174.651 35.8935 169.129C31.4416 163.607 28.5908 156.969 27.6517 149.938C26.7126 142.907 27.7212 135.753 30.5677 129.256C33.4141 122.759 37.9892 117.168 43.7944 113.092C49.5996 109.016 56.4121 106.612 63.4897 106.141C70.5673 105.67 77.6383 107.151 83.9324 110.422C90.2264 113.692 95.5019 118.628 99.1841 124.691C102.866 130.753 104.814 137.71 104.815 144.804V144.804Z" fill="white"/>
<path d="M218.531 374.126H9.90675C7.28022 374.123 4.76212 373.078 2.90489 371.221C1.04765 369.364 0.00295597 366.846 0 364.219V81.0024C0.00295598 78.3759 1.04765 75.8578 2.90489 74.0005C4.76212 72.1433 7.28022 71.0986 9.90675 71.0956H218.531C221.158 71.0986 223.676 72.1433 225.533 74.0005C227.391 75.8578 228.435 78.3759 228.438 81.0024V364.219C228.435 366.846 227.391 369.364 225.533 371.221C223.676 373.078 221.158 374.123 218.531 374.126ZM9.90675 72.2612C7.58923 72.2638 5.3674 73.1856 3.72867 74.8243C2.08993 76.463 1.16813 78.6849 1.1655 81.0024V364.219C1.16813 366.537 2.08991 368.758 3.72864 370.397C5.36738 372.036 7.58923 372.958 9.90675 372.96H218.531C220.849 372.958 223.071 372.036 224.71 370.397C226.348 368.758 227.27 366.537 227.273 364.219V81.0024C227.27 78.6849 226.348 76.463 224.71 74.8243C223.071 73.1856 220.849 72.2638 218.531 72.2612H9.90675Z" fill="#CCCCCC"/>
<path d="M178.144 144.653H119.111C117.873 144.651 116.687 144.158 115.812 143.283C114.938 142.407 114.446 141.22 114.446 139.982C114.446 138.745 114.938 137.558 115.812 136.682C116.687 135.806 117.873 135.314 119.111 135.312H178.144C178.758 135.311 179.366 135.432 179.933 135.666C180.501 135.9 181.016 136.244 181.45 136.678C181.885 137.112 182.229 137.627 182.464 138.194C182.699 138.761 182.82 139.369 182.82 139.982C182.82 140.596 182.699 141.204 182.464 141.771C182.229 142.338 181.885 142.853 181.45 143.287C181.016 143.721 180.501 144.065 179.933 144.299C179.366 144.533 178.758 144.653 178.144 144.653Z" fill="#E6E6E6"/>
<path d="M197.409 160.415H119.111C117.873 160.413 116.687 159.92 115.812 159.045C114.938 158.169 114.446 156.982 114.446 155.745C114.446 154.507 114.938 153.32 115.812 152.444C116.687 151.569 117.873 151.076 119.111 151.074H197.409C198.647 151.076 199.833 151.569 200.708 152.444C201.582 153.32 202.073 154.507 202.073 155.745C202.073 156.982 201.582 158.169 200.708 159.045C199.833 159.92 198.647 160.413 197.409 160.415Z" fill="#E6E6E6"/>
<path d="M178.058 220.869H31.029C30.4153 220.869 29.8073 220.749 29.24 220.515C28.6728 220.28 28.1572 219.937 27.7229 219.503C27.2887 219.069 26.9441 218.554 26.7091 217.987C26.474 217.42 26.353 216.812 26.353 216.198C26.353 215.585 26.474 214.977 26.7091 214.41C26.9441 213.843 27.2887 213.328 27.7229 212.894C28.1572 212.46 28.6728 212.116 29.24 211.882C29.8073 211.648 30.4153 211.527 31.029 211.528H178.058C179.296 211.53 180.482 212.022 181.357 212.898C182.231 213.774 182.722 214.961 182.722 216.198C182.722 217.436 182.231 218.623 181.357 219.499C180.482 220.374 179.296 220.867 178.058 220.869Z" fill="#E6E6E6"/>
<path d="M197.323 236.631H31.029C30.4153 236.631 29.8073 236.511 29.24 236.277C28.6728 236.042 28.1572 235.699 27.7229 235.265C27.2887 234.831 26.9441 234.316 26.7091 233.749C26.474 233.182 26.353 232.574 26.353 231.96C26.353 231.347 26.474 230.739 26.7091 230.172C26.9441 229.605 27.2887 229.09 27.7229 228.656C28.1572 228.222 28.6728 227.878 29.24 227.644C29.8073 227.41 30.4153 227.289 31.029 227.29H197.323C197.936 227.289 198.544 227.41 199.112 227.644C199.679 227.878 200.194 228.222 200.629 228.656C201.063 229.09 201.408 229.605 201.643 230.172C201.878 230.739 201.999 231.347 201.999 231.96C201.999 232.574 201.878 233.182 201.643 233.749C201.408 234.316 201.063 234.831 200.629 235.265C200.194 235.699 199.679 236.042 199.112 236.277C198.544 236.511 197.936 236.631 197.323 236.631Z" fill="#E6E6E6"/>
<path d="M178.058 272.858H31.0291C29.7905 272.858 28.6026 272.366 27.7268 271.49C26.8509 270.614 26.3589 269.426 26.3589 268.188C26.3589 266.949 26.8509 265.761 27.7268 264.885C28.6026 264.009 29.7905 263.517 31.0291 263.517H178.058C179.297 263.517 180.485 264.009 181.36 264.885C182.236 265.761 182.728 266.949 182.728 268.188C182.728 269.426 182.236 270.614 181.36 271.49C180.485 272.366 179.297 272.858 178.058 272.858Z" fill="#E6E6E6"/>
<path d="M197.323 288.62H31.0291C29.7905 288.62 28.6026 288.128 27.7268 287.252C26.8509 286.376 26.3589 285.188 26.3589 283.95C26.3589 282.711 26.8509 281.523 27.7268 280.647C28.6026 279.771 29.7905 279.279 31.0291 279.279H197.323C198.561 279.279 199.749 279.771 200.625 280.647C201.501 281.523 201.993 282.711 201.993 283.95C201.993 285.188 201.501 286.376 200.625 287.252C199.749 288.128 198.561 288.62 197.323 288.62Z" fill="#E6E6E6"/>
<path d="M178.058 324.847H31.0291C29.7905 324.847 28.6026 324.355 27.7268 323.479C26.8509 322.603 26.3589 321.415 26.3589 320.177C26.3589 318.938 26.8509 317.75 27.7268 316.874C28.6026 315.999 29.7905 315.507 31.0291 315.507H178.058C179.297 315.507 180.485 315.999 181.36 316.874C182.236 317.75 182.728 318.938 182.728 320.177C182.728 321.415 182.236 322.603 181.36 323.479C180.485 324.355 179.297 324.847 178.058 324.847Z" fill="#E6E6E6"/>
<path d="M197.323 340.609H31.0291C29.7905 340.609 28.6026 340.117 27.7268 339.241C26.8509 338.365 26.3589 337.177 26.3589 335.939C26.3589 334.7 26.8509 333.512 27.7268 332.636C28.6026 331.761 29.7905 331.269 31.0291 331.269H197.323C198.561 331.269 199.749 331.761 200.625 332.636C201.501 333.512 201.993 334.7 201.993 335.939C201.993 337.177 201.501 338.365 200.625 339.241C199.749 340.117 198.561 340.609 197.323 340.609Z" fill="#E6E6E6"/>
<path d="M490.093 303.03L281.469 303.03C278.842 303.027 276.324 301.983 274.467 300.126C272.609 298.268 271.565 295.75 271.562 293.124L271.562 9.90693C271.564 7.28041 272.609 4.7623 274.466 2.90506C276.324 1.04782 278.842 0.00312184 281.468 0.000163964L490.093 0C492.719 0.00295408 495.238 1.04764 497.095 2.90488C498.952 4.76211 499.997 7.28022 500 9.90675L500 293.123C499.997 295.75 498.952 298.268 497.095 300.125C495.238 301.983 492.72 303.027 490.093 303.03Z" fill="white"/>
<path d="M490.093 303.03L281.469 303.03C278.842 303.027 276.324 301.983 274.467 300.126C272.609 298.268 271.565 295.75 271.562 293.124L271.562 9.90693C271.564 7.28041 272.609 4.7623 274.466 2.90506C276.324 1.04782 278.842 0.00312184 281.468 0.000163964L490.093 0C492.719 0.00295408 495.238 1.04764 497.095 2.90488C498.952 4.76211 499.997 7.28022 500 9.90675L500 293.123C499.997 295.75 498.952 298.268 497.095 300.125C495.238 301.983 492.72 303.027 490.093 303.03ZM281.468 1.16567C279.151 1.16829 276.929 2.09009 275.29 3.72883C273.651 5.36757 272.73 7.58941 272.727 9.90693L272.727 293.124C272.73 295.441 273.652 297.663 275.29 299.302C276.929 300.94 279.151 301.862 281.469 301.865L490.093 301.865C492.411 301.862 494.633 300.94 496.271 299.302C497.91 297.663 498.832 295.441 498.834 293.124L498.834 9.90676C498.832 7.58924 497.91 5.36739 496.271 3.72865C494.632 2.08992 492.41 1.16813 490.093 1.1655L281.468 1.16567Z" fill="#CCCCCC"/>
<path d="M376.474 73.3219C376.474 80.9856 374.201 88.4772 369.944 94.8493C365.686 101.221 359.634 106.188 352.554 109.121C345.474 112.053 337.683 112.821 330.166 111.326C322.65 109.831 315.746 106.14 310.327 100.721C304.908 95.302 301.217 88.3978 299.722 80.8814C298.227 73.3649 298.994 65.574 301.927 58.4937C304.86 51.4134 309.826 45.3617 316.198 41.104C322.571 36.8463 330.062 34.5737 337.726 34.5737C348.001 34.577 357.855 38.6604 365.121 45.9264C372.387 53.1924 376.471 63.0462 376.474 73.3219Z" fill="white"/>
<path d="M358 105.943C352.176 109.672 345.429 111.705 338.515 111.815C331.601 111.925 324.792 110.108 318.853 106.566C319.898 104.621 321.222 102.839 322.782 101.278C325.191 98.8581 328.122 97.0226 331.35 95.9124C334.578 94.8022 338.018 94.4468 341.405 94.8734C344.792 95.3001 348.036 96.4975 350.889 98.3737C353.741 100.25 356.125 102.755 357.858 105.696C357.904 105.776 357.954 105.859 358 105.943Z" fill="#276749"/>
<path d="M336.792 85.9534C346.997 85.9534 355.269 77.6811 355.269 67.4767C355.269 57.2723 346.997 49 336.792 49C326.588 49 318.315 57.2723 318.315 67.4767C318.315 77.6811 326.588 85.9534 336.792 85.9534Z" fill="#2F2E41"/>
<path d="M348.729 80.5091C352.372 73.845 349.923 65.4894 343.259 61.8465C336.595 58.2035 328.239 60.6527 324.596 67.3168C320.953 73.981 323.402 82.3365 330.067 85.9795C336.731 89.6224 345.086 87.1733 348.729 80.5091Z" fill="#FFB8B8"/>
<path d="M324.024 65.2632C327.167 67.429 330.897 68.5817 334.713 68.5665C333.352 69.5105 331.802 70.1481 330.17 70.4355C335.245 71.5239 340.489 71.5534 345.576 70.522C346.706 70.3407 347.797 69.966 348.8 69.4144C349.3 69.1352 349.736 68.7538 350.079 68.2952C350.422 67.8365 350.665 67.3108 350.791 66.7522C351.129 64.8214 349.624 63.0672 348.061 61.885C345.667 60.1025 342.907 58.8744 339.98 58.2896C337.053 57.7048 334.033 57.7778 331.138 58.5034C329.248 58.992 327.354 59.8176 326.126 61.3357C324.898 62.8538 324.535 65.1943 325.705 66.7575L324.024 65.2632Z" fill="#2F2E41"/>
<path d="M337.726 113.127C327.719 113.119 318.084 109.338 310.741 102.541C303.398 95.743 298.887 86.4272 298.109 76.4511C297.33 66.4751 300.34 56.5721 306.539 48.7171C312.738 40.8621 321.67 35.6325 331.554 34.0712C341.438 32.5098 351.547 34.7316 359.865 40.2933C368.183 45.8551 374.1 54.348 376.434 64.0784C378.768 73.8087 377.348 84.0613 372.458 92.7915C367.568 101.522 359.567 108.088 350.05 111.18C346.07 112.474 341.911 113.132 337.726 113.127ZM337.726 35.6305C330.27 35.6295 322.981 37.8396 316.781 41.9813C310.58 46.1231 305.748 52.0105 302.894 58.8989C300.04 65.7873 299.293 73.3673 300.748 80.6803C302.202 87.9932 305.792 94.7107 311.065 99.983C316.337 105.255 323.055 108.846 330.367 110.3C337.68 111.754 345.26 111.007 352.149 108.154C359.037 105.3 364.925 100.467 369.066 94.2672C373.208 88.0671 375.418 80.7781 375.417 73.3219C375.406 63.329 371.431 53.7486 364.365 46.6825C357.299 39.6165 347.719 35.6418 337.726 35.6305Z" fill="#CCCCCC"/>
<path d="M449.706 73.5571L390.672 73.5572C389.434 73.5572 388.246 73.0651 387.37 72.1893C386.494 71.3135 386.002 70.1256 386.002 68.8869C386.002 67.6483 386.494 66.4604 387.37 65.5846C388.246 64.7087 389.434 64.2167 390.672 64.2167L449.706 64.2167C450.944 64.2167 452.132 64.7087 453.008 65.5845C453.884 66.4604 454.376 67.6483 454.376 68.8869C454.376 70.1255 453.884 71.3134 453.008 72.1892C452.132 73.0651 450.944 73.5571 449.706 73.5571Z" fill="#E6E6E6"/>
<path d="M468.97 89.3191L390.672 89.3192C390.058 89.32 389.45 89.1997 388.883 88.9653C388.316 88.731 387.8 88.3871 387.366 87.9534C386.932 87.5196 386.587 87.0045 386.352 86.4375C386.117 85.8705 385.996 85.2628 385.996 84.649C385.996 84.0352 386.117 83.4274 386.352 82.8604C386.587 82.2934 386.932 81.7783 387.366 81.3446C387.8 80.9108 388.316 80.5669 388.883 80.3326C389.45 80.0982 390.058 79.978 390.672 79.9787L468.97 79.9787C470.209 79.9787 471.397 80.4707 472.273 81.3465C473.149 82.2224 473.641 83.4103 473.641 84.6489C473.641 85.8875 473.149 87.0754 472.273 87.9512C471.397 88.8271 470.209 89.3191 468.97 89.3191Z" fill="#E6E6E6"/>
<path d="M449.62 149.773L302.591 149.773C301.354 149.772 300.167 149.279 299.293 148.403C298.418 147.528 297.927 146.341 297.927 145.103C297.927 143.865 298.418 142.678 299.293 141.803C300.167 140.927 301.354 140.434 302.591 140.433L449.62 140.433C450.859 140.433 452.047 140.925 452.922 141.8C453.798 142.676 454.29 143.864 454.29 145.103C454.29 146.341 453.798 147.529 452.922 148.405C452.047 149.281 450.859 149.773 449.62 149.773Z" fill="#E6E6E6"/>
<path d="M468.885 165.535L302.591 165.535C301.977 165.536 301.369 165.416 300.802 165.181C300.235 164.947 299.719 164.603 299.285 164.169C298.851 163.736 298.506 163.22 298.271 162.653C298.036 162.086 297.915 161.479 297.915 160.865C297.915 160.251 298.036 159.643 298.271 159.076C298.506 158.509 298.851 157.994 299.285 157.561C299.719 157.127 300.235 156.783 300.802 156.549C301.369 156.314 301.977 156.194 302.591 156.195L468.885 156.195C470.123 156.195 471.311 156.687 472.187 157.562C473.063 158.438 473.555 159.626 473.555 160.865C473.555 162.103 473.063 163.291 472.187 164.167C471.311 165.043 470.123 165.535 468.885 165.535Z" fill="#E6E6E6"/>
<path d="M449.62 201.762L302.591 201.762C301.354 201.761 300.167 201.268 299.293 200.392C298.418 199.517 297.927 198.33 297.927 197.092C297.927 195.855 298.418 194.667 299.293 193.792C300.167 192.916 301.354 192.423 302.591 192.422L449.62 192.422C450.859 192.422 452.047 192.914 452.923 193.79C453.798 194.665 454.29 195.853 454.29 197.092C454.29 198.331 453.798 199.519 452.923 200.394C452.047 201.27 450.859 201.762 449.62 201.762Z" fill="#E6E6E6"/>
<path d="M468.885 217.524L302.591 217.524C301.977 217.525 301.369 217.405 300.802 217.171C300.235 216.936 299.719 216.592 299.285 216.159C298.851 215.725 298.506 215.21 298.271 214.643C298.036 214.076 297.915 213.468 297.915 212.854C297.915 212.24 298.036 211.633 298.271 211.066C298.506 210.499 298.851 209.983 299.285 209.55C299.719 209.116 300.235 208.772 300.802 208.538C301.369 208.303 301.977 208.183 302.591 208.184L468.885 208.184C470.123 208.184 471.311 208.676 472.187 209.552C473.063 210.428 473.555 211.615 473.555 212.854C473.555 214.093 473.063 215.281 472.187 216.156C471.311 217.032 470.123 217.524 468.885 217.524Z" fill="#E6E6E6"/>
<path d="M449.62 253.751L302.591 253.752C301.353 253.752 300.165 253.259 299.289 252.384C298.413 251.508 297.921 250.32 297.921 249.081C297.921 247.843 298.413 246.655 299.289 245.779C300.165 244.903 301.353 244.411 302.591 244.411L449.62 244.411C450.859 244.411 452.047 244.903 452.922 245.779C453.798 246.655 454.29 247.843 454.29 249.081C454.29 250.32 453.798 251.508 452.922 252.384C452.047 253.259 450.859 253.751 449.62 253.751Z" fill="#E6E6E6"/>
<path d="M468.885 269.513L302.591 269.514C301.353 269.514 300.165 269.022 299.289 268.146C298.413 267.27 297.921 266.082 297.921 264.843C297.921 263.605 298.413 262.417 299.289 261.541C300.165 260.665 301.353 260.173 302.591 260.173L468.885 260.173C470.123 260.173 471.311 260.665 472.187 261.541C473.063 262.417 473.555 263.605 473.555 264.843C473.555 266.082 473.063 267.27 472.187 268.146C471.311 269.021 470.123 269.513 468.885 269.513Z" fill="#E6E6E6"/>
<path d="M364.219 424.825H155.594C152.968 424.822 150.45 423.777 148.592 421.92C146.735 420.063 145.69 417.545 145.688 414.918V131.702C145.69 129.075 146.735 126.557 148.592 124.7C150.45 122.843 152.968 121.798 155.594 121.795H364.219C366.845 121.798 369.364 122.843 371.221 124.7C373.078 126.557 374.123 129.075 374.126 131.702V414.918C374.123 417.545 373.078 420.063 371.221 421.92C369.364 423.777 366.845 424.822 364.219 424.825Z" fill="white"/>
<path d="M172.994 194.706C172.987 199.806 173.991 204.857 175.946 209.568C177.901 214.278 180.77 218.554 184.386 222.151C184.689 222.45 184.999 222.749 185.312 223.042C187.201 224.806 189.261 226.377 191.463 227.73C191.886 227.991 192.308 228.241 192.742 228.484C194.968 229.739 197.314 230.769 199.745 231.559C200.164 231.697 200.59 231.827 201.016 231.947C208.742 234.163 216.965 233.931 224.554 231.285C224.702 231.232 224.85 231.179 224.994 231.126C231.656 228.702 237.526 224.497 241.964 218.969C246.402 213.441 249.239 206.801 250.165 199.773C251.091 192.744 250.072 185.596 247.217 179.107C244.363 172.618 239.783 167.036 233.976 162.969C228.17 158.902 221.358 156.506 214.284 156.041C207.21 155.577 200.144 157.062 193.856 160.335C187.567 163.608 182.297 168.543 178.618 174.603C174.94 180.664 172.995 187.617 172.994 194.706Z" fill="white"/>
<path d="M230.637 228.055C224.968 231.686 218.399 233.666 211.667 233.774C204.936 233.881 198.307 232.112 192.524 228.664C192.586 228.545 192.652 228.426 192.723 228.311C194.578 224.967 197.281 222.172 200.56 220.205C203.839 218.239 207.579 217.171 211.402 217.11C215.225 217.049 218.997 217.996 222.337 219.856C225.678 221.717 228.469 224.425 230.43 227.707C230.456 227.742 230.478 227.782 230.501 227.817C230.545 227.892 230.593 227.976 230.637 228.055Z" fill="#276749"/>
<path d="M227.979 190.604C227.979 194.162 226.924 197.64 224.947 200.598C222.97 203.556 220.161 205.862 216.874 207.224C213.586 208.585 209.969 208.942 206.48 208.247C202.99 207.553 199.785 205.84 197.269 203.324C194.753 200.808 193.04 197.603 192.346 194.113C191.652 190.624 192.008 187.007 193.369 183.719C194.731 180.432 197.037 177.623 199.995 175.646C202.953 173.669 206.431 172.614 209.989 172.614C212.355 172.603 214.699 173.061 216.887 173.961C219.075 174.861 221.062 176.185 222.735 177.858C224.408 179.531 225.732 181.518 226.632 183.706C227.532 185.894 227.99 188.238 227.979 190.604V190.604Z" fill="#2F2E41"/>
<path d="M224.085 201.781C223.879 202.299 223.642 202.804 223.375 203.293C221.672 206.409 218.801 208.72 215.393 209.719C211.986 210.718 208.321 210.323 205.205 208.62C203.661 207.777 202.298 206.638 201.194 205.269C200.09 203.899 199.267 202.326 198.772 200.638C198.277 198.95 198.119 197.181 198.307 195.432C198.496 193.683 199.027 191.988 199.871 190.445C200.714 188.901 201.854 187.539 203.224 186.436C204.595 185.334 206.169 184.512 207.857 184.017C209.545 183.523 211.314 183.366 213.063 183.556C214.812 183.746 216.506 184.278 218.049 185.123C220.911 186.688 223.104 189.244 224.215 192.311C225.327 195.378 225.28 198.746 224.085 201.781Z" fill="#FFB8B8"/>
<path d="M224.569 175.664C223.683 174.16 222.399 172.93 220.857 172.11C219.316 171.29 217.578 170.912 215.835 171.017C214.006 171.154 212.266 171.828 210.557 172.495L201.869 175.884C199.621 176.761 197.158 177.835 196.183 180.042C195.277 182.091 195.953 184.457 196.637 186.589L199.887 196.727C200.333 194.45 200.785 192.15 201.729 190.031C202.673 187.911 204.167 185.956 206.231 184.897C208.488 183.739 211.148 183.763 213.682 183.885C217.27 184.058 221.171 184.514 223.72 187.045C225.073 188.482 225.991 190.274 226.366 192.212C226.735 194.14 226.921 196.099 226.921 198.061C228.392 195.532 229.631 192.875 230.624 190.123C231.44 188.073 231.905 185.9 232 183.696C232.019 181.495 231.396 179.224 229.928 177.584C228.46 175.943 226.069 175.058 223.965 175.707" fill="#2F2E41"/>
<path d="M211.742 234.511C208.015 234.514 204.305 233.993 200.723 232.962C200.302 232.844 199.86 232.709 199.415 232.564C196.92 231.751 194.51 230.693 192.223 229.405C191.794 229.164 191.364 228.911 190.908 228.63C188.647 227.239 186.531 225.626 184.591 223.814C184.271 223.515 183.954 223.209 183.643 222.903C177.542 216.819 173.579 208.921 172.351 200.393C171.122 191.865 172.694 183.169 176.829 175.611C180.965 168.053 187.442 162.041 195.287 158.478C203.131 154.915 211.92 153.994 220.333 155.853C228.746 157.711 236.328 162.25 241.941 168.786C247.554 175.323 250.895 183.504 251.461 192.101C252.027 200.699 249.789 209.247 245.081 216.463C240.374 223.679 233.452 229.173 225.355 232.119C225.21 232.172 225.06 232.226 224.909 232.28C220.678 233.761 216.226 234.516 211.742 234.511ZM211.742 157.015C204.282 157.015 196.99 159.229 190.79 163.376C184.589 167.523 179.758 173.417 176.909 180.311C174.059 187.205 173.32 194.79 174.784 202.105C176.248 209.42 179.849 216.136 185.132 221.402C185.424 221.691 185.727 221.983 186.033 222.269C187.871 223.985 189.875 225.513 192.016 226.83C192.448 227.096 192.854 227.335 193.258 227.562C195.425 228.783 197.707 229.785 200.071 230.554C200.489 230.691 200.902 230.817 201.302 230.929C208.819 233.087 216.82 232.862 224.204 230.287L224.631 230.134C232.959 227.102 239.952 221.234 244.383 213.559C248.814 205.885 250.4 196.894 248.861 188.167C247.323 179.44 242.759 171.533 235.971 165.836C229.182 160.139 220.604 157.016 211.742 157.015L211.742 157.015Z" fill="#CCCCCC"/>
<path d="M364.219 424.825H155.594C152.968 424.822 150.45 423.777 148.592 421.92C146.735 420.063 145.69 417.545 145.688 414.918V131.702C145.69 129.075 146.735 126.557 148.592 124.7C150.45 122.843 152.968 121.798 155.594 121.795H364.219C366.845 121.798 369.364 122.843 371.221 124.7C373.078 126.557 374.123 129.075 374.126 131.702V414.918C374.123 417.545 373.078 420.063 371.221 421.92C369.364 423.777 366.845 424.822 364.219 424.825ZM155.594 122.96C153.277 122.963 151.055 123.885 149.416 125.524C147.777 127.162 146.856 129.384 146.853 131.702V414.918C146.856 417.236 147.777 419.458 149.416 421.096C151.055 422.735 153.277 423.657 155.594 423.66H364.219C366.536 423.657 368.758 422.735 370.397 421.096C372.036 419.458 372.958 417.236 372.96 414.918V131.702C372.958 129.384 372.036 127.162 370.397 125.524C368.758 123.885 366.536 122.963 364.219 122.96H155.594Z" fill="#3F3D56"/>
<path d="M323.832 195.352H264.798C263.56 195.352 262.372 194.86 261.496 193.984C260.62 193.108 260.128 191.92 260.128 190.682C260.128 189.443 260.62 188.255 261.496 187.379C262.372 186.504 263.56 186.012 264.798 186.012H323.832C325.07 186.012 326.258 186.504 327.134 187.379C328.01 188.255 328.502 189.443 328.502 190.682C328.502 191.92 328.01 193.108 327.134 193.984C326.258 194.86 325.07 195.352 323.832 195.352Z" fill="#276749"/>
<path d="M343.096 211.114H264.798C263.56 211.114 262.372 210.622 261.496 209.746C260.62 208.87 260.128 207.682 260.128 206.444C260.128 205.205 260.62 204.017 261.496 203.141C262.372 202.266 263.56 201.774 264.798 201.774H343.096C344.335 201.774 345.523 202.266 346.399 203.141C347.275 204.017 347.767 205.205 347.767 206.444C347.767 207.682 347.275 208.87 346.399 209.746C345.523 210.622 344.335 211.114 343.096 211.114Z" fill="#276749"/>
<path d="M323.746 271.568H176.717C175.478 271.568 174.291 271.076 173.415 270.2C172.539 269.324 172.047 268.136 172.047 266.898C172.047 265.659 172.539 264.471 173.415 263.595C174.291 262.719 175.478 262.227 176.717 262.227H323.746C324.985 262.227 326.172 262.719 327.048 263.595C327.924 264.471 328.416 265.659 328.416 266.898C328.416 268.136 327.924 269.324 327.048 270.2C326.172 271.076 324.985 271.568 323.746 271.568Z" fill="#CCCCCC"/>
<path d="M343.011 287.33H176.717C175.478 287.33 174.291 286.838 173.415 285.962C172.539 285.086 172.047 283.898 172.047 282.66C172.047 281.421 172.539 280.233 173.415 279.357C174.291 278.482 175.478 277.989 176.717 277.989H343.011C344.249 277.989 345.437 278.482 346.313 279.357C347.189 280.233 347.681 281.421 347.681 282.66C347.681 283.898 347.189 285.086 346.313 285.962C345.437 286.838 344.249 287.33 343.011 287.33Z" fill="#CCCCCC"/>
<path d="M323.746 323.557H176.717C175.48 323.556 174.293 323.063 173.419 322.187C172.544 321.312 172.053 320.124 172.053 318.887C172.053 317.649 172.544 316.462 173.419 315.587C174.293 314.711 175.48 314.218 176.717 314.217H323.746C324.985 314.217 326.173 314.709 327.048 315.585C327.924 316.46 328.416 317.648 328.416 318.887C328.416 320.125 327.924 321.313 327.048 322.189C326.173 323.065 324.985 323.557 323.746 323.557Z" fill="#CCCCCC"/>
<path d="M343.011 339.319H176.717C175.48 339.318 174.293 338.825 173.419 337.949C172.544 337.074 172.053 335.887 172.053 334.649C172.053 333.411 172.544 332.224 173.419 331.349C174.293 330.473 175.48 329.98 176.717 329.979H343.011C344.249 329.979 345.437 330.471 346.313 331.347C347.189 332.222 347.681 333.41 347.681 334.649C347.681 335.888 347.189 337.075 346.313 337.951C345.437 338.827 344.249 339.319 343.011 339.319Z" fill="#CCCCCC"/>
<path d="M323.746 375.546H176.717C175.478 375.546 174.291 375.054 173.415 374.178C172.539 373.303 172.047 372.115 172.047 370.876C172.047 369.637 172.539 368.45 173.415 367.574C174.291 366.698 175.478 366.206 176.717 366.206H323.746C324.985 366.206 326.172 366.698 327.048 367.574C327.924 368.45 328.416 369.637 328.416 370.876C328.416 372.115 327.924 373.303 327.048 374.178C326.172 375.054 324.985 375.546 323.746 375.546Z" fill="#CCCCCC"/>
<path d="M343.011 391.308H176.717C175.478 391.308 174.291 390.816 173.415 389.94C172.539 389.065 172.047 387.877 172.047 386.638C172.047 385.399 172.539 384.212 173.415 383.336C174.291 382.46 175.478 381.968 176.717 381.968H343.011C344.249 381.968 345.437 382.46 346.313 383.336C347.189 384.212 347.681 385.399 347.681 386.638C347.681 387.877 347.189 389.065 346.313 389.94C345.437 390.816 344.249 391.308 343.011 391.308Z" fill="#CCCCCC"/>
<path d="M361.799 360.334C355.752 360.328 349.763 361.513 344.174 363.822C338.586 366.131 333.507 369.52 329.229 373.793C324.951 378.067 321.557 383.141 319.241 388.727C316.925 394.313 315.733 400.301 315.733 406.348C315.733 412.395 316.925 418.382 319.241 423.968C321.556 429.554 324.95 434.629 329.229 438.903C333.507 443.176 338.585 446.564 344.174 448.874C349.762 451.183 355.751 452.368 361.798 452.362H361.799C373.988 452.34 385.671 447.483 394.283 438.856C402.894 430.229 407.731 418.537 407.731 406.348C407.731 394.158 402.894 382.467 394.283 373.84C385.671 365.213 373.988 360.356 361.799 360.334Z" fill="#276749"/>
<path d="M357.432 425.458C356.221 425.46 355.042 425.068 354.073 424.341L354.013 424.296L341.359 414.616C340.177 413.709 339.403 412.368 339.209 410.891C339.014 409.413 339.414 407.918 340.321 406.735C341.228 405.553 342.567 404.778 344.045 404.582C345.523 404.386 347.018 404.785 348.201 405.691L356.397 411.976L375.765 386.709C376.214 386.123 376.774 385.631 377.414 385.262C378.053 384.893 378.758 384.653 379.49 384.556C380.222 384.459 380.965 384.508 381.679 384.698C382.392 384.889 383.06 385.219 383.646 385.668L383.646 385.668L383.648 385.669L383.527 385.836L383.651 385.669C384.833 386.577 385.606 387.917 385.801 389.395C385.996 390.873 385.596 392.367 384.691 393.551L361.91 423.258C361.383 423.942 360.705 424.496 359.929 424.877C359.154 425.257 358.301 425.453 357.437 425.451L357.432 425.458Z" fill="white"/>
<path d="M82.8666 178.911C82.2162 179.251 81.5548 179.573 80.8822 179.876C80.2697 180.153 79.6475 180.413 79.0155 180.656C78.7847 180.744 78.5499 180.833 78.315 180.921C76.4576 181.594 74.55 182.12 72.6098 182.494C71.6491 182.683 70.6759 182.831 69.6901 182.938C68.8763 183.031 68.0541 183.096 67.2236 183.136C66.632 183.165 66.0404 183.178 65.4448 183.178C63.0858 183.179 60.7319 182.958 58.4141 182.519C57.8099 182.41 57.2185 182.28 56.627 182.137C53.7658 181.452 50.9961 180.429 48.3755 179.092C48.1406 178.974 47.9056 178.848 47.6707 178.727C47.3225 178.542 46.9829 178.349 46.6431 178.148C46.8065 177.921 46.9829 177.699 47.1631 177.481C49.1261 175.048 51.5796 173.057 54.3638 171.636C57.148 170.215 60.2004 169.396 63.322 169.234C66.4436 169.072 69.5644 169.569 72.4809 170.694C75.3974 171.818 78.0442 173.545 80.2488 175.761C81.014 176.529 81.7234 177.35 82.3715 178.219C82.5434 178.446 82.707 178.676 82.8666 178.911Z" fill="#276749"/>
<path d="M66.2818 160.484C76.4548 160.484 84.7017 152.237 84.7017 142.064C84.7017 131.891 76.4548 123.644 66.2818 123.644C56.1087 123.644 47.8618 131.891 47.8618 142.064C47.8618 152.237 56.1087 160.484 66.2818 160.484Z" fill="#2F2E41"/>
<path d="M71.1812 160.51C77.8249 156.878 80.2665 148.548 76.6348 141.905C73.0031 135.261 64.6731 132.819 58.0295 136.451C51.3858 140.083 48.9441 148.413 52.5759 155.056C56.2076 161.7 64.5375 164.142 71.1812 160.51Z" fill="#FFB8B8"/>
<path d="M79.0105 139.857C75.8777 142.017 72.1593 143.166 68.3545 143.151C69.7117 144.092 71.2568 144.727 72.8834 145.014C67.8246 146.099 62.5963 146.128 57.5256 145.1C56.3985 144.919 55.3109 144.546 54.3106 143.996C53.8121 143.717 53.3778 143.337 53.0359 142.88C52.694 142.423 52.4522 141.899 52.3261 141.342C51.9892 139.417 53.4891 137.668 55.0478 136.49C57.4344 134.713 60.186 133.488 63.1038 132.905C66.0215 132.322 69.0324 132.395 71.9185 133.118C73.8031 133.605 75.691 134.428 76.9151 135.942C78.1392 137.455 78.5018 139.789 77.3355 141.347L79.0105 139.857Z" fill="#2F2E41"/>
<path d="M56.9537 123.898C56.7556 121.814 54.2025 120.531 52.2059 121.161C50.2094 121.79 48.8986 123.801 48.5024 125.856C48.3117 126.722 48.2938 127.617 48.4497 128.489C48.6055 129.362 48.9321 130.195 49.4107 130.941C50.4199 132.394 52.2745 133.3 54.0042 132.932C55.9788 132.511 57.3468 130.583 57.7382 128.602C58.1297 126.621 57.741 124.579 57.3529 122.598L56.9537 123.898Z" fill="#2F2E41"/>
<path d="M85.0529 126.876C84.8547 124.791 82.3016 123.508 80.3051 124.138C78.3085 124.767 76.9977 126.778 76.6015 128.833C76.4108 129.699 76.3929 130.594 76.5488 131.467C76.7047 132.339 77.0313 133.173 77.5098 133.919C78.519 135.371 80.3736 136.278 82.1033 135.909C84.0779 135.488 85.4459 133.56 85.8374 131.579C86.2288 129.599 85.8402 127.557 85.452 125.575L85.0529 126.876Z" fill="#2F2E41"/>
<path d="M66.0663 184.609C61.5849 184.613 57.135 183.86 52.9053 182.379L52.5376 182.248C43.6776 179.046 36.2405 172.806 31.5488 164.636C26.857 156.467 25.2149 146.898 26.9143 137.632C28.6138 128.366 33.5447 120.003 40.8301 114.03C48.1156 108.057 57.2833 104.862 66.7028 105.013C76.1224 105.163 85.1833 108.65 92.274 114.853C99.3647 121.055 104.026 129.572 105.428 138.888C106.83 148.204 104.883 157.715 99.9322 165.73C94.9816 173.745 87.3487 179.745 78.3909 182.662C78.1405 182.741 77.9049 182.816 77.6655 182.888C76.6649 183.196 75.6035 183.472 74.5189 183.707C72.5859 184.126 70.6239 184.399 68.6498 184.522C67.8017 184.579 66.9303 184.609 66.0663 184.609ZM66.0663 107.112C57.1969 107.113 48.612 110.242 41.8214 115.948C35.0308 121.653 30.4696 129.571 28.9398 138.307C27.41 147.044 29.0098 156.04 33.4576 163.713C37.9055 171.387 44.9166 177.246 53.2579 180.261L53.6069 180.385C57.6112 181.787 61.8239 182.5 66.0663 182.495C66.883 182.495 67.7064 182.467 68.5136 182.413C70.383 182.296 72.241 182.038 74.0715 181.642C75.0974 181.419 76.1004 181.158 77.0524 180.865C77.2881 180.795 77.5119 180.723 77.7357 180.652C86.2675 177.873 93.5282 172.142 98.2127 164.489C102.897 156.836 104.698 147.763 103.292 138.901C101.886 130.039 97.3645 121.969 90.541 116.142C83.7175 110.315 75.0392 107.113 66.0663 107.112Z" fill="#CCCCCC"/>
</g>
<defs>
<clipPath id="clip0">
<rect width="500" height="452.362" fill="white"/>
</clipPath>
</defs>
</svg>
